KleiBookIta.ufo
<glyph name="numbersign" format="1">
  <advance width="716"/>
  <unicode hex="0023"/>
  <outline>
    <contour>
      <point x="403.154" y="737" type="curve" smooth="yes"/>
      <point x="432.154" y="737" type="line" smooth="yes"/>
      <point x="435.797" y="737"/>
      <point x="447.346" y="736.147"/>
      <point x="447.346" y="725.083" type="curve" smooth="yes"/>
      <point x="447.346" y="722.484"/>
      <point x="446.763" y="719.813"/>
      <point x="445.523" y="717.095" type="curve" smooth="yes"/>
      <point x="367.04" y="545" type="line"/>
      <point x="482.653" y="545" type="line"/>
      <point x="563.464" y="722.201" type="line"/>
      <point x="567.549" y="732.428"/>
      <point x="574.162" y="737"/>
      <point x="583.154" y="737" type="curve" smooth="yes"/>
      <point x="611.154" y="737" type="line" smooth="yes"/>
      <point x="615.301" y="737"/>
      <point x="626.309" y="735.647"/>
      <point x="626.309" y="724.72" type="curve" smooth="yes"/>
      <point x="626.309" y="722.629"/>
      <point x="625.905" y="720.125"/>
      <point x="624.523" y="717.095" type="curve" smooth="yes"/>
      <point x="546.04" y="545" type="line"/>
      <point x="668.154" y="545" type="line" smooth="yes"/>
      <point x="670.629" y="545"/>
      <point x="683.309" y="545.618"/>
      <point x="683.309" y="534.469" type="curve" smooth="yes"/>
      <point x="683.309" y="529.117"/>
      <point x="680.621" y="525.207"/>
      <point x="679.375" y="522.789" type="curve" smooth="yes"/>
      <point x="673.396" y="501.829" type="line"/>
      <point x="669.915" y="494.868"/>
      <point x="662.612" y="486"/>
      <point x="652.154" y="486" type="curve" smooth="yes"/>
      <point x="525.656" y="486" type="line"/>
      <point x="429.039" y="286" type="line"/>
      <point x="562.154" y="286" type="line" smooth="yes"/>
      <point x="567.484" y="286"/>
      <point x="576.309" y="283.406"/>
      <point x="576.309" y="274.469" type="curve" smooth="yes"/>
      <point x="576.309" y="270.162"/>
      <point x="574.497" y="267.971"/>
      <point x="573.379" y="265.799" type="curve" smooth="yes"/>
      <point x="563.397" y="240.834" type="line"/>
      <point x="559.38" y="232.8"/>
      <point x="551.23" y="227"/>
      <point x="542.154" y="227" type="curve" smooth="yes"/>
      <point x="405.656" y="227" type="line"/>
      <point x="306.524" y="17.0963" type="line" smooth="yes"/>
      <point x="304.059" y="11.6909"/>
      <point x="299.731" y="3"/>
      <point x="289.154" y="3" type="curve" smooth="yes"/>
      <point x="259.154" y="3" type="line" smooth="yes"/>
      <point x="253.344" y="3"/>
      <point x="243.909" y="5.70374"/>
      <point x="243.909" y="15.2451" type="curve" smooth="yes"/>
      <point x="243.909" y="17.8855"/>
      <point x="244.525" y="20.1405"/>
      <point x="245.785" y="22.9037" type="curve" smooth="yes"/>
      <point x="342.271" y="227" type="line"/>
      <point x="225.677" y="227" type="line"/>
      <point x="127.535" y="17.1222" type="line" smooth="yes"/>
      <point x="124.691" y="10.8154"/>
      <point x="119.317" y="3"/>
      <point x="109.154" y="3" type="curve" smooth="yes"/>
      <point x="78.1543" y="3" type="line" smooth="yes"/>
      <point x="72.0345" y="3"/>
      <point x="63" y="6.21678"/>
      <point x="63" y="16" type="curve" smooth="yes"/>
      <point x="63" y="19.1503"/>
      <point x="63.8833" y="20.9258"/>
      <point x="64.7849" y="22.9037" type="curve" smooth="yes"/>
      <point x="161.271" y="227" type="line"/>
      <point x="53.1543" y="227" type="line" smooth="yes"/>
      <point x="48.2119" y="227"/>
      <point x="38" y="229.187"/>
      <point x="38" y="239.501" type="curve" smooth="yes"/>
      <point x="38" y="244.056"/>
      <point x="39.9287" y="247.26"/>
      <point x="40.9316" y="249.206" type="curve" smooth="yes"/>
      <point x="49.9122" y="272.168" type="line"/>
      <point x="53.9273" y="280.199"/>
      <point x="62.0782" y="286"/>
      <point x="71.1543" y="286" type="curve" smooth="yes"/>
      <point x="184.632" y="286" type="line"/>
      <point x="280.318" y="486" type="line"/>
      <point x="162.154" y="486" type="line" smooth="yes"/>
      <point x="157.771" y="486"/>
      <point x="146.963" y="487.611"/>
      <point x="146.963" y="498.165" type="curve" smooth="yes"/>
      <point x="146.963" y="502.924"/>
      <point x="148.979" y="506.355"/>
      <point x="149.932" y="508.206" type="curve" smooth="yes"/>
      <point x="156.912" y="531.168" type="line"/>
      <point x="160.927" y="539.199"/>
      <point x="169.078" y="545"/>
      <point x="178.154" y="545" type="curve" smooth="yes"/>
      <point x="301.653" y="545" type="line"/>
      <point x="382.362" y="721.976" type="line"/>
      <point x="386.985" y="733.185"/>
      <point x="394.43" y="737"/>
    </contour>
    <contour>
      <point x="345.656" y="486" type="line"/>
      <point x="249.039" y="286" type="line"/>
      <point x="364.652" y="286" type="line"/>
      <point x="461.271" y="486" type="line"/>
    </contour>
  </outline>
</glyph>
<glyph name="parenright" format="1">
  <advance width="382"/>
  <unicode hex="0029"/>
  <outline>
    <contour>
      <point x="233.861" y="756.187" type="line"/>
      <point x="244.827" y="803.18" type="line"/>
      <point x="253.818" y="792.806" type="line"/>
      <point x="255.057" y="791.377"/>
      <point x="344.1" y="687.9"/>
      <point x="344.1" y="488.375" type="curve" smooth="yes"/>
      <point x="344.1" y="437.23"/>
      <point x="338.251" y="379.829"/>
      <point x="323.594" y="316.244" type="curve" smooth="yes"/>
      <point x="258.929" y="37.4423"/>
      <point x="37.1399" y="-150.234"/>
      <point x="36.7535" y="-150.562" type="curve" smooth="yes"/>
      <point x="20.1535" y="-164.647" type="line"/>
      <point x="36.3287" y="-99.9465" type="line"/>
      <point x="37.381" y="-98.7029" type="line" smooth="yes"/>
      <point x="72.9214" y="-56.7018"/>
      <point x="176.834" y="10.6436"/>
      <point x="248.004" y="318.346" type="curve" smooth="yes"/>
      <point x="273.083" y="427.252"/>
      <point x="281.859" y="507.395"/>
      <point x="281.859" y="567.157" type="curve" smooth="yes"/>
      <point x="281.859" y="689.752"/>
      <point x="246.089" y="725.211"/>
      <point x="234.664" y="754.154" type="curve" smooth="yes"/>
    </contour>
  </outline>
</glyph>
<glyph name="asterisk" format="1">
  <advance width="383"/>
  <unicode hex="002A"/>
  <outline>
    <contour>
      <point x="206.005" y="640.719" type="line" smooth="yes"/>
      <point x="207.769" y="649.536"/>
      <point x="216.345" y="656.625"/>
      <point x="225.425" y="656.625" type="curve" smooth="yes"/>
      <point x="228.575" y="656.625" type="line" smooth="yes"/>
      <point x="236.807" y="656.625"/>
      <point x="244.137" y="650.187"/>
      <point x="244.137" y="641.027" type="curve" smooth="yes"/>
      <point x="244.137" y="639.956"/>
      <point x="244.07" y="639.119"/>
      <point x="243.863" y="637.874" type="curve"/>
      <point x="223.45" y="533.955" type="line"/>
      <point x="319.031" y="580.355" type="line"/>
      <point x="321.885" y="581.781"/>
      <point x="324.546" y="583.125"/>
      <point x="328.325" y="583.125" type="curve" smooth="yes"/>
      <point x="335.82" y="583.125"/>
      <point x="345.563" y="577.94"/>
      <point x="345.563" y="567.069" type="curve" smooth="yes"/>
      <point x="345.563" y="557.579"/>
      <point x="341.227" y="551.096"/>
      <point x="333.222" y="546.532" type="curve"/>
      <point x="237.348" y="488.048" type="line"/>
      <point x="305.55" y="430.266" type="line" smooth="yes"/>
      <point x="307.596" y="428.533"/>
      <point x="311.568" y="424.805"/>
      <point x="311.568" y="418.871" type="curve" smooth="yes"/>
      <point x="311.568" y="411.821"/>
      <point x="308.194" y="406.522"/>
      <point x="304.982" y="403.234" type="curve" smooth="yes"/>
      <point x="301.464" y="399.631"/>
      <point x="295.983" y="394.825"/>
      <point x="288.425" y="394.825" type="curve" smooth="yes"/>
      <point x="286.944" y="394.825"/>
      <point x="283.762" y="394.868"/>
      <point x="280.462" y="396.972" type="curve" smooth="yes"/>
      <point x="204.496" y="445.4" type="line"/>
      <point x="175.482" y="338.049" type="line"/>
      <point x="175.482" y="338.049"/>
      <point x="161.769" y="322.375"/>
      <point x="155.075" y="322.375" type="curve" smooth="yes"/>
      <point x="151.925" y="322.375" type="line" smooth="yes"/>
      <point x="143.693" y="322.375"/>
      <point x="136.363" y="328.813"/>
      <point x="136.363" y="337.973" type="curve" smooth="yes"/>
      <point x="136.363" y="339.029"/>
      <point x="136.435" y="339.911"/>
      <point x="136.633" y="341.102" type="curve"/>
      <point x="156.109" y="444.045" type="line"/>
      <point x="58.3835" y="396.578" type="line" smooth="yes"/>
      <point x="55.6209" y="395.237"/>
      <point x="52.6156" y="394.825"/>
      <point x="50.0752" y="394.825" type="curve" smooth="yes"/>
      <point x="40.4392" y="394.825"/>
      <point x="34.9375" y="404.158"/>
      <point x="34.9375" y="411.8" type="curve" smooth="yes"/>
      <point x="34.9375" y="413.851"/>
      <point x="35.1379" y="417.069"/>
      <point x="35.9438" y="420.213" type="curve" smooth="yes"/>
      <point x="37.7353" y="427.202"/>
      <point x="43.7736" y="429.931"/>
      <point x="45.4065" y="430.917" type="curve" smooth="yes"/>
      <point x="143.047" y="489.887" type="line"/>
      <point x="74.9376" y="546.653" type="line" smooth="yes"/>
      <point x="71.8611" y="549.222"/>
      <point x="68.6973" y="553.35"/>
      <point x="68.6973" y="559.016" type="curve" smooth="yes"/>
      <point x="68.6973" y="572.842"/>
      <point x="80.4474" y="583.125"/>
      <point x="91.0254" y="583.125" type="curve" smooth="yes"/>
      <point x="92.9864" y="583.125"/>
      <point x="96.3408" y="582.868"/>
      <point x="99.4047" y="581.337" type="curve" smooth="yes"/>
      <point x="99.7132" y="581.183" type="line"/>
      <point x="177.02" y="532.508" type="line"/>
    </contour>
  </outline>
</glyph>
<glyph name="plus" format="1">
  <advance width="395"/>
  <unicode hex="002B"/>
  <outline>
    <contour>
      <point x="189.857" y="143.602" type="line" smooth="yes"/>
      <point x="187.394" y="131.288"/>
      <point x="170.787" y="129.675"/>
      <point x="160.963" y="129.675" type="curve" smooth="yes"/>
      <point x="153.909" y="129.675"/>
      <point x="132.896" y="131.776"/>
      <point x="132.896" y="143.415" type="curve" smooth="yes"/>
      <point x="132.896" y="146.789"/>
      <point x="134.937" y="153.667"/>
      <point x="135.158" y="154.485" type="curve" smooth="yes"/>
      <point x="145.615" y="193.174"/>
      <point x="154.61" y="232.026"/>
      <point x="163.649" y="271.275" type="curve"/>
      <point x="60.8145" y="271.275" type="line"/>
      <point x="51.8645" y="274.857"/>
      <point x="50.2402" y="284.258"/>
      <point x="50.2402" y="291.979" type="curve" smooth="yes"/>
      <point x="50.2402" y="304.6"/>
      <point x="54.6426" y="326.475"/>
      <point x="70.6621" y="326.475" type="curve" smooth="yes"/>
      <point x="172.513" y="326.475" type="line" smooth="yes"/>
      <point x="174.59" y="326.475"/>
      <point x="175.243" y="327.815"/>
      <point x="176.269" y="330.826" type="curve"/>
      <point x="202.284" y="444.478" type="line"/>
      <point x="206" y="445.716" type="line" smooth="yes"/>
      <point x="215.724" y="448.957"/>
      <point x="224.742" y="451.325"/>
      <point x="233.412" y="451.325" type="curve" smooth="yes"/>
      <point x="242.122" y="451.325"/>
      <point x="249.721" y="448.793"/>
      <point x="255.913" y="445.078" type="curve" smooth="yes"/>
      <point x="260.287" y="442.454" type="line"/>
      <point x="233.93" y="327.287" type="line" smooth="yes"/>
      <point x="233.93" y="327.287"/>
      <point x="328.02" y="326.475"/>
      <point x="337.362" y="326.475" type="curve" smooth="yes"/>
      <point x="346.092" y="326.475"/>
      <point x="347.133" y="314.15"/>
      <point x="347.133" y="311.104" type="curve" smooth="yes"/>
      <point x="347.133" y="302.882"/>
      <point x="346.256" y="271.275"/>
      <point x="328.862" y="271.275" type="curve" smooth="yes"/>
      <point x="222.763" y="271.275" type="line" smooth="yes"/>
      <point x="221.359" y="271.275"/>
      <point x="220.42" y="270.339"/>
      <point x="220.206" y="269.451" type="curve" smooth="yes"/>
    </contour>
  </outline>
</glyph>
<glyph name="slash" format="1">
  <advance width="552"/>
  <unicode hex="002F"/>
  <outline>
    <contour>
      <point x="21.1683" y="-112.334" type="line" smooth="yes"/>
      <point x="188.047" y="180.491"/>
      <point x="317.111" y="428.127"/>
      <point x="449.365" y="697.881" type="curve" smooth="yes"/>
      <point x="450.159" y="699.5" type="line"/>
      <point x="451.636" y="700.534" type="line" smooth="yes"/>
      <point x="473.221" y="715.644"/>
      <point x="491.047" y="722.8"/>
      <point x="505" y="722.8" type="curve" smooth="yes"/>
      <point x="518.043" y="722.8"/>
      <point x="528.553" y="714.983"/>
      <point x="528.553" y="701.264" type="curve" smooth="yes"/>
      <point x="528.553" y="698.676"/>
      <point x="528.211" y="696.001"/>
      <point x="527.571" y="693.226" type="curve" smooth="yes"/>
      <point x="527.345" y="692.247" type="line"/>
      <point x="526.853" y="691.371" type="line" smooth="yes"/>
      <point x="380.55" y="430.931"/>
      <point x="121.601" y="-69.1057"/>
      <point x="116.648" y="-78.6709" type="curve"/>
      <point x="96.5983" y="-133.387"/>
      <point x="63.0033" y="-110.087"/>
      <point x="29.6699" y="-122.368" type="curve" smooth="yes"/>
      <point x="11.6706" y="-129" type="line"/>
    </contour>
  </outline>
</glyph>
<glyph name="zero" format="1">
  <advance width="480"/>
  <unicode hex="0030"/>
  <outline>
    <contour>
      <point x="326.708" y="607" type="curve" smooth="yes"/>
      <point x="236.405" y="607"/>
      <point x="108.397" y="368.512"/>
      <point x="108.397" y="184.488" type="curve" smooth="yes"/>
      <point x="108.397" y="92.2754"/>
      <point x="135.007" y="27"/>
      <point x="177.062" y="27" type="curve" smooth="yes"/>
      <point x="267.698" y="27"/>
      <point x="395.47" y="256.498"/>
      <point x="395.47" y="450.966" type="curve" smooth="yes"/>
      <point x="395.47" y="542.306"/>
      <point x="368.447" y="607"/>
    </contour>
    <contour>
      <point x="33.2607" y="205.355" type="curve" smooth="yes"/>
      <point x="33.2607" y="423.269"/>
      <point x="185.17" y="640"/>
      <point x="332.204" y="640" type="curve" smooth="yes"/>
      <point x="424.83" y="640"/>
      <point x="469.646" y="550.633"/>
      <point x="469.646" y="430.529" type="curve" smooth="yes"/>
      <point x="469.646" y="212.722"/>
      <point x="321.123" y="-7"/>
      <point x="171.565" y="-7" type="curve" smooth="yes"/>
      <point x="79.3867" y="-7"/>
      <point x="33.2607" y="84.209"/>
    </contour>
  </outline>
</glyph>
<glyph name="one" format="1">
  <advance width="480"/>
  <unicode hex="0031"/>
  <outline>
    <contour>
      <point x="267.966" y="20" type="curve" smooth="yes"/>
      <point x="276.4" y="20" type="line"/>
      <point x="272.775" y="0" type="line"/>
      <point x="115" y="0" type="line"/>
      <point x="120.5" y="20" type="line"/>
      <point x="125.966" y="20" type="line" smooth="yes"/>
      <point x="143.993" y="20"/>
      <point x="156.3" y="32.709"/>
      <point x="159.14" y="45.2021" type="curve"/>
      <point x="290.147" y="524.111" type="line" smooth="yes"/>
      <point x="291.782" y="530.989"/>
      <point x="294.624" y="542.375"/>
      <point x="294.624" y="545.585" type="curve" smooth="yes"/>
      <point x="294.624" y="549.836"/>
      <point x="293.699" y="558.979"/>
      <point x="288.966" y="558.979" type="curve" smooth="yes"/>
      <point x="279.558" y="558.979"/>
      <point x="256.567" y="556.049"/>
      <point x="256.567" y="556.049" type="curve" smooth="yes"/>
      <point x="247.271" y="555.264" type="line"/>
      <point x="253.841" y="577.373" type="line"/>
      <point x="257.336" y="578.758" type="line" smooth="yes"/>
      <point x="293.865" y="593.234"/>
      <point x="346.446" y="618.539"/>
      <point x="382.44" y="639.048" type="curve" smooth="yes"/>
      <point x="384.974" y="640.524"/>
      <point x="388.827" y="643"/>
      <point x="393.966" y="643" type="curve" smooth="yes"/>
      <point x="401.199" y="643"/>
      <point x="407.157" y="641.617"/>
      <point x="407.157" y="639.78" type="curve" smooth="yes"/>
      <point x="407.157" y="639.522"/>
      <point x="407.058" y="639.263"/>
      <point x="406.87" y="639" type="curve" smooth="yes"/>
      <point x="406.835" y="639" type="line"/>
      <point x="250" y="46" type="line"/>
      <point x="249.669" y="44.4287"/>
      <point x="248.312" y="39.3838"/>
      <point x="248.312" y="38.2842" type="curve" smooth="yes"/>
      <point x="248.312" y="32.0029"/>
      <point x="251.347" y="20"/>
    </contour>
  </outline>
</glyph>
<glyph name="two" format="1">
  <advance width="595"/>
  <unicode hex="0032"/>
  <outline>
    <contour>
      <point x="254.259" y="528.115" type="curve" smooth="yes"/>
      <point x="248.684" y="522.686" type="line"/>
      <point x="229.751" y="538.639" type="line"/>
      <point x="233.296" y="543.171" type="line" smooth="yes"/>
      <point x="233.382" y="543.282"/>
      <point x="309.447" y="642"/>
      <point x="418.381" y="642" type="curve" smooth="yes"/>
      <point x="499.79" y="642"/>
      <point x="549.813" y="605.556"/>
      <point x="549.813" y="541.863" type="curve" smooth="yes"/>
      <point x="549.813" y="447.048"/>
      <point x="475.14" y="391.777"/>
      <point x="361.556" y="279.037" type="curve" smooth="yes"/>
      <point x="275.477" y="194.923"/>
      <point x="184.594" y="97.1582"/>
      <point x="143.02" y="58" type="curve"/>
      <point x="352.525" y="58" type="line" smooth="yes"/>
      <point x="398.716" y="58"/>
      <point x="425.973" y="75.5225"/>
      <point x="441.783" y="105.284" type="curve" smooth="yes"/>
      <point x="444.116" y="109.675" type="line"/>
      <point x="462.107" y="105.368" type="line"/>
      <point x="405.279" y="0" type="line"/>
      <point x="36" y="0" type="line"/>
      <point x="38.1748" y="8.49512" type="line" smooth="yes"/>
      <point x="41.1436" y="20.0938"/>
      <point x="46.1396" y="41.5615"/>
      <point x="46.1396" y="41.5615" type="curve" smooth="yes"/>
      <point x="46.5908" y="43.499" type="line"/>
      <point x="48.0361" y="44.8984" type="line" smooth="yes"/>
      <point x="172.724" y="164.872"/>
      <point x="273.813" y="269.289"/>
      <point x="347.562" y="344.473" type="curve" smooth="yes"/>
      <point x="406.003" y="404.521"/>
      <point x="469.051" y="456.891"/>
      <point x="469.051" y="524.995" type="curve" smooth="yes"/>
      <point x="469.051" y="568.869"/>
      <point x="434.949" y="597"/>
      <point x="386.765" y="597" type="curve" smooth="yes"/>
      <point x="331.072" y="597"/>
      <point x="294.51" y="567.312"/>
    </contour>
  </outline>
</glyph>
<glyph name="three" format="1">
  <advance width="480"/>
  <unicode hex="0033"/>
  <outline>
    <contour>
      <point x="137.938" y="515.581" type="curve"/>
      <point x="122.636" y="530.578" type="line"/>
      <point x="125.324" y="533.44"/>
      <point x="219.56" y="640"/>
      <point x="329.257" y="640" type="curve" smooth="yes"/>
      <point x="404.653" y="640"/>
      <point x="447.197" y="610.201"/>
      <point x="447.197" y="560.277" type="curve" smooth="yes"/>
      <point x="447.197" y="480.642"/>
      <point x="361.617" y="427.399"/>
      <point x="291.195" y="379.184" type="curve"/>
      <point x="359.096" y="369.316"/>
      <point x="417.702" y="312.957"/>
      <point x="417.702" y="234.667" type="curve" smooth="yes"/>
      <point x="417.702" y="83.5215"/>
      <point x="273.529" y="-7"/>
      <point x="128.855" y="-7" type="curve" smooth="yes"/>
      <point x="75.1836" y="-7"/>
      <point x="0" y="12.4717"/>
      <point x="0" y="41.918" type="curve" smooth="yes"/>
      <point x="0" y="46.7998"/>
      <point x="2.05957" y="50.2578"/>
      <point x="2.99609" y="52.1309" type="curve" smooth="yes"/>
      <point x="6.97656" y="60.1016"/>
      <point x="21.5381" y="66"/>
      <point x="34.2568" y="66" type="curve" smooth="yes"/>
      <point x="45.4785" y="66"/>
      <point x="56.3047" y="57.8516"/>
      <point x="66.207" y="47.9502" type="curve" smooth="yes"/>
      <point x="80.0312" y="34.125"/>
      <point x="107.145" y="17"/>
      <point x="136.362" y="17" type="curve" smooth="yes"/>
      <point x="234.409" y="17"/>
      <point x="344.884" y="99.9463"/>
      <point x="344.884" y="206.894" type="curve" smooth="yes"/>
      <point x="344.884" y="240.567"/>
      <point x="318.958" y="277.478"/>
      <point x="294.238" y="291.586" type="curve" smooth="yes"/>
      <point x="272.827" y="303.806"/>
      <point x="244.224" y="311"/>
      <point x="218.87" y="311" type="curve" smooth="yes"/>
      <point x="183.873" y="311"/>
      <point x="142.85" y="288"/>
      <point x="128.855" y="288" type="curve" smooth="yes"/>
      <point x="119.993" y="288"/>
      <point x="114.257" y="292.867"/>
      <point x="114.257" y="300" type="curve" smooth="yes"/>
      <point x="114.257" y="306.457"/>
      <point x="119.221" y="311.459"/>
      <point x="122.531" y="313.505" type="curve" smooth="yes"/>
      <point x="129.385" y="317.683"/>
      <point x="351.496" y="446.726"/>
      <point x="351.496" y="535.961" type="curve" smooth="yes"/>
      <point x="351.496" y="567.009"/>
      <point x="331.789" y="594"/>
      <point x="296.305" y="594" type="curve" smooth="yes"/>
      <point x="247.597" y="594"/>
      <point x="183.631" y="560.294"/>
    </contour>
  </outline>
</glyph>
<glyph name="four" format="1">
  <advance width="485"/>
  <unicode hex="0034"/>
  <outline>
    <contour>
      <point x="288.813" y="316.043" type="curve"/>
      <point x="339.712" y="513.466" type="line"/>
      <point x="304.621" y="476.881"/>
      <point x="263.242" y="435.799"/>
      <point x="224" y="397.749" type="curve" smooth="yes"/>
      <point x="193.884" y="368.549"/>
      <point x="165.026" y="341.134"/>
      <point x="141.235" y="318.909" type="curve"/>
      <point x="191.721" y="318.435"/>
      <point x="262.236" y="316.369"/>
    </contour>
    <contour>
      <point x="54.2461" y="300.396" type="curve" smooth="yes"/>
      <point x="165.375" y="409.466"/>
      <point x="293.298" y="517.204"/>
      <point x="395.805" y="625.775" type="curve" smooth="yes"/>
      <point x="404.064" y="636.199"/>
      <point x="413.979" y="642"/>
      <point x="425.196" y="642" type="curve" smooth="yes"/>
      <point x="428.203" y="642"/>
      <point x="430.801" y="641.65"/>
      <point x="433" y="641.023" type="curve" smooth="yes"/>
      <point x="439.332" y="639.217"/>
      <point x="442.364" y="635.118"/>
      <point x="442.364" y="630.477" type="curve" smooth="yes"/>
      <point x="442.364" y="629.599"/>
      <point x="442.256" y="628.701"/>
      <point x="442.04" y="627.796" type="curve" smooth="yes"/>
      <point x="370.026" y="325.256" type="line"/>
      <point x="382.966" y="325.598"/>
      <point x="396.806" y="326.089"/>
      <point x="410" y="326.874" type="curve" smooth="yes"/>
      <point x="425.352" y="327.788"/>
      <point x="439.83" y="329.101"/>
      <point x="450.997" y="331.044" type="curve"/>
      <point x="446.966" y="322.826"/>
      <point x="440.712" y="314.578"/>
      <point x="440.712" y="302.273" type="curve" smooth="yes"/>
      <point x="440.712" y="292.998"/>
      <point x="441.983" y="284.083"/>
      <point x="444.56" y="278.119" type="curve"/>
      <point x="360.751" y="278.119" type="line"/>
      <point x="301.83" y="7.52344" type="line"/>
      <point x="300.726" y="1.92383"/>
      <point x="299.963" y="0"/>
      <point x="294" y="0" type="curve" smooth="yes"/>
      <point x="237.196" y="0" type="line" smooth="yes"/>
      <point x="236.467" y="0"/>
      <point x="235.73" y="0.00878906"/>
      <point x="235" y="0.0263672" type="curve" smooth="yes"/>
      <point x="232.872" y="0.078125"/>
      <point x="228.787" y="0.0936609"/>
      <point x="227" y="0.162109" type="curve" smooth="yes"/>
      <point x="222.946" y="0.317383"/>
      <point x="221.771" y="1.75977"/>
      <point x="221.771" y="5.27637" type="curve" smooth="yes"/>
      <point x="221.771" y="5.97949"/>
      <point x="223.788" y="13"/>
      <point x="224" y="14" type="curve" smooth="yes"/>
      <point x="242.255" y="99.2656"/>
      <point x="261.362" y="185.679"/>
      <point x="279.562" y="271" type="curve"/>
      <point x="58.1963" y="271" type="line" smooth="yes"/>
      <point x="50.127" y="271"/>
      <point x="46" y="278.341"/>
      <point x="46" y="284.202" type="curve" smooth="yes"/>
      <point x="46" y="292.07"/>
      <point x="51.1201" y="297.326"/>
    </contour>
  </outline>
</glyph>
<glyph name="five" format="1">
  <advance width="584"/>
  <unicode hex="0035"/>
  <outline>
    <contour>
      <point x="464.393" y="611" type="line" smooth="yes"/>
      <point x="481.872" y="611"/>
      <point x="498.074" y="612.955"/>
      <point x="510.856" y="615.829" type="curve" smooth="yes"/>
      <point x="514.034" y="616.544"/>
      <point x="519.45" y="618"/>
      <point x="523.393" y="618" type="curve" smooth="yes"/>
      <point x="529.851" y="618"/>
      <point x="539.546" y="614.952"/>
      <point x="539.546" y="605.621" type="curve" smooth="yes"/>
      <point x="539.546" y="595.262"/>
      <point x="517.648" y="572.684"/>
      <point x="508.396" y="557.763" type="curve" smooth="yes"/>
      <point x="506.355" y="554.475" type="line"/>
      <point x="255.916" y="554.475" type="line"/>
      <point x="172.432" y="380.592" type="line"/>
      <point x="219.249" y="400.352"/>
      <point x="263.47" y="410"/>
      <point x="303.061" y="410" type="curve" smooth="yes"/>
      <point x="395.43" y="410"/>
      <point x="457.55" y="357.781"/>
      <point x="457.55" y="267.175" type="curve" smooth="yes"/>
      <point x="457.55" y="122.147"/>
      <point x="326.032" y="-9"/>
      <point x="186.737" y="-9" type="curve" smooth="yes"/>
      <point x="142.198" y="-9"/>
      <point x="87.418" y="12.7354"/>
      <point x="46.5469" y="51.9492" type="curve" smooth="yes"/>
      <point x="43.4033" y="54.9639"/>
      <point x="42" y="59.1416"/>
      <point x="42" y="62.6074" type="curve" smooth="yes"/>
      <point x="42" y="70.6543"/>
      <point x="50.1797" y="79"/>
      <point x="57.3926" y="79" type="curve" smooth="yes"/>
      <point x="62.1738" y="79"/>
      <point x="65.4014" y="75.8906"/>
      <point x="66.3428" y="74.9502" type="curve" smooth="yes"/>
      <point x="66.832" y="74.46" type="line"/>
      <point x="67.2168" y="73.8828" type="line" smooth="yes"/>
      <point x="92.7422" y="48.5947"/>
      <point x="150.164" y="29"/>
      <point x="185.68" y="29" type="curve" smooth="yes"/>
      <point x="293.554" y="29"/>
      <point x="388.723" y="126.675"/>
      <point x="388.723" y="217.001" type="curve" smooth="yes"/>
      <point x="388.723" y="285.77"/>
      <point x="345.015" y="340"/>
      <point x="266.761" y="340" type="curve" smooth="yes"/>
      <point x="224.159" y="340"/>
      <point x="160.558" y="321.187"/>
      <point x="97.8242" y="285.899" type="curve" smooth="yes"/>
      <point x="79.2393" y="275.444" type="line"/>
      <point x="238.004" y="611" type="line"/>
    </contour>
  </outline>
</glyph>
<glyph name="six" format="1">
  <advance width="542"/>
  <unicode hex="0036"/>
  <outline>
    <contour>
      <point x="496.259" y="633" type="curve" smooth="yes"/>
      <point x="496.259" y="622.623"/>
      <point x="491.993" y="611.811"/>
      <point x="479.404" y="608.214" type="curve" smooth="yes"/>
      <point x="287.189" y="560.288"/>
      <point x="123.747" y="390.219"/>
      <point x="123.747" y="168.204" type="curve" smooth="yes"/>
      <point x="123.747" y="92.5078"/>
      <point x="147.137" y="21"/>
      <point x="210.743" y="21" type="curve" smooth="yes"/>
      <point x="302.722" y="21"/>
      <point x="395.649" y="121.114"/>
      <point x="395.649" y="249.557" type="curve" smooth="yes"/>
      <point x="395.649" y="315.104"/>
      <point x="353.598" y="350.66"/>
      <point x="301.68" y="350.66" type="curve" smooth="yes"/>
      <point x="255.514" y="350.66"/>
      <point x="232.571" y="336.794"/>
      <point x="208.584" y="316.799" type="curve" smooth="yes"/>
      <point x="208.363" y="316.613" type="line"/>
      <point x="208.122" y="316.446" type="line" smooth="yes"/>
      <point x="204.773" y="314.121"/>
      <point x="200.858" y="313.079"/>
      <point x="197.224" y="313.079" type="curve" smooth="yes"/>
      <point x="190.977" y="313.079"/>
      <point x="182.954" y="317.258"/>
      <point x="182.954" y="324.606" type="curve" smooth="yes"/>
      <point x="182.954" y="330.036"/>
      <point x="185.924" y="333.924"/>
      <point x="190.439" y="338.112" type="curve"/>
      <point x="216.738" y="364.211"/>
      <point x="259.588" y="407.309"/>
      <point x="343.549" y="407.309" type="curve" smooth="yes"/>
      <point x="400.83" y="407.309"/>
      <point x="476.31" y="368.922"/>
      <point x="476.31" y="269.41" type="curve" smooth="yes"/>
      <point x="476.31" y="119.634"/>
      <point x="351.298" y="-8"/>
      <point x="203.253" y="-8" type="curve" smooth="yes"/>
      <point x="103.15" y="-8"/>
      <point x="42.2529" y="77.0879"/>
      <point x="42.2529" y="183.166" type="curve" smooth="yes"/>
      <point x="42.2529" y="455.792"/>
      <point x="291.315" y="598.259"/>
      <point x="486.144" y="636.853" type="curve" smooth="yes"/>
      <point x="492.345" y="638.145" type="line"/>
      <point x="494.248" y="632.103" type="line" smooth="yes"/>
      <point x="494.293" y="632.112"/>
      <point x="496.259" y="632.51"/>
    </contour>
  </outline>
</glyph>
<glyph name="seven" format="1">
  <advance width="461"/>
  <unicode hex="0037"/>
  <outline>
    <contour>
      <point x="420.662" y="558" type="curve"/>
      <point x="163.489" y="558" type="line" smooth="yes"/>
      <point x="152.429" y="558"/>
      <point x="134.338" y="534.412"/>
      <point x="134.283" y="534.35" type="curve" smooth="yes"/>
      <point x="132.194" y="532" type="line"/>
      <point x="129.051" y="532" type="line" smooth="yes"/>
      <point x="122.642" y="532"/>
      <point x="120" y="542"/>
      <point x="120" y="542" type="curve" smooth="yes"/>
      <point x="121.207" y="545.431" type="line"/>
      <point x="147.797" y="608.182" type="line"/>
      <point x="148.049" y="608.602" type="line" smooth="yes"/>
      <point x="152.147" y="615.434"/>
      <point x="157.596" y="622"/>
      <point x="164.613" y="622" type="curve" smooth="yes"/>
      <point x="506.051" y="622" type="line" smooth="yes"/>
      <point x="514.76" y="622"/>
      <point x="520.297" y="615.371"/>
      <point x="520.297" y="608.07" type="curve" smooth="yes"/>
      <point x="520.297" y="597.444"/>
      <point x="511.132" y="588.702"/>
      <point x="508.55" y="585.496" type="curve" smooth="yes"/>
      <point x="356.888" y="400.301"/>
      <point x="180.206" y="164.162"/>
      <point x="118.909" y="-0" type="curve"/>
      <point x="41" y="0" type="line"/>
      <point x="103.247" y="164.172"/>
      <point x="279.947" y="407.444"/>
    </contour>
  </outline>
</glyph>
<glyph name="eight" format="1">
  <advance width="532"/>
  <unicode hex="0038"/>
  <outline>
    <contour>
      <point x="121.038" y="121.481" type="curve" smooth="yes"/>
      <point x="121.038" y="57.4209"/>
      <point x="154.488" y="20"/>
      <point x="207.631" y="20" type="curve" smooth="yes"/>
      <point x="291.709" y="20"/>
      <point x="358.897" y="92.9697"/>
      <point x="358.897" y="172.485" type="curve" smooth="yes"/>
      <point x="358.897" y="229.426"/>
      <point x="314.8" y="283.855"/>
      <point x="265.238" y="323.052" type="curve"/>
      <point x="176.203" y="259.569"/>
      <point x="121.038" y="219.247"/>
    </contour>
    <contour>
      <point x="229.302" y="483.454" type="curve" smooth="yes"/>
      <point x="229.302" y="437.805"/>
      <point x="263.097" y="416.068"/>
      <point x="299.322" y="386.294" type="curve"/>
      <point x="349.062" y="425.13"/>
      <point x="423.978" y="463.869"/>
      <point x="423.978" y="525.715" type="curve" smooth="yes"/>
      <point x="423.978" y="575.748"/>
      <point x="403.883" y="619"/>
      <point x="347.875" y="619" type="curve" smooth="yes"/>
      <point x="261.397" y="619"/>
      <point x="229.302" y="553.228"/>
    </contour>
    <contour>
      <point x="487.329" y="536.414" type="curve" smooth="yes"/>
      <point x="487.329" y="452.528"/>
      <point x="390.191" y="403.093"/>
      <point x="336.153" y="365.262" type="curve"/>
      <point x="388.82" y="316.53"/>
      <point x="434.286" y="266.018"/>
      <point x="434.286" y="192.352" type="curve" smooth="yes"/>
      <point x="434.286" y="87.8115"/>
      <point x="329.92" y="-8"/>
      <point x="198.119" y="-8" type="curve" smooth="yes"/>
      <point x="118.827" y="-8"/>
      <point x="42" y="39.1768"/>
      <point x="42" y="119.468" type="curve" smooth="yes"/>
      <point x="42" y="224.105"/>
      <point x="131.783" y="278.45"/>
      <point x="225.991" y="341.201" type="curve"/>
      <point x="188.183" y="373.402"/>
      <point x="152.442" y="406.172"/>
      <point x="152.442" y="467.69" type="curve" smooth="yes"/>
      <point x="152.442" y="551.8"/>
      <point x="209.026" y="643"/>
      <point x="361.241" y="643" type="curve" smooth="yes"/>
      <point x="430.1" y="643"/>
      <point x="487.329" y="598.495"/>
    </contour>
  </outline>
</glyph>
<glyph name="nine" format="1">
  <advance width="527"/>
  <unicode hex="0039"/>
  <outline>
    <contour>
      <point x="42" y="1.43457" type="curve" smooth="yes"/>
      <point x="42" y="11.8398"/>
      <point x="47.0352" y="20.6709"/>
      <point x="58.6182" y="23.9062" type="curve" smooth="yes"/>
      <point x="240.292" y="81.3164"/>
      <point x="407.191" y="253.005"/>
      <point x="407.191" y="484.338" type="curve" smooth="yes"/>
      <point x="407.191" y="556.924"/>
      <point x="381.495" y="612"/>
      <point x="310.106" y="612" type="curve" smooth="yes"/>
      <point x="235.166" y="612"/>
      <point x="142.575" y="536.481"/>
      <point x="142.575" y="401.521" type="curve" smooth="yes"/>
      <point x="142.575" y="330.512"/>
      <point x="177.947" y="304"/>
      <point x="216.523" y="304" type="curve" smooth="yes"/>
      <point x="260.733" y="304"/>
      <point x="302.583" y="322.542"/>
      <point x="325.146" y="342.557" type="curve" smooth="yes"/>
      <point x="329.875" y="346.75"/>
      <point x="333.55" y="347.76"/>
      <point x="337.988" y="347.76" type="curve" smooth="yes"/>
      <point x="343.106" y="347.76"/>
      <point x="348.602" y="343.072"/>
      <point x="348.602" y="337.352" type="curve" smooth="yes"/>
      <point x="348.602" y="331.023"/>
      <point x="345.087" y="325.376"/>
      <point x="342.552" y="322.304" type="curve" smooth="yes"/>
      <point x="342.395" y="322.118" type="line"/>
      <point x="342.223" y="321.943" type="line" smooth="yes"/>
      <point x="314.479" y="293.821"/>
      <point x="277.292" y="252.96"/>
      <point x="197.672" y="252.96" type="curve" smooth="yes"/>
      <point x="142.491" y="252.96"/>
      <point x="70.7148" y="283.846"/>
      <point x="70.7148" y="381.729" type="curve" smooth="yes"/>
      <point x="70.7148" y="530.301"/>
      <point x="196.013" y="641"/>
      <point x="316.561" y="641" type="curve" smooth="yes"/>
      <point x="419.759" y="641"/>
      <point x="481.011" y="585.192"/>
      <point x="481.011" y="475.202" type="curve" smooth="yes"/>
      <point x="481.011" y="186.737"/>
      <point x="237.721" y="31.1865"/>
      <point x="52.4541" y="-14.7734" type="curve" smooth="yes"/>
      <point x="46.21" y="-16.4023" type="line"/>
      <point x="44.0801" y="-10.3105" type="line" smooth="yes"/>
      <point x="44.0479" y="-10.2217"/>
      <point x="42" y="-5.00586"/>
    </contour>
  </outline>
</glyph>
<glyph name="less" format="1">
  <advance width="513"/>
  <unicode hex="003C"/>
  <outline>
    <contour>
      <point x="164.085" y="313.146" type="line"/>
      <point x="381.823" y="154.969" type="line"/>
      <point x="363.561" y="72.1796" type="line"/>
      <point x="41.294" y="300.885" type="line"/>
      <point x="45.7391" y="324.592" type="line"/>
      <point x="474.344" y="553.459" type="line"/>
      <point x="455.099" y="471.348" type="line"/>
    </contour>
  </outline>
</glyph>
<glyph name="equal" format="1">
  <advance width="403"/>
  <unicode hex="003D"/>
  <outline>
    <contour>
      <point x="83.6133" y="324.901" type="line" smooth="yes"/>
      <point x="75.3135" y="328.22"/>
      <point x="74.291" y="337.495"/>
      <point x="74.291" y="344.105" type="curve" smooth="yes"/>
      <point x="74.291" y="356.728"/>
      <point x="79.6934" y="384.6"/>
      <point x="96.7129" y="384.6" type="curve" smooth="yes"/>
      <point x="343.463" y="384.6" type="line" smooth="yes"/>
      <point x="353.995" y="384.6"/>
      <point x="353.232" y="372.657"/>
      <point x="353.232" y="370.229" type="curve" smooth="yes"/>
      <point x="353.232" y="362.134"/>
      <point x="351.467" y="324.4"/>
      <point x="332.963" y="324.4" type="curve" smooth="yes"/>
      <point x="84.8652" y="324.4" type="line"/>
    </contour>
    <contour>
      <point x="59.4629" y="211.901" type="line" smooth="yes"/>
      <point x="51.1631" y="215.22"/>
      <point x="50.1406" y="224.495"/>
      <point x="50.1406" y="231.104" type="curve" smooth="yes"/>
      <point x="50.1406" y="243.728"/>
      <point x="55.543" y="271.6"/>
      <point x="72.5625" y="271.6" type="curve" smooth="yes"/>
      <point x="319.312" y="271.6" type="line" smooth="yes"/>
      <point x="329.844" y="271.6"/>
      <point x="329.083" y="259.658"/>
      <point x="329.083" y="257.229" type="curve" smooth="yes"/>
      <point x="329.083" y="249.135"/>
      <point x="327.316" y="211.4"/>
      <point x="308.812" y="211.4" type="curve" smooth="yes"/>
      <point x="60.7148" y="211.4" type="line"/>
    </contour>
  </outline>
</glyph>
<glyph name="question" format="1">
  <advance width="578"/>
  <unicode hex="003F"/>
  <outline>
    <contour>
      <point x="195.915" y="332.848" type="curve"/>
      <point x="195.932" y="333.521" type="line"/>
      <point x="196.076" y="334.179" type="line" smooth="yes"/>
      <point x="208.6" y="391.099"/>
      <point x="271.344" y="441.69"/>
      <point x="312.838" y="475.089" type="curve"/>
      <point x="388.245" y="535.196"/>
      <point x="433.215" y="554.013"/>
      <point x="433.215" y="633.542" type="curve" smooth="yes"/>
      <point x="433.215" y="687.137"/>
      <point x="393.057" y="743.575"/>
      <point x="338.214" y="743.575" type="curve" smooth="yes"/>
      <point x="282.461" y="743.575"/>
      <point x="242.771" y="685.045"/>
      <point x="233.074" y="663.713" type="curve"/>
      <point x="220.612" y="634.257"/>
      <point x="192.612" y="616.575"/>
      <point x="172.313" y="616.575" type="curve" smooth="yes"/>
      <point x="151.526" y="616.575"/>
      <point x="137.209" y="634.98"/>
      <point x="137.209" y="656.311" type="curve" smooth="yes"/>
      <point x="137.209" y="728.309"/>
      <point x="263.417" y="776.375"/>
      <point x="337.764" y="776.375" type="curve" smooth="yes"/>
      <point x="414.241" y="776.375"/>
      <point x="518.136" y="725.972"/>
      <point x="518.136" y="626.959" type="curve" smooth="yes"/>
      <point x="518.136" y="516.525"/>
      <point x="431.575" y="491.084"/>
      <point x="365.478" y="444.49" type="curve" smooth="yes"/>
      <point x="323.26" y="414.938"/>
      <point x="283.575" y="386.834"/>
      <point x="268.696" y="345.694" type="curve" smooth="yes"/>
      <point x="245.47" y="281.478"/>
      <point x="234.697" y="204.399"/>
      <point x="232.641" y="196.163" type="curve"/>
      <point x="182.062" y="200.167" type="line"/>
      <point x="186.885" y="244.809"/>
      <point x="195.915" y="332.848"/>
    </contour>
    <contour>
      <point x="197.313" y="99" type="curve" smooth="yes"/>
      <point x="223.766" y="99"/>
      <point x="241.573" y="78.3357"/>
      <point x="241.573" y="52.5623" type="curve" smooth="yes"/>
      <point x="241.573" y="13.0326"/>
      <point x="205.517" y="-17"/>
      <point x="173.313" y="-17" type="curve" smooth="yes"/>
      <point x="146.213" y="-17"/>
      <point x="129" y="3.47525"/>
      <point x="129" y="28.9925" type="curve" smooth="yes"/>
      <point x="129" y="68.6211"/>
      <point x="163.865" y="99"/>
    </contour>
  </outline>
</glyph>
<glyph name="A" format="1">
  <advance width="685"/>
  <unicode hex="0041"/>
  <outline>
    <contour>
      <point x="515.62" y="735.977" type="line"/>
      <point x="618.335" y="43.915" type="line" smooth="yes"/>
      <point x="620.261" y="34.4707"/>
      <point x="622.198" y="27.9775"/>
      <point x="627.799" y="23.8398" type="curve" smooth="yes"/>
      <point x="631.877" y="20.8262"/>
      <point x="643.007" y="20"/>
      <point x="649.435" y="20" type="curve" smooth="yes"/>
      <point x="658.4" y="20" type="line"/>
      <point x="650.9" y="0" type="line"/>
      <point x="459.469" y="0" type="line"/>
      <point x="466.969" y="20" type="line"/>
      <point x="472.435" y="20" type="line" smooth="yes"/>
      <point x="479.663" y="20"/>
      <point x="487.946" y="20.9707"/>
      <point x="495.273" y="21.8623" type="curve" smooth="yes"/>
      <point x="508.891" y="24.835"/>
      <point x="515.201" y="33.1748"/>
      <point x="519.567" y="48.7461" type="curve"/>
      <point x="520.487" y="54.1621"/>
      <point x="520.849" y="62.21"/>
      <point x="520.849" y="66.5059" type="curve" smooth="yes"/>
      <point x="520.849" y="68.1943"/>
      <point x="520.733" y="70.1504"/>
      <point x="520.498" y="71.9834" type="curve" smooth="yes"/>
      <point x="485.56" y="301.724" type="line"/>
      <point x="484.979" y="304.013"/>
      <point x="484.782" y="304.599"/>
      <point x="484.651" y="305" type="curve"/>
      <point x="270.282" y="305" type="line" smooth="yes"/>
      <point x="268.386" y="305"/>
      <point x="268.371" y="304.722"/>
      <point x="264.816" y="300.156" type="curve"/>
      <point x="118.363" y="76.1045" type="line"/>
      <point x="107.752" y="60.0078"/>
      <point x="102.598" y="53.21"/>
      <point x="102.598" y="41.8047" type="curve" smooth="yes"/>
      <point x="102.598" y="35.1133"/>
      <point x="107.047" y="28.0879"/>
      <point x="116.786" y="22.8555" type="curve" smooth="yes"/>
      <point x="121.259" y="20.4531"/>
      <point x="127.413" y="20"/>
      <point x="134.435" y="20" type="curve" smooth="yes"/>
      <point x="141.75" y="20" type="line"/>
      <point x="135.9" y="0" type="line"/>
      <point x="-12" y="0" type="line"/>
      <point x="-7.375" y="20" type="line"/>
      <point x="-1.56543" y="20" type="line" smooth="yes"/>
      <point x="4.45898" y="20"/>
      <point x="13.8369" y="20.377"/>
      <point x="20.0635" y="22.8457" type="curve" smooth="yes"/>
      <point x="35.4766" y="28.957"/>
      <point x="46.4863" y="48.3252"/>
      <point x="57.5088" y="65.0254" type="curve"/>
      <point x="472.139" y="709.146" type="line"/>
      <point x="473.167" y="709.921" type="line" smooth="yes"/>
      <point x="487.96" y="721.076"/>
      <point x="493.707" y="718.951"/>
      <point x="506.109" y="728.504" type="curve" smooth="yes"/>
    </contour>
    <contour>
      <point x="444.767" y="581.947" type="line"/>
      <point x="295.787" y="348" type="line"/>
      <point x="477.435" y="348" type="line" smooth="yes"/>
      <point x="477.731" y="348"/>
      <point x="478" y="348.032"/>
      <point x="478.179" y="348.049" type="curve"/>
      <point x="477.883" y="350.365"/>
      <point x="477.508" y="352.988"/>
      <point x="477.508" y="352.988" type="curve"/>
    </contour>
  </outline>
</glyph>
<glyph name="B" format="1">
  <advance width="616"/>
  <unicode hex="0042"/>
  <outline>
    <contour>
      <point x="212.003" y="359.34" type="curve"/>
      <point x="135.172" y="55.2188" type="line" smooth="yes"/>
      <point x="134.654" y="52.5479"/>
      <point x="131.375" y="38.749"/>
      <point x="131.375" y="36.8389" type="curve" smooth="yes"/>
      <point x="131.375" y="29.8115"/>
      <point x="135.381" y="29"/>
      <point x="141.672" y="29" type="curve" smooth="yes"/>
      <point x="157.653" y="29"/>
      <point x="173.311" y="28"/>
      <point x="188.643" y="28" type="curve" smooth="yes"/>
      <point x="356.526" y="28"/>
      <point x="431.461" y="123.081"/>
      <point x="431.461" y="243.94" type="curve" smooth="yes"/>
      <point x="431.461" y="316.993"/>
      <point x="343.469" y="361"/>
      <point x="259.533" y="361" type="curve" smooth="yes"/>
      <point x="243.231" y="361"/>
      <point x="222.22" y="359.849"/>
    </contour>
    <contour>
      <point x="556.678" y="585.227" type="curve" smooth="yes"/>
      <point x="556.678" y="483.218"/>
      <point x="482.583" y="418.802"/>
      <point x="395.152" y="390.651" type="curve"/>
      <point x="459.882" y="375.898"/>
      <point x="522.793" y="323.447"/>
      <point x="522.793" y="235.921" type="curve" smooth="yes"/>
      <point x="522.793" y="68.1953"/>
      <point x="379.672" y="-2"/>
      <point x="260.577" y="-2" type="curve" smooth="yes"/>
      <point x="192.525" y="-2"/>
      <point x="161.282" y="0"/>
      <point x="65.9658" y="0" type="curve" smooth="yes"/>
      <point x="-15" y="0" type="line"/>
      <point x="-9.5" y="20" type="line"/>
      <point x="-4.03418" y="20" type="line" smooth="yes"/>
      <point x="4.08594" y="20"/>
      <point x="11.0723" y="19.9922"/>
      <point x="18.3945" y="21.7852" type="curve"/>
      <point x="34.793" y="25.167"/>
      <point x="44.6963" y="46.6172"/>
      <point x="47.1562" y="57.0566" type="curve"/>
      <point x="77.1729" y="172.71"/>
      <point x="104.146" y="288.184"/>
      <point x="131.284" y="403.742" type="curve" smooth="yes"/>
      <point x="151.56" y="490.078"/>
      <point x="190.85" y="663.242"/>
      <point x="190.85" y="663.242" type="curve"/>
      <point x="191.648" y="666.801"/>
      <point x="195" y="683.499"/>
      <point x="195" y="687" type="curve" smooth="yes"/>
      <point x="195" y="699.967"/>
      <point x="190.611" y="706.006"/>
      <point x="183.133" y="708.346" type="curve"/>
      <point x="177.437" y="709.873"/>
      <point x="169.637" y="710"/>
      <point x="161.329" y="710" type="curve" smooth="yes"/>
      <point x="151.971" y="710" type="line"/>
      <point x="157.799" y="730" type="line"/>
      <point x="188.555" y="730" type="line" smooth="yes"/>
      <point x="250.834" y="730"/>
      <point x="303.018" y="734"/>
      <point x="364.957" y="734" type="curve" smooth="yes"/>
      <point x="485.002" y="734"/>
      <point x="556.678" y="673.322"/>
    </contour>
    <contour>
      <point x="302.561" y="698.055" type="curve"/>
      <point x="293.288" y="697.031"/>
      <point x="290.853" y="695"/>
      <point x="288.417" y="686.647" type="curve" smooth="yes"/>
      <point x="247.873" y="517.655" type="line"/>
      <point x="219.638" y="402" type="line"/>
      <point x="254.314" y="402" type="line" smooth="yes"/>
      <point x="377.536" y="402"/>
      <point x="473.036" y="472.696"/>
      <point x="473.036" y="591.899" type="curve" smooth="yes"/>
      <point x="473.036" y="653.011"/>
      <point x="436.467" y="700"/>
      <point x="346.168" y="700" type="curve" smooth="yes"/>
      <point x="330.986" y="700"/>
      <point x="303.738" y="698.098"/>
    </contour>
  </outline>
</glyph>
<glyph name="C" format="1">
  <advance width="736"/>
  <unicode hex="0043"/>
  <outline>
    <contour>
      <point x="511.452" y="742" type="curve" smooth="yes"/>
      <point x="643.432" y="742"/>
      <point x="688.955" y="657"/>
      <point x="710.392" y="657" type="curve" smooth="yes"/>
      <point x="727.969" y="657"/>
      <point x="732.81" y="684"/>
      <point x="749.392" y="684" type="curve" smooth="yes"/>
      <point x="755.211" y="684"/>
      <point x="760.227" y="679.325"/>
      <point x="760.227" y="670.501" type="curve" smooth="yes"/>
      <point x="760.227" y="668.637"/>
      <point x="760.078" y="665.925"/>
      <point x="759.632" y="663.589" type="curve"/>
      <point x="716.312" y="462.139" type="line"/>
      <point x="714.765" y="455.265"/>
      <point x="708.135" y="450.732"/>
      <point x="700.786" y="450.732" type="curve" smooth="yes"/>
      <point x="695.865" y="450.732"/>
      <point x="688.392" y="456.616"/>
      <point x="688.392" y="466" type="curve" smooth="yes"/>
      <point x="688.392" y="565.635"/>
      <point x="647.836" y="701"/>
      <point x="488.783" y="701" type="curve" smooth="yes"/>
      <point x="269.003" y="701"/>
      <point x="153.698" y="442.79"/>
      <point x="153.698" y="237.338" type="curve" smooth="yes"/>
      <point x="153.698" y="57.2354"/>
      <point x="275.991" y="36"/>
      <point x="332.164" y="36" type="curve" smooth="yes"/>
      <point x="500.13" y="36"/>
      <point x="618.373" y="181.746"/>
      <point x="631" y="200" type="curve"/>
      <point x="662.461" y="188.655" type="line"/>
      <point x="658.635" y="181.823"/>
      <point x="554.586" y="-10"/>
      <point x="324.951" y="-10" type="curve" smooth="yes"/>
      <point x="220.068" y="-10"/>
      <point x="52.3896" y="37.2637"/>
      <point x="52.3896" y="241.982" type="curve" smooth="yes"/>
      <point x="52.3896" y="504.517"/>
      <point x="235.938" y="742"/>
    </contour>
  </outline>
</glyph>
<glyph name="D" format="1">
  <advance width="817"/>
  <unicode hex="0044"/>
  <outline>
    <contour>
      <point x="219.514" y="710" type="curve" smooth="yes"/>
      <point x="210.291" y="710" type="line"/>
      <point x="216.006" y="730" type="line"/>
      <point x="356.358" y="730" type="line" smooth="yes"/>
      <point x="406.667" y="730"/>
      <point x="457.07" y="731"/>
      <point x="506.547" y="731" type="curve" smooth="yes"/>
      <point x="663.76" y="731"/>
      <point x="784.99" y="641.958"/>
      <point x="784.99" y="467.927" type="curve" smooth="yes"/>
      <point x="784.99" y="170.607"/>
      <point x="559.869" y="-3"/>
      <point x="322.412" y="-3" type="curve" smooth="yes"/>
      <point x="314.182" y="-3" type="line" smooth="yes"/>
      <point x="302.893" y="-3"/>
      <point x="281.303" y="-2.05371"/>
      <point x="279.992" y="-1.99609" type="curve"/>
      <point x="276.639" y="-1.9248"/>
      <point x="186.074" y="0"/>
      <point x="170.166" y="0" type="curve" smooth="yes"/>
      <point x="43" y="0" type="line"/>
      <point x="47.5" y="20" type="line"/>
      <point x="52.9658" y="20" type="line" smooth="yes"/>
      <point x="61.0859" y="20"/>
      <point x="68.0723" y="20.9922"/>
      <point x="75.3945" y="22.7852" type="curve"/>
      <point x="91.793" y="26.167"/>
      <point x="98.6963" y="36.6172"/>
      <point x="101.156" y="47.0566" type="curve"/>
      <point x="130.181" y="162.741"/>
      <point x="157" y="268"/>
      <point x="188.897" y="402.797" type="curve" smooth="yes"/>
      <point x="214" y="509"/>
      <point x="230.395" y="584.76"/>
      <point x="251" y="676" type="curve"/>
      <point x="251.467" y="677.927"/>
      <point x="252.67" y="685.614"/>
      <point x="252.67" y="687.312" type="curve" smooth="yes"/>
      <point x="252.67" y="697.582"/>
      <point x="249.868" y="705.675"/>
      <point x="240.496" y="708.224" type="curve" smooth="yes"/>
      <point x="234.385" y="709.886"/>
      <point x="228.015" y="710"/>
    </contour>
    <contour>
      <point x="348.126" y="685.872" type="curve"/>
      <point x="345.056" y="670.779" type="line"/>
      <point x="295.593" y="464.931"/>
      <point x="196.873" y="45.3086"/>
      <point x="196.873" y="45.3086" type="curve"/>
      <point x="196.16" y="41.6934"/>
      <point x="195.752" y="38.4258"/>
      <point x="195.752" y="36.5869" type="curve" smooth="yes"/>
      <point x="195.752" y="34.8672"/>
      <point x="196.071" y="34.1289"/>
      <point x="196.071" y="34.127" type="curve"/>
      <point x="196.208" y="34.0371"/>
      <point x="198.409" y="33.3086"/>
      <point x="201.356" y="33.0029" type="curve"/>
      <point x="282.361" y="34" type="line"/>
      <point x="300.924" y="34" type="line" smooth="yes"/>
      <point x="554.946" y="34"/>
      <point x="688.703" y="250.384"/>
      <point x="688.703" y="480.383" type="curve" smooth="yes"/>
      <point x="688.703" y="636.278"/>
      <point x="591.014" y="692"/>
      <point x="462.256" y="692" type="curve" smooth="yes"/>
      <point x="355.444" y="692" type="line" smooth="yes"/>
      <point x="352.258" y="692"/>
      <point x="348.637" y="688.787"/>
    </contour>
  </outline>
</glyph>
<glyph name="E" format="1">
  <advance width="618"/>
  <unicode hex="0045"/>
  <outline>
    <contour>
      <point x="452.336" y="353.229" type="curve" smooth="yes"/>
      <point x="448.848" y="364.404"/>
      <point x="442.875" y="371.766"/>
      <point x="434.434" y="373.091" type="curve" smooth="yes"/>
      <point x="407.075" y="377.387"/>
      <point x="379.26" y="378"/>
      <point x="347.307" y="378" type="curve" smooth="yes"/>
      <point x="317.68" y="378"/>
      <point x="273.266" y="375.24"/>
      <point x="247.482" y="372.69" type="curve"/>
      <point x="172.882" y="49.9424" type="line"/>
      <point x="172.43" y="48.0908"/>
      <point x="172.21" y="46.2734"/>
      <point x="172.21" y="44.4062" type="curve" smooth="yes"/>
      <point x="172.21" y="35.8057"/>
      <point x="182.34" y="29.0049"/>
      <point x="192.375" y="27.8916" type="curve" smooth="yes"/>
      <point x="210.075" y="25.9277"/>
      <point x="212.833" y="25"/>
      <point x="230.194" y="25" type="curve" smooth="yes"/>
      <point x="290.364" y="25"/>
      <point x="344.727" y="26.0713"/>
      <point x="387.173" y="35.8008" type="curve"/>
      <point x="447.217" y="50.251"/>
      <point x="480.353" y="90.0244"/>
      <point x="506.738" y="148.783" type="curve" smooth="yes"/>
      <point x="508.443" y="152.719" type="line"/>
      <point x="529.253" y="154.645" type="line"/>
      <point x="474.354" y="0" type="line"/>
      <point x="17.1953" y="0" type="line"/>
      <point x="22.6953" y="19.4355" type="line"/>
      <point x="28.1611" y="19.4355" type="line" smooth="yes"/>
      <point x="38.166" y="19.4355"/>
      <point x="39.6455" y="19.4707"/>
      <point x="48.7529" y="21.2578" type="curve"/>
      <point x="64.8379" y="24.5801"/>
      <point x="73.9062" y="36.1436"/>
      <point x="76.3398" y="46.4902" type="curve" smooth="yes"/>
      <point x="76.415" y="46.8086" type="line"/>
      <point x="76.5195" y="47.1182" type="line" smooth="yes"/>
      <point x="82.1357" y="63.6494"/>
      <point x="129.261" y="250.382"/>
      <point x="165.66" y="411.663" type="curve" smooth="yes"/>
      <point x="193.757" y="536.155"/>
      <point x="219.858" y="647.321"/>
      <point x="224.891" y="672.079" type="curve" smooth="yes"/>
      <point x="228.657" y="690.851" type="line" smooth="yes"/>
      <point x="228.657" y="698.133"/>
      <point x="225.16" y="706.232"/>
      <point x="213.676" y="708.785" type="curve" smooth="yes"/>
      <point x="213.508" y="708.822" type="line"/>
      <point x="213.343" y="708.866" type="line" smooth="yes"/>
      <point x="207.333" y="710.488"/>
      <point x="203.847" y="710.564"/>
      <point x="195.487" y="710.564" type="curve" smooth="yes"/>
      <point x="185.174" y="710.564" type="line"/>
      <point x="189.965" y="730" type="line"/>
      <point x="615.062" y="730" type="line"/>
      <point x="596.307" y="575.543" type="line"/>
      <point x="578.941" y="577.498" type="line"/>
      <point x="579.165" y="584.232" type="line" smooth="yes"/>
      <point x="579.248" y="586.752"/>
      <point x="579.291" y="589.207"/>
      <point x="579.291" y="591.598" type="curve" smooth="yes"/>
      <point x="579.291" y="643.845"/>
      <point x="560.492" y="677.014"/>
      <point x="513.762" y="694.424" type="curve"/>
      <point x="486.771" y="703.819"/>
      <point x="447.069" y="705"/>
      <point x="401.44" y="705" type="curve" smooth="yes"/>
      <point x="382.018" y="705"/>
      <point x="364.103" y="704.061"/>
      <point x="344.448" y="702.117" type="curve"/>
      <point x="330.682" y="700.502"/>
      <point x="323.752" y="691.434"/>
      <point x="321.476" y="682.879" type="curve"/>
      <point x="258.979" y="415.262" type="line"/>
      <point x="287.564" y="413.264"/>
      <point x="326.654" y="411"/>
      <point x="354.578" y="411" type="curve" smooth="yes"/>
      <point x="390.163" y="411"/>
      <point x="416.928" y="411.374"/>
      <point x="446.782" y="416.909" type="curve" smooth="yes"/>
      <point x="462.054" y="419.741"/>
      <point x="470.512" y="426.15"/>
      <point x="476.693" y="438.901" type="curve" smooth="yes"/>
      <point x="481.446" y="449.195"/>
      <point x="484" y="459"/>
      <point x="486.61" y="470" type="curve"/>
      <point x="502.951" y="470" type="line"/>
      <point x="464.637" y="318" type="line"/>
      <point x="451.291" y="318" type="line"/>
      <point x="452.896" y="325.703"/>
      <point x="453.909" y="333.627"/>
      <point x="453.909" y="340.594" type="curve" smooth="yes"/>
      <point x="453.909" y="345.385"/>
      <point x="453.43" y="349.724"/>
    </contour>
  </outline>
</glyph>
<glyph name="F" format="1">
  <advance width="608"/>
  <unicode hex="0046"/>
  <outline>
    <contour>
      <point x="238.319" y="354.671" type="curve"/>
      <point x="216.179" y="258.196"/>
      <point x="194.65" y="154.11"/>
      <point x="170.165" y="56.9795" type="curve" smooth="yes"/>
      <point x="169.658" y="54.9694"/>
      <point x="168.472" y="48.2744"/>
      <point x="168.472" y="46.6201" type="curve" smooth="yes"/>
      <point x="168.472" y="39.8525"/>
      <point x="168.893" y="27.532"/>
      <point x="178.243" y="23.4922" type="curve" smooth="yes"/>
      <point x="185.185" y="20.4932"/>
      <point x="191.08" y="20"/>
      <point x="201.788" y="20" type="curve" smooth="yes"/>
      <point x="210.536" y="20" type="line"/>
      <point x="205.702" y="0" type="line"/>
      <point x="13" y="0" type="line"/>
      <point x="17.5" y="20" type="line"/>
      <point x="22.9658" y="20" type="line" smooth="yes"/>
      <point x="31.0859" y="20"/>
      <point x="40.0723" y="20.9922"/>
      <point x="47.3945" y="22.7871" type="curve"/>
      <point x="64.0479" y="27.2246"/>
      <point x="72.752" y="45.8867"/>
      <point x="75.29" y="56.5762" type="curve" smooth="yes"/>
      <point x="81.0029" y="74.3105"/>
      <point x="121.196" y="241.565"/>
      <point x="158.082" y="397.241" type="curve" smooth="yes"/>
      <point x="189.253" y="528.799"/>
      <point x="220.34" y="671.555"/>
      <point x="220.367" y="671.676" type="curve"/>
      <point x="220.748" y="673.237"/>
      <point x="225.084" y="692.143"/>
      <point x="225.084" y="692.889" type="curve" smooth="yes"/>
      <point x="225.084" y="700.162"/>
      <point x="221.554" y="706.268"/>
      <point x="210.169" y="708.8" type="curve"/>
      <point x="201.952" y="710.526"/>
      <point x="201.118" y="710.588"/>
      <point x="190.748" y="710.588" type="curve" smooth="yes"/>
      <point x="181.449" y="710.588" type="line"/>
      <point x="185.228" y="730" type="line"/>
      <point x="633.811" y="730" type="line"/>
      <point x="616.162" y="575.571" type="line"/>
      <point x="597.743" y="577.466" type="line"/>
      <point x="597.97" y="584.234" type="line" smooth="yes"/>
      <point x="598.065" y="587.105"/>
      <point x="598.114" y="589.907"/>
      <point x="598.114" y="592.636" type="curve" smooth="yes"/>
      <point x="598.114" y="645.01"/>
      <point x="581.532" y="680.828"/>
      <point x="534.075" y="694.26" type="curve"/>
      <point x="498.479" y="703.896"/>
      <point x="448.417" y="705"/>
      <point x="391.438" y="705" type="curve" smooth="yes"/>
      <point x="371.998" y="705"/>
      <point x="362.16" y="704.064"/>
      <point x="342.415" y="702.106" type="curve" smooth="yes"/>
      <point x="326.538" y="700.532"/>
      <point x="316.102" y="678.668"/>
      <point x="313.498" y="668.037" type="curve"/>
      <point x="249.98" y="396.326" type="line"/>
      <point x="285.663" y="394.097"/>
      <point x="330.805" y="392.926"/>
      <point x="367.927" y="392.926" type="curve" smooth="yes"/>
      <point x="413.962" y="392.926"/>
      <point x="443.471" y="394.199"/>
      <point x="459.395" y="418.902" type="curve" smooth="yes"/>
      <point x="465.535" y="428.428"/>
      <point x="469" y="437"/>
      <point x="473.293" y="452" type="curve"/>
      <point x="489.937" y="452" type="line"/>
      <point x="451.338" y="300" type="line"/>
      <point x="438.029" y="300" type="line"/>
      <point x="438.969" y="310.353"/>
      <point x="440.076" y="322.378"/>
      <point x="440.076" y="337.229" type="curve" smooth="yes"/>
      <point x="440.076" y="349.242"/>
      <point x="430.775" y="352.608"/>
      <point x="421.216" y="354.089" type="curve" smooth="yes"/>
      <point x="394.213" y="358.27"/>
      <point x="366.092" y="360"/>
      <point x="334.21" y="360" type="curve" smooth="yes"/>
      <point x="304.472" y="360"/>
      <point x="264.637" y="357.284"/>
    </contour>
  </outline>
</glyph>
<glyph name="G" format="1">
  <advance width="760"/>
  <unicode hex="0047"/>
  <outline>
    <contour>
      <point x="708.811" y="289" type="line" smooth="yes"/>
      <point x="679.604" y="289"/>
      <point x="660.138" y="271.151"/>
      <point x="655.615" y="252.009" type="curve" smooth="yes"/>
      <point x="633.607" y="167.037" type="line"/>
      <point x="627.302" y="141.385"/>
      <point x="618.449" y="134.321"/>
      <point x="599.401" y="113.422" type="curve"/>
      <point x="548.632" y="58.2988"/>
      <point x="435.815" y="-10"/>
      <point x="303.39" y="-10" type="curve" smooth="yes"/>
      <point x="202.36" y="-10"/>
      <point x="28.0381" y="36.7383"/>
      <point x="28.0381" y="243.393" type="curve" smooth="yes"/>
      <point x="28.0381" y="505.32"/>
      <point x="214.057" y="742"/>
      <point x="488.857" y="742" type="curve" smooth="yes"/>
      <point x="620.834" y="742"/>
      <point x="666.374" y="657"/>
      <point x="687.811" y="657" type="curve" smooth="yes"/>
      <point x="706.369" y="657"/>
      <point x="707.353" y="684"/>
      <point x="727.811" y="684" type="curve" smooth="yes"/>
      <point x="736.384" y="684"/>
      <point x="741.481" y="676.648"/>
      <point x="741.481" y="669.294" type="curve" smooth="yes"/>
      <point x="741.481" y="668.157"/>
      <point x="741.422" y="667.371"/>
      <point x="741.201" y="665.998" type="curve"/>
      <point x="700" y="470" type="line" smooth="yes"/>
      <point x="698.543" y="462.968"/>
      <point x="694.292" y="453"/>
      <point x="684" y="453" type="curve" smooth="yes"/>
      <point x="677.397" y="453"/>
      <point x="667.811" y="459.885"/>
      <point x="667.811" y="468" type="curve" smooth="yes"/>
      <point x="667.811" y="567.635"/>
      <point x="629.255" y="701"/>
      <point x="470.188" y="701" type="curve" smooth="yes"/>
      <point x="251.604" y="701"/>
      <point x="131.694" y="445.552"/>
      <point x="131.694" y="241.036" type="curve" smooth="yes"/>
      <point x="131.694" y="57.5342"/>
      <point x="259.098" y="36"/>
      <point x="315.754" y="36" type="curve" smooth="yes"/>
      <point x="400.436" y="36"/>
      <point x="529.535" y="107.316"/>
      <point x="545.698" y="172.712" type="curve"/>
      <point x="564.244" y="252.226" type="line"/>
      <point x="564.717" y="254.159"/>
      <point x="565.918" y="263.815"/>
      <point x="565.918" y="265.502" type="curve" smooth="yes"/>
      <point x="565.918" y="281.165"/>
      <point x="550.742" y="289"/>
      <point x="532.041" y="289" type="curve" smooth="yes"/>
      <point x="523.351" y="289" type="line"/>
      <point x="526.146" y="309" type="line"/>
      <point x="718.776" y="309" type="line"/>
      <point x="714.276" y="289" type="line"/>
    </contour>
  </outline>
</glyph>
<glyph name="H" format="1">
  <advance width="788"/>
  <unicode hex="0048"/>
  <outline>
    <contour>
      <point x="162.595" y="45.8721" type="curve" smooth="yes"/>
      <point x="162.595" y="35.9746"/>
      <point x="164.205" y="27.4393"/>
      <point x="174.776" y="22.7275" type="curve" smooth="yes"/>
      <point x="180.812" y="20.0371"/>
      <point x="187.852" y="20"/>
      <point x="195.966" y="20" type="curve" smooth="yes"/>
      <point x="205.321" y="20" type="line"/>
      <point x="200.431" y="-0" type="line"/>
      <point x="8" y="0" type="line"/>
      <point x="12.5" y="20" type="line"/>
      <point x="17.9658" y="20" type="line" smooth="yes"/>
      <point x="26.0859" y="20"/>
      <point x="33.0723" y="20.9922"/>
      <point x="40.3945" y="22.7852" type="curve"/>
      <point x="56.792" y="26.167"/>
      <point x="67.6973" y="46.6221"/>
      <point x="70.1543" y="57.0508" type="curve"/>
      <point x="99.1816" y="173.725"/>
      <point x="128.148" y="289.175"/>
      <point x="155.141" y="405.707" type="curve" smooth="yes"/>
      <point x="176.15" y="495.865"/>
      <point x="197.105" y="583.762"/>
      <point x="216.127" y="673.977" type="curve"/>
      <point x="216.595" y="675.962"/>
      <point x="218.784" y="686.603"/>
      <point x="218.784" y="688.316" type="curve" smooth="yes"/>
      <point x="218.784" y="695.697"/>
      <point x="216.201" y="700.779"/>
      <point x="207.245" y="705.251" type="curve" smooth="yes"/>
      <point x="201.73" y="708.005"/>
      <point x="193.851" y="710"/>
      <point x="184.966" y="710" type="curve" smooth="yes"/>
      <point x="176" y="710" type="line"/>
      <point x="180.5" y="730" type="line"/>
      <point x="373.077" y="730" type="line"/>
      <point x="368.344" y="711" type="line"/>
      <point x="362.966" y="711" type="line" smooth="yes"/>
      <point x="355.472" y="711"/>
      <point x="347.733" y="710.302"/>
      <point x="338.536" y="708.247" type="curve" smooth="yes"/>
      <point x="324" y="705"/>
      <point x="314.285" y="688.477"/>
      <point x="310.798" y="674.156" type="curve"/>
      <point x="297.756" y="619.367"/>
      <point x="283.81" y="561.075"/>
      <point x="270.771" y="506.298" type="curve"/>
      <point x="263.87" y="479.376"/>
      <point x="255.626" y="445.116"/>
      <point x="249.919" y="420.95" type="curve"/>
      <point x="299.643" y="420.905"/>
      <point x="365.396" y="419"/>
      <point x="426.725" y="419" type="curve" smooth="yes"/>
      <point x="489.819" y="419"/>
      <point x="570.68" y="419.998"/>
      <point x="623.403" y="421" type="curve"/>
      <point x="629.083" y="421"/>
      <point x="629.583" y="422.757"/>
      <point x="630.069" y="423.877" type="curve"/>
      <point x="691.131" y="677.1" type="line"/>
      <point x="691.557" y="679.04"/>
      <point x="692.784" y="686.029"/>
      <point x="692.784" y="687.751" type="curve" smooth="yes"/>
      <point x="692.784" y="695.195"/>
      <point x="690.828" y="699.579"/>
      <point x="683.362" y="705.231" type="curve" smooth="yes"/>
      <point x="678.137" y="709.188"/>
      <point x="670.245" y="710"/>
      <point x="660.966" y="710" type="curve" smooth="yes"/>
      <point x="651.608" y="710" type="line"/>
      <point x="655.5" y="730" type="line"/>
      <point x="847.931" y="730" type="line"/>
      <point x="844.431" y="710" type="line"/>
      <point x="838.966" y="710" type="line" smooth="yes"/>
      <point x="830.868" y="710"/>
      <point x="822.811" y="709.996"/>
      <point x="815.574" y="708.224" type="curve"/>
      <point x="799.61" y="704.749"/>
      <point x="788.957" y="685.787"/>
      <point x="785.724" y="674.701" type="curve"/>
      <point x="761.818" y="582.988"/>
      <point x="740.771" y="490.736"/>
      <point x="718.785" y="398.717" type="curve"/>
      <point x="691.789" y="283.149"/>
      <point x="665.801" y="172.615"/>
      <point x="639.794" y="57" type="curve"/>
      <point x="639.438" y="55.4873"/>
      <point x="638.287" y="49.1543"/>
      <point x="638.287" y="47.8252" type="curve" smooth="yes"/>
      <point x="638.287" y="40.8662"/>
      <point x="640.553" y="27.0459"/>
      <point x="648.776" y="23.7266" type="curve" smooth="yes"/>
      <point x="656.511" y="20.6045"/>
      <point x="662.852" y="20"/>
      <point x="670.966" y="20" type="curve" smooth="yes"/>
      <point x="679.931" y="20" type="line"/>
      <point x="675.431" y="-0" type="line"/>
      <point x="483" y="0" type="line"/>
      <point x="487.5" y="20" type="line"/>
      <point x="492.966" y="20" type="line" smooth="yes"/>
      <point x="501.062" y="20"/>
      <point x="510" y="21"/>
      <point x="516.357" y="22.7773" type="curve" smooth="yes"/>
      <point x="533.556" y="27.5859"/>
      <point x="542.809" y="46.1201"/>
      <point x="545.144" y="56.0352" type="curve" smooth="yes"/>
      <point x="620" y="375" type="line"/>
      <point x="619.737" y="375.359"/>
      <point x="618.67" y="376"/>
      <point x="617.882" y="376" type="curve"/>
      <point x="565.236" y="376.001"/>
      <point x="483.372" y="378"/>
      <point x="421.255" y="378" type="curve" smooth="yes"/>
      <point x="360.085" y="378"/>
      <point x="292.119" y="376.042"/>
      <point x="243.904" y="376.021" type="curve"/>
      <point x="242.722" y="375.491"/>
      <point x="241.075" y="373.076"/>
      <point x="240.68" y="372.096" type="curve"/>
      <point x="232.919" y="335.679"/>
      <point x="222.958" y="298.2"/>
      <point x="214.485" y="262.688" type="curve"/>
      <point x="196.806" y="192.198"/>
      <point x="182.727" y="134.318"/>
      <point x="165.827" y="64.1465" type="curve"/>
      <point x="164.559" y="58.8848"/>
      <point x="162.595" y="47.1074"/>
    </contour>
  </outline>
</glyph>
<glyph name="I" format="1">
  <advance width="337"/>
  <unicode hex="0049"/>
  <outline>
    <contour>
      <point x="146.122" y="42.3634" type="curve" smooth="yes"/>
      <point x="146.122" y="35.0702"/>
      <point x="148.833" y="27.6139"/>
      <point x="156.316" y="24.7266" type="curve" smooth="yes"/>
      <point x="162.025" y="22.5244"/>
      <point x="170.852" y="21"/>
      <point x="178.966" y="21" type="curve" smooth="yes"/>
      <point x="187.931" y="21" type="line"/>
      <point x="183.431" y="0" type="line"/>
      <point x="-9" y="0" type="line"/>
      <point x="-4.5" y="20" type="line"/>
      <point x="0.96582" y="20" type="line" smooth="yes"/>
      <point x="9.08594" y="20"/>
      <point x="16.0996" y="20.8232"/>
      <point x="24.3945" y="23.7852" type="curve" smooth="yes"/>
      <point x="39" y="29"/>
      <point x="49.5292" y="42.8543"/>
      <point x="53.1543" y="57.0498" type="curve" smooth="yes"/>
      <point x="103.431" y="253.928"/>
      <point x="156.577" y="476.961"/>
      <point x="198.136" y="672.015" type="curve" smooth="yes"/>
      <point x="198.543" y="673.926"/>
      <point x="199.785" y="680.626"/>
      <point x="199.785" y="682.315" type="curve" smooth="yes"/>
      <point x="199.785" y="693.444"/>
      <point x="199" y="699"/>
      <point x="189.042" y="705.305" type="curve" smooth="yes"/>
      <point x="183.966" y="708.519"/>
      <point x="177.013" y="710"/>
      <point x="168.966" y="710" type="curve" smooth="yes"/>
      <point x="159" y="710" type="line"/>
      <point x="163.5" y="730" type="line"/>
      <point x="355.931" y="730" type="line"/>
      <point x="351.431" y="710" type="line"/>
      <point x="345.966" y="710" type="line" smooth="yes"/>
      <point x="338.296" y="710"/>
      <point x="327.85" y="709.47"/>
      <point x="320.182" y="707.146" type="curve" smooth="yes"/>
      <point x="306.433" y="702.978"/>
      <point x="296.339" y="684.95"/>
      <point x="293.771" y="674.889" type="curve" smooth="yes"/>
      <point x="246.321" y="488.964"/>
      <point x="189.552" y="242.546"/>
      <point x="149" y="59" type="curve" smooth="yes"/>
      <point x="147.855" y="53.8183"/>
      <point x="146.122" y="48.0328"/>
    </contour>
  </outline>
</glyph>
<glyph name="J" format="1">
  <advance width="286"/>
  <unicode hex="004A"/>
  <outline>
    <contour>
      <point x="183.685" y="690.32" type="curve" smooth="yes"/>
      <point x="183.685" y="698.553"/>
      <point x="179.654" y="703.998"/>
      <point x="171.528" y="706.985" type="curve" smooth="yes"/>
      <point x="164.167" y="709.691"/>
      <point x="158.681" y="710"/>
      <point x="148.866" y="710" type="curve" smooth="yes"/>
      <point x="140.034" y="710" type="line"/>
      <point x="145.057" y="730" type="line"/>
      <point x="337.831" y="730" type="line"/>
      <point x="332.331" y="710" type="line"/>
      <point x="326.866" y="710" type="line" smooth="yes"/>
      <point x="318.813" y="710"/>
      <point x="309" y="709"/>
      <point x="301.475" y="707.215" type="curve" smooth="yes"/>
      <point x="285.591" y="703.447"/>
      <point x="277.987" y="684.642"/>
      <point x="275.675" y="674.778" type="curve"/>
      <point x="260.676" y="614.735"/>
      <point x="238.735" y="520.055"/>
      <point x="216.689" y="422.847" type="curve" smooth="yes"/>
      <point x="176.58" y="245.994"/>
      <point x="131.247" y="60.6416"/>
      <point x="125.89" y="37.9873" type="curve"/>
      <point x="90.7656" y="-99.2529"/>
      <point x="-16.2002" y="-175"/>
      <point x="-177.91" y="-179.996" type="curve" smooth="yes"/>
      <point x="-187" y="-180.288" type="line"/>
      <point x="-178.029" y="-141.413" type="line"/>
      <point x="-174.07" y="-140.273" type="line" smooth="yes"/>
      <point x="-41.9912" y="-103.341"/>
      <point x="3.03418" y="-66.1289"/>
      <point x="42.2803" y="84.9102" type="curve"/>
      <point x="49.7471" y="112.347"/>
      <point x="100.341" y="318.154"/>
      <point x="133.687" y="467.432" type="curve" smooth="yes"/>
      <point x="151.961" y="549.239"/>
      <point x="169.032" y="621.821"/>
      <point x="181.032" y="676.905" type="curve"/>
      <point x="181.484" y="678.832"/>
      <point x="183.685" y="688.556"/>
    </contour>
  </outline>
</glyph>
<glyph name="K" format="1">
  <advance width="619"/>
  <unicode hex="004B"/>
  <outline>
    <contour>
      <point x="435.902" y="50.1191" type="curve" smooth="yes"/>
      <point x="435.902" y="55.2207"/>
      <point x="434.208" y="64.1929"/>
      <point x="429.538" y="74.2207" type="curve" smooth="yes"/>
      <point x="385.562" y="168.658"/>
      <point x="335.455" y="273.345"/>
      <point x="288.063" y="366.708" type="curve"/>
      <point x="274.971" y="356.67"/>
      <point x="257.32" y="347.34"/>
      <point x="246" y="344" type="curve"/>
      <point x="179" y="64" type="line" smooth="yes"/>
      <point x="177.667" y="58.4305"/>
      <point x="178.098" y="49.4678"/>
      <point x="178.098" y="43.2031" type="curve" smooth="yes"/>
      <point x="178.098" y="35.3057"/>
      <point x="176.914" y="25.8794"/>
      <point x="185.228" y="22.8906" type="curve" smooth="yes"/>
      <point x="193.205" y="20.0224"/>
      <point x="201.472" y="20"/>
      <point x="207.966" y="20" type="curve" smooth="yes"/>
      <point x="216.63" y="20" type="line"/>
      <point x="212.431" y="0" type="line"/>
      <point x="20" y="0" type="line"/>
      <point x="24.5" y="20" type="line"/>
      <point x="29.9658" y="20" type="line" smooth="yes"/>
      <point x="36.1523" y="20"/>
      <point x="44.4307" y="20.9688"/>
      <point x="51.8457" y="21.875" type="curve"/>
      <point x="68.7803" y="25.7295"/>
      <point x="78.6895" y="45.79"/>
      <point x="82.1426" y="57.0049" type="curve"/>
      <point x="112.18" y="172.738"/>
      <point x="139.132" y="288.126"/>
      <point x="166.138" y="403.732" type="curve" smooth="yes"/>
      <point x="187.15" y="494.885"/>
      <point x="209.103" y="585.768"/>
      <point x="228.125" y="676.969" type="curve"/>
      <point x="228.597" y="678.97"/>
      <point x="229.784" y="685.599"/>
      <point x="229.784" y="687.316" type="curve" smooth="yes"/>
      <point x="229.784" y="693.103"/>
      <point x="228.289" y="699.874"/>
      <point x="218.042" y="705.305" type="curve" smooth="yes"/>
      <point x="212.526" y="708.228"/>
      <point x="203.967" y="710"/>
      <point x="196.966" y="710" type="curve" smooth="yes"/>
      <point x="188" y="710" type="line"/>
      <point x="192.5" y="730" type="line"/>
      <point x="385.4" y="730" type="line"/>
      <point x="380.775" y="710" type="line"/>
      <point x="374.966" y="710" type="line" smooth="yes"/>
      <point x="367.886" y="710"/>
      <point x="358.027" y="708.797"/>
      <point x="349.536" y="706.177" type="curve" smooth="yes"/>
      <point x="336" y="702"/>
      <point x="325.132" y="684.591"/>
      <point x="322.786" y="674.428" type="curve" smooth="yes"/>
      <point x="255.784" y="391.431" type="line"/>
      <point x="272.078" y="399.228"/>
      <point x="291.85" y="412.415"/>
      <point x="317.828" y="440.755" type="curve"/>
      <point x="530.867" y="653.797" type="line"/>
      <point x="549.884" y="673.869"/>
      <point x="557.509" y="681.015"/>
      <point x="557.509" y="688.726" type="curve" smooth="yes"/>
      <point x="557.509" y="693.628"/>
      <point x="556.513" y="698.963"/>
      <point x="549.814" y="704.096" type="curve" smooth="yes"/>
      <point x="546.175" y="706.885"/>
      <point x="537.969" y="710"/>
      <point x="529.966" y="710" type="curve" smooth="yes"/>
      <point x="520.167" y="710" type="line"/>
      <point x="524.5" y="730" type="line"/>
      <point x="679.931" y="730" type="line"/>
      <point x="675.431" y="710" type="line"/>
      <point x="669.966" y="710" type="line" smooth="yes"/>
      <point x="663.585" y="710"/>
      <point x="652.202" y="709.122"/>
      <point x="643.411" y="706.209" type="curve"/>
      <point x="631.533" y="702.882"/>
      <point x="617.314" y="682.829"/>
      <point x="602.096" y="666.929" type="curve"/>
      <point x="352.262" y="415.624" type="line"/>
      <point x="374.299" y="374.777" type="line"/>
      <point x="454.27" y="241.62"/>
      <point x="515.343" y="109.254"/>
      <point x="541.405" y="49.3613" type="curve" smooth="yes"/>
      <point x="548.849" y="32.251"/>
      <point x="559.834" y="20"/>
      <point x="579.966" y="20" type="curve" smooth="yes"/>
      <point x="588.931" y="20" type="line"/>
      <point x="584.431" y="-0" type="line"/>
      <point x="382.531" y="0" type="line"/>
      <point x="387.156" y="20" type="line"/>
      <point x="392.966" y="20" type="line" smooth="yes"/>
      <point x="399.191" y="20"/>
      <point x="408.247" y="20.8076"/>
      <point x="415.844" y="22.9111" type="curve" smooth="yes"/>
      <point x="427" y="26"/>
      <point x="435.902" y="37.125"/>
    </contour>
  </outline>
</glyph>
<glyph name="L" format="1">
  <advance width="558"/>
  <unicode hex="004C"/>
  <outline>
    <contour>
      <point x="145.603" y="43.21" type="curve" smooth="yes"/>
      <point x="145.603" y="35.5176"/>
      <point x="149.955" y="29.1143"/>
      <point x="161.646" y="27.8936" type="curve" smooth="yes"/>
      <point x="181.519" y="25.9346"/>
      <point x="190.861" y="25"/>
      <point x="211.538" y="25" type="curve" smooth="yes"/>
      <point x="274.367" y="25"/>
      <point x="326.498" y="26.0635"/>
      <point x="371.636" y="35.8008" type="curve"/>
      <point x="432.107" y="50.251"/>
      <point x="462.08" y="90.0244"/>
      <point x="487.543" y="148.783" type="curve" smooth="yes"/>
      <point x="489.248" y="152.719" type="line"/>
      <point x="510.058" y="154.645" type="line"/>
      <point x="455.932" y="0" type="line"/>
      <point x="-12" y="0" type="line"/>
      <point x="-4.5" y="19.4121" type="line"/>
      <point x="0.96582" y="19.4121" type="line" smooth="yes"/>
      <point x="10.9707" y="19.4121"/>
      <point x="12.4502" y="19.4463"/>
      <point x="21.5576" y="21.2324" type="curve"/>
      <point x="37.6494" y="24.5537"/>
      <point x="47.7012" y="46.0654"/>
      <point x="50.1562" y="56.4922" type="curve"/>
      <point x="79.1719" y="172.241"/>
      <point x="107.683" y="287.835"/>
      <point x="134.829" y="403.473" type="curve" smooth="yes"/>
      <point x="156.507" y="495.814"/>
      <point x="176.117" y="585.736"/>
      <point x="196.133" y="676.982" type="curve"/>
      <point x="196.587" y="678.912"/>
      <point x="197.785" y="685.603"/>
      <point x="197.785" y="687.3" type="curve" smooth="yes"/>
      <point x="197.785" y="694.688"/>
      <point x="196.202" y="701.775"/>
      <point x="186.245" y="706.25" type="curve" smooth="yes"/>
      <point x="180.623" y="708.776"/>
      <point x="174.851" y="710"/>
      <point x="166.966" y="710" type="curve" smooth="yes"/>
      <point x="156.205" y="710" type="line"/>
      <point x="160.5" y="730" type="line"/>
      <point x="352.931" y="730" type="line"/>
      <point x="348.431" y="710" type="line"/>
      <point x="342.966" y="710" type="line" smooth="yes"/>
      <point x="331.36" y="710"/>
      <point x="323.678" y="709.326"/>
      <point x="316.116" y="706.396" type="curve" smooth="yes"/>
      <point x="303.099" y="701.351"/>
      <point x="293.127" y="683.909"/>
      <point x="290.775" y="673.932" type="curve"/>
      <point x="265.749" y="581.762"/>
      <point x="247.87" y="490.75"/>
      <point x="226.783" y="398.757" type="curve" smooth="yes"/>
      <point x="200.681" y="284.879"/>
      <point x="174.845" y="174.673"/>
      <point x="149.235" y="60.9912" type="curve"/>
      <point x="148.793" y="59.2949"/>
      <point x="145.603" y="44.7764"/>
    </contour>
  </outline>
</glyph>
<glyph name="M" format="1">
  <advance width="790"/>
  <unicode hex="004D"/>
  <outline>
    <contour>
      <point x="653.611" y="45.3115" type="curve" smooth="yes"/>
      <point x="653.611" y="38.3418"/>
      <point x="654.73" y="27.7734"/>
      <point x="665.054" y="23.7539" type="curve" smooth="yes"/>
      <point x="671.981" y="21.0566"/>
      <point x="681.337" y="20"/>
      <point x="689.356" y="20" type="curve" smooth="yes"/>
      <point x="695.321" y="20" type="line"/>
      <point x="690.821" y="0" type="line"/>
      <point x="497.391" y="0" type="line"/>
      <point x="501.891" y="20" type="line"/>
      <point x="507.356" y="20" type="line" smooth="yes"/>
      <point x="515.477" y="20"/>
      <point x="522.798" y="20.4766"/>
      <point x="530.785" y="22.8232" type="curve" smooth="yes"/>
      <point x="545" y="27"/>
      <point x="558.084" y="46.9521"/>
      <point x="560.55" y="57.6357" type="curve"/>
      <point x="576.553" y="121.648"/>
      <point x="592.756" y="185.668"/>
      <point x="608.541" y="249.599" type="curve" smooth="yes"/>
      <point x="628.548" y="330.628"/>
      <point x="646.63" y="414.581"/>
      <point x="666.269" y="496.601" type="curve"/>
      <point x="673.67" y="526.685"/>
      <point x="679.057" y="558.48"/>
      <point x="685.432" y="586.044" type="curve"/>
      <point x="390.173" y="149.016" type="line"/>
      <point x="387.021" y="144.464"/>
      <point x="378.374" y="129"/>
      <point x="365.541" y="129" type="curve" smooth="yes"/>
      <point x="354.71" y="129"/>
      <point x="344.608" y="141.338"/>
      <point x="343.038" y="149.571" type="curve" smooth="yes"/>
      <point x="343.038" y="149.571"/>
      <point x="250.691" y="482.498"/>
      <point x="226.604" y="587.667" type="curve"/>
      <point x="103.217" y="59.5645" type="line"/>
      <point x="102.733" y="56.5596"/>
      <point x="101.003" y="46.375"/>
      <point x="100.979" y="46.0947" type="curve"/>
      <point x="101.245" y="36.9268"/>
      <point x="101.716" y="29.5117"/>
      <point x="112.167" y="23.7627" type="curve" smooth="yes"/>
      <point x="118.267" y="20.4072"/>
      <point x="127.242" y="20"/>
      <point x="135.356" y="20" type="curve" smooth="yes"/>
      <point x="141.61" y="20" type="line"/>
      <point x="136.821" y="0" type="line"/>
      <point x="-15.6094" y="0" type="line"/>
      <point x="-11.1094" y="20" type="line"/>
      <point x="-5.64355" y="20" type="line" smooth="yes"/>
      <point x="2.47656" y="20"/>
      <point x="10.3604" y="20.4922"/>
      <point x="19.7852" y="22.7852" type="curve" smooth="yes"/>
      <point x="33" y="26"/>
      <point x="44.1182" y="48.1289"/>
      <point x="46.6289" y="60.3066" type="curve"/>
      <point x="101.543" y="263.736"/>
      <point x="141.584" y="466.649"/>
      <point x="191.573" y="673.288" type="curve"/>
      <point x="192.404" y="676.435"/>
      <point x="194.182" y="686.479"/>
      <point x="194.182" y="687.597" type="curve" smooth="yes"/>
      <point x="194.182" y="706.055"/>
      <point x="180.319" y="710"/>
      <point x="160.356" y="710" type="curve" smooth="yes"/>
      <point x="151.922" y="710" type="line"/>
      <point x="156.547" y="730" type="line"/>
      <point x="298.957" y="730" type="line"/>
      <point x="430.467" y="273.085" type="line"/>
      <point x="732.692" y="730" type="line"/>
      <point x="862.791" y="730" type="line"/>
      <point x="858.166" y="710" type="line"/>
      <point x="852.356" y="710" type="line" smooth="yes"/>
      <point x="844.38" y="710"/>
      <point x="836.268" y="708.005"/>
      <point x="827.782" y="706.18" type="curve" smooth="yes"/>
      <point x="813" y="703"/>
      <point x="804.576" y="688.102"/>
      <point x="801.17" y="674.921" type="curve" smooth="yes"/>
      <point x="785.502" y="614.292"/>
      <point x="774" y="564"/>
      <point x="757.18" y="492.769" type="curve" smooth="yes"/>
      <point x="718" y="321"/>
      <point x="691.17" y="204.876"/>
      <point x="655.238" y="59.2461" type="curve"/>
      <point x="655.238" y="59.2461"/>
      <point x="653.611" y="47.332"/>
    </contour>
  </outline>
</glyph>
<glyph name="N" format="1">
  <advance width="809"/>
  <unicode hex="004E"/>
  <outline>
    <contour>
      <point x="725.785" y="398.502" type="curve" smooth="yes"/>
      <point x="696.498" y="267.175"/>
      <point x="665.531" y="136.996"/>
      <point x="632.563" y="5.68359" type="curve" smooth="yes"/>
      <point x="630.179" y="-3.81445"/>
      <point x="621.527" y="-9"/>
      <point x="614.118" y="-9" type="curve" smooth="yes"/>
      <point x="601.82" y="-9"/>
      <point x="597.535" y="3.46484"/>
      <point x="597.535" y="3.46484" type="curve"/>
      <point x="472.468" y="207.394"/>
      <point x="360.029" y="404.072"/>
      <point x="236.816" y="606.537" type="curve"/>
      <point x="224.967" y="555.833"/>
      <point x="214.517" y="510.056"/>
      <point x="202.782" y="460.41" type="curve"/>
      <point x="133.793" y="160.456" type="line"/>
      <point x="125.817" y="124.564"/>
      <point x="115.688" y="88.8877"/>
      <point x="107.88" y="53.8457" type="curve"/>
      <point x="107.787" y="53.002"/>
      <point x="106.548" y="46.3574"/>
      <point x="106.548" y="43.6621" type="curve" smooth="yes"/>
      <point x="106.548" y="36.6465"/>
      <point x="107.521" y="25.3262"/>
      <point x="116.776" y="22.7627" type="curve" smooth="yes"/>
      <point x="122.596" y="21.1507"/>
      <point x="130.906" y="20"/>
      <point x="138.966" y="20" type="curve" smooth="yes"/>
      <point x="147.931" y="20" type="line"/>
      <point x="143.431" y="0" type="line"/>
      <point x="-12" y="0" type="line"/>
      <point x="-7.5" y="20" type="line"/>
      <point x="-2.03418" y="20" type="line" smooth="yes"/>
      <point x="6.08594" y="20"/>
      <point x="12.6846" y="20.7031"/>
      <point x="20.3945" y="22.7852" type="curve" smooth="yes"/>
      <point x="36" y="27"/>
      <point x="47.6367" y="48.3037"/>
      <point x="51.1514" y="59.9746" type="curve"/>
      <point x="51.1514" y="59.9746"/>
      <point x="103.826" y="267.271"/>
      <point x="134.141" y="399.832" type="curve" smooth="yes"/>
      <point x="158.716" y="507.297"/>
      <point x="195.09" y="673.87"/>
      <point x="195.09" y="673.87" type="curve"/>
      <point x="195.09" y="673.87"/>
      <point x="197.878" y="685.633"/>
      <point x="197.878" y="687.351" type="curve" smooth="yes"/>
      <point x="197.878" y="696.393"/>
      <point x="195.625" y="699.378"/>
      <point x="187.042" y="705.305" type="curve" smooth="yes"/>
      <point x="181.46" y="709.159"/>
      <point x="172.984" y="710"/>
      <point x="164.966" y="710" type="curve" smooth="yes"/>
      <point x="156" y="710" type="line"/>
      <point x="160.5" y="730" type="line"/>
      <point x="271.933" y="730" type="line"/>
      <point x="615.346" y="159.48" type="line"/>
      <point x="735.091" y="676.34" type="line"/>
      <point x="735.091" y="676.34"/>
      <point x="736.785" y="683.808"/>
      <point x="736.785" y="685.309" type="curve" smooth="yes"/>
      <point x="736.785" y="692.943"/>
      <point x="735.639" y="701.533"/>
      <point x="725.042" y="706.27" type="curve" smooth="yes"/>
      <point x="719.664" y="708.673"/>
      <point x="711.984" y="710"/>
      <point x="703.966" y="710" type="curve" smooth="yes"/>
      <point x="694.747" y="710" type="line"/>
      <point x="699.5" y="730" type="line"/>
      <point x="852.4" y="730" type="line"/>
      <point x="848.775" y="710" type="line"/>
      <point x="842.966" y="710" type="line" smooth="yes"/>
      <point x="835.034" y="710"/>
      <point x="826.432" y="709.267"/>
      <point x="819.568" y="707.222" type="curve" smooth="yes"/>
      <point x="804.709" y="702.795"/>
      <point x="794.992" y="686.877"/>
      <point x="791.724" y="675.663" type="curve"/>
      <point x="767.81" y="583.852"/>
      <point x="746.384" y="490.869"/>
    </contour>
  </outline>
</glyph>
<glyph name="O" format="1">
  <advance width="735"/>
  <unicode hex="004F"/>
  <outline>
    <contour>
      <point x="28.1074" y="241.868" type="curve" smooth="yes"/>
      <point x="28.1074" y="544.682"/>
      <point x="205.053" y="734"/>
      <point x="471.899" y="734" type="curve" smooth="yes"/>
      <point x="622.144" y="734"/>
      <point x="731.174" y="643.687"/>
      <point x="731.174" y="473.903" type="curve" smooth="yes"/>
      <point x="731.174" y="180.783"/>
      <point x="472.188" y="-11"/>
      <point x="292.474" y="-11" type="curve" smooth="yes"/>
      <point x="197.599" y="-11"/>
      <point x="28.1074" y="37.0938"/>
    </contour>
    <contour>
      <point x="451.275" y="695" type="curve" smooth="yes"/>
      <point x="206.873" y="695"/>
      <point x="130.054" y="393.399"/>
      <point x="130.054" y="234.335" type="curve" smooth="yes"/>
      <point x="130.054" y="52.167"/>
      <point x="251.831" y="31"/>
      <point x="307.941" y="31" type="curve" smooth="yes"/>
      <point x="436.058" y="31"/>
      <point x="638.391" y="190.418"/>
      <point x="638.391" y="494.999" type="curve" smooth="yes"/>
      <point x="638.391" y="604.614"/>
      <point x="590.007" y="695"/>
    </contour>
  </outline>
</glyph>
<glyph name="P" format="1">
  <advance width="622"/>
  <unicode hex="0050"/>
  <outline>
    <contour>
      <point x="181.04" y="43.3057" type="curve" smooth="yes"/>
      <point x="181.04" y="37.8525"/>
      <point x="181.856" y="27.1602"/>
      <point x="192.124" y="22.7256" type="curve" smooth="yes"/>
      <point x="198.27" y="20.0713"/>
      <point x="206.737" y="20"/>
      <point x="215.138" y="20" type="curve" smooth="yes"/>
      <point x="222.901" y="20" type="line"/>
      <point x="218.057" y="0" type="line"/>
      <point x="26" y="0" type="line"/>
      <point x="30.625" y="20" type="line"/>
      <point x="34.4346" y="20" type="line" smooth="yes"/>
      <point x="42.5312" y="20"/>
      <point x="49.6484" y="20.0186"/>
      <point x="56.8643" y="21.7852" type="curve"/>
      <point x="73.0879" y="25.1309"/>
      <point x="86.0957" y="46.3203"/>
      <point x="88.625" y="57.0566" type="curve"/>
      <point x="117.632" y="172.67"/>
      <point x="140.753" y="267.289"/>
      <point x="171.567" y="401.788" type="curve" smooth="yes"/>
      <point x="195.087" y="504.446"/>
      <point x="231.846" y="664.221"/>
      <point x="231.846" y="664.221" type="curve"/>
      <point x="232.65" y="667.824"/>
      <point x="236.196" y="683.217"/>
      <point x="236.196" y="687.05" type="curve" smooth="yes"/>
      <point x="236.196" y="697.232"/>
      <point x="233.212" y="702.322"/>
      <point x="225.222" y="707.346" type="curve" smooth="yes"/>
      <point x="221" y="710"/>
      <point x="210.784" y="710"/>
      <point x="202.515" y="710" type="curve" smooth="yes"/>
      <point x="193.752" y="710" type="line"/>
      <point x="198.596" y="730" type="line"/>
      <point x="229.566" y="730" type="line" smooth="yes"/>
      <point x="291.746" y="730"/>
      <point x="358.235" y="732"/>
      <point x="419.692" y="732" type="curve" smooth="yes"/>
      <point x="543.512" y="732"/>
      <point x="639.562" y="687.309"/>
      <point x="639.562" y="567.904" type="curve" smooth="yes"/>
      <point x="639.562" y="369.967"/>
      <point x="459.547" y="275"/>
      <point x="322.331" y="275" type="curve" smooth="yes"/>
      <point x="310.465" y="275"/>
      <point x="298.802" y="275.03"/>
      <point x="288.361" y="277.035" type="curve" smooth="yes"/>
      <point x="278.362" y="278.955"/>
      <point x="268.825" y="285.435"/>
      <point x="268.825" y="296.676" type="curve" smooth="yes"/>
      <point x="268.825" y="310.155"/>
      <point x="279.769" y="318"/>
      <point x="294.279" y="318" type="curve" smooth="yes"/>
      <point x="418.993" y="318"/>
      <point x="552.987" y="391.885"/>
      <point x="552.987" y="575.353" type="curve" smooth="yes"/>
      <point x="552.987" y="659.186"/>
      <point x="494.01" y="700"/>
      <point x="379.173" y="700" type="curve" smooth="yes"/>
      <point x="332.377" y="700" type="line"/>
      <point x="307.515" y="600.433"/>
      <point x="284.639" y="493.705"/>
      <point x="262.661" y="394.678" type="curve" smooth="yes"/>
      <point x="237.41" y="280.906"/>
      <point x="210.634" y="166.67"/>
      <point x="182.641" y="52.0146" type="curve"/>
      <point x="182.214" y="50.2676"/>
      <point x="181.04" y="44.7969"/>
    </contour>
  </outline>
</glyph>
<glyph name="Q" format="1">
  <advance width="770"/>
  <unicode hex="0051"/>
  <outline>
    <contour>
      <point x="463.476" y="694" type="curve" smooth="yes"/>
      <point x="216.571" y="694"/>
      <point x="133.16" y="385.008"/>
      <point x="133.16" y="220.567" type="curve" smooth="yes"/>
      <point x="133.16" y="32.1768"/>
      <point x="258.154" y="20"/>
      <point x="315.189" y="20" type="curve" smooth="yes"/>
      <point x="446.257" y="20"/>
      <point x="650.553" y="168.624"/>
      <point x="650.553" y="487.7" type="curve" smooth="yes"/>
      <point x="650.553" y="601.045"/>
      <point x="604.652" y="694"/>
    </contour>
    <contour>
      <point x="30.1045" y="236.561" type="curve" smooth="yes"/>
      <point x="30.1045" y="543.562"/>
      <point x="247.502" y="733"/>
      <point x="480.053" y="733" type="curve" smooth="yes"/>
      <point x="632.062" y="733"/>
      <point x="744.569" y="641.945"/>
      <point x="744.569" y="470.435" type="curve" smooth="yes"/>
      <point x="744.569" y="172.005"/>
      <point x="509.537" y="7.34668"/>
      <point x="334.575" y="-14.4551" type="curve"/>
      <point x="331.068" y="-22.8682"/>
      <point x="329.717" y="-29.6416"/>
      <point x="329.717" y="-36.5088" type="curve" smooth="yes"/>
      <point x="329.717" y="-72.5732"/>
      <point x="375.999" y="-102"/>
      <point x="464.597" y="-102" type="curve" smooth="yes"/>
      <point x="471.147" y="-102"/>
      <point x="479.472" y="-101"/>
      <point x="488.296" y="-101" type="curve" smooth="yes"/>
      <point x="495.772" y="-101" type="line"/>
      <point x="494.244" y="-142.5" type="line"/>
      <point x="487.819" y="-142.979" type="line" smooth="yes"/>
      <point x="461.074" y="-144.976"/>
      <point x="437.217" y="-147"/>
      <point x="414.107" y="-147" type="curve" smooth="yes"/>
      <point x="298.479" y="-147"/>
      <point x="212.638" y="-114.556"/>
      <point x="212.638" y="-36.1182" type="curve" smooth="yes"/>
      <point x="212.638" y="-27.7207"/>
      <point x="213.894" y="-17.8799"/>
      <point x="215.774" y="-9.29199" type="curve"/>
      <point x="131.657" y="9.85449"/>
      <point x="30.1045" y="76.3291"/>
    </contour>
  </outline>
</glyph>
<glyph name="R" format="1">
  <advance width="669"/>
  <unicode hex="0052"/>
  <outline>
    <contour>
      <point x="156.661" y="41.1982" type="curve" smooth="yes"/>
      <point x="156.661" y="34.1016"/>
      <point x="158.136" y="26.5586"/>
      <point x="169.754" y="22.7627" type="curve" smooth="yes"/>
      <point x="175.937" y="20.7432"/>
      <point x="183.3" y="20"/>
      <point x="191.729" y="20" type="curve" smooth="yes"/>
      <point x="200.044" y="20" type="line"/>
      <point x="195.252" y="0" type="line"/>
      <point x="3" y="0" type="line"/>
      <point x="7.5" y="20" type="line"/>
      <point x="12.9658" y="20" type="line" smooth="yes"/>
      <point x="21.0859" y="20"/>
      <point x="32.6357" y="21.8037"/>
      <point x="38.3945" y="23.7852" type="curve" smooth="yes"/>
      <point x="51.5557" y="28.3125"/>
      <point x="62.6973" y="46.6221"/>
      <point x="65.1543" y="57.0508" type="curve"/>
      <point x="95.1807" y="173.721"/>
      <point x="123.394" y="288.892"/>
      <point x="150.196" y="405.701" type="curve" smooth="yes"/>
      <point x="169.98" y="491.923"/>
      <point x="189.739" y="576.057"/>
      <point x="208.427" y="662.191" type="curve"/>
      <point x="209.246" y="665.864"/>
      <point x="213.648" y="683.501"/>
      <point x="213.648" y="688.032" type="curve" smooth="yes"/>
      <point x="213.648" y="699.727"/>
      <point x="207.974" y="703.562"/>
      <point x="201.306" y="706.213" type="curve" smooth="yes"/>
      <point x="195.032" y="708.708"/>
      <point x="188.166" y="710"/>
      <point x="180.067" y="710" type="curve" smooth="yes"/>
      <point x="170.753" y="710" type="line"/>
      <point x="175.545" y="730" type="line"/>
      <point x="208.158" y="730" type="line" smooth="yes"/>
      <point x="270.182" y="730"/>
      <point x="336.669" y="734"/>
      <point x="398.286" y="734" type="curve" smooth="yes"/>
      <point x="520.604" y="734"/>
      <point x="605.604" y="691.567"/>
      <point x="605.604" y="588.395" type="curve" smooth="yes"/>
      <point x="605.604" y="459.519"/>
      <point x="533.148" y="392.076"/>
      <point x="419.186" y="366.2" type="curve"/>
      <point x="496.819" y="350.636"/>
      <point x="548.225" y="301.362"/>
      <point x="548.225" y="234.171" type="curve" smooth="yes"/>
      <point x="548.225" y="231.372"/>
      <point x="548.134" y="228.548"/>
      <point x="547.952" y="225.698" type="curve" smooth="yes"/>
      <point x="544.35" y="169.303"/>
      <point x="539.628" y="138.368"/>
      <point x="536.951" y="97.252" type="curve" smooth="yes"/>
      <point x="536.637" y="92.4141"/>
      <point x="536.485" y="87.9492"/>
      <point x="536.485" y="83.832" type="curve" smooth="yes"/>
      <point x="536.485" y="48.8547"/>
      <point x="546.41" y="21.9287"/>
      <point x="569.688" y="21.9287" type="curve" smooth="yes"/>
      <point x="581.099" y="21.9287"/>
      <point x="597.489" y="25.5889"/>
      <point x="602.835" y="28.2607" type="curve"/>
      <point x="604.265" y="9.38867" type="line" smooth="yes"/>
      <point x="580.817" y="1.23242"/>
      <point x="555.786" y="-4.91602"/>
      <point x="516.973" y="-5" type="curve"/>
      <point x="463.219" y="-5"/>
      <point x="435.584" y="35.5996"/>
      <point x="435.584" y="78.417" type="curve" smooth="yes"/>
      <point x="435.584" y="80.0449"/>
      <point x="435.616" y="82.5645"/>
      <point x="435.694" y="84.3047" type="curve" smooth="yes"/>
      <point x="437.785" y="130.47"/>
      <point x="444.688" y="208.965"/>
      <point x="448.189" y="243.677" type="curve" smooth="yes"/>
      <point x="448.543" y="247.183"/>
      <point x="449.715" y="258.549"/>
      <point x="449.715" y="261.783" type="curve" smooth="yes"/>
      <point x="449.715" y="337.847"/>
      <point x="352.625" y="353.593"/>
      <point x="233.491" y="362.555" type="curve"/>
      <point x="159.188" y="52.4609" type="line" smooth="yes"/>
      <point x="158.832" y="50.9385"/>
      <point x="156.661" y="42.5127"/>
    </contour>
    <contour>
      <point x="244.413" y="412.788" type="curve" smooth="yes"/>
      <point x="242.234" y="403.103"/>
      <point x="240.11" y="393.942"/>
      <point x="238.084" y="385.081" type="curve"/>
      <point x="247.124" y="385.05"/>
      <point x="254.818" y="385"/>
      <point x="263.301" y="385" type="curve" smooth="yes"/>
      <point x="397.565" y="385"/>
      <point x="515.969" y="444.325"/>
      <point x="515.969" y="591.837" type="curve" smooth="yes"/>
      <point x="515.969" y="676.392"/>
      <point x="459.224" y="700"/>
      <point x="349.767" y="700" type="curve" smooth="yes"/>
      <point x="310.018" y="700" type="line"/>
      <point x="284.138" y="600.743"/>
      <point x="266.579" y="511.32"/>
    </contour>
  </outline>
</glyph>
<glyph name="S" format="1">
  <advance width="538"/>
  <unicode hex="0053"/>
  <outline>
    <contour>
      <point x="63.8613" y="166.627" type="curve" smooth="yes"/>
      <point x="63.8613" y="114.073"/>
      <point x="89.2959" y="30"/>
      <point x="186.639" y="30" type="curve" smooth="yes"/>
      <point x="295.52" y="30"/>
      <point x="383.903" y="109.686"/>
      <point x="383.903" y="202.549" type="curve" smooth="yes"/>
      <point x="383.903" y="264.198"/>
      <point x="331.898" y="317.314"/>
      <point x="271.637" y="365.164" type="curve" smooth="yes"/>
      <point x="208.815" y="415.046"/>
      <point x="131.27" y="463.823"/>
      <point x="131.27" y="535.593" type="curve" smooth="yes"/>
      <point x="131.27" y="645.252"/>
      <point x="251.556" y="742"/>
      <point x="396.188" y="742" type="curve" smooth="yes"/>
      <point x="474.705" y="742"/>
      <point x="556.034" y="715.725"/>
      <point x="556.034" y="688.427" type="curve" smooth="yes"/>
      <point x="556.034" y="687.436"/>
      <point x="556.171" y="686.549"/>
      <point x="555.719" y="684.509" type="curve"/>
      <point x="552.732" y="670.576"/>
      <point x="527.025" y="608"/>
      <point x="508.879" y="608" type="curve" smooth="yes"/>
      <point x="480.228" y="608"/>
      <point x="487.413" y="706"/>
      <point x="383.213" y="706" type="curve" smooth="yes"/>
      <point x="285.538" y="706"/>
      <point x="225.839" y="624.69"/>
      <point x="225.839" y="558.649" type="curve" smooth="yes"/>
      <point x="225.839" y="507.937"/>
      <point x="278.015" y="479.572"/>
      <point x="332.77" y="435.629" type="curve" smooth="yes"/>
      <point x="406.069" y="376.802"/>
      <point x="476.221" y="320.464"/>
      <point x="476.221" y="243.134" type="curve" smooth="yes"/>
      <point x="476.221" y="140.841"/>
      <point x="412.84" y="75.7861"/>
      <point x="356.644" y="37.4102" type="curve" smooth="yes"/>
      <point x="311.7" y="6.53125"/>
      <point x="229.526" y="-10"/>
      <point x="182.107" y="-10" type="curve" smooth="yes"/>
      <point x="52.0791" y="-10"/>
      <point x="-13.9883" y="66.6621"/>
      <point x="-13.9883" y="114.759" type="curve" smooth="yes"/>
      <point x="-13.9883" y="118.158"/>
      <point x="-13.666" y="121.357"/>
      <point x="-12.9404" y="124.579" type="curve"/>
      <point x="-7.37598" y="147.949"/>
      <point x="30.1436" y="196"/>
      <point x="52.8789" y="196" type="curve" smooth="yes"/>
      <point x="53.1416" y="196"/>
      <point x="65.0752" y="196.845"/>
      <point x="65.0752" y="186.402" type="curve" smooth="yes"/>
      <point x="65.0752" y="184.831"/>
      <point x="65.0156" y="185.182"/>
      <point x="64.6523" y="182.564" type="curve"/>
      <point x="64.2812" y="179.149"/>
      <point x="63.8613" y="172.104"/>
    </contour>
  </outline>
</glyph>
<glyph name="T" format="1">
  <advance width="653"/>
  <unicode hex="0054"/>
  <outline>
    <contour>
      <point x="300.966" y="705" type="curve" smooth="yes"/>
      <point x="268.212" y="705"/>
      <point x="212.614" y="701.993"/>
      <point x="183.301" y="697.112" type="curve" smooth="yes"/>
      <point x="142.764" y="689.391"/>
      <point x="103" y="628"/>
      <point x="95.7549" y="600" type="curve"/>
      <point x="73" y="600" type="line"/>
      <point x="120.619" y="728.787" type="line" smooth="yes"/>
      <point x="122.998" y="733.571"/>
      <point x="127.549" y="736"/>
      <point x="132.052" y="736" type="curve" smooth="yes"/>
      <point x="139.188" y="736"/>
      <point x="151.857" y="734"/>
      <point x="158.154" y="734" type="curve"/>
      <point x="192.385" y="732.993"/>
      <point x="288.601" y="730"/>
      <point x="405.729" y="730" type="curve"/>
      <point x="509.463" y="731"/>
      <point x="549.228" y="731.993"/>
      <point x="633.927" y="735" type="curve"/>
      <point x="636.974" y="735"/>
      <point x="659.979" y="737"/>
      <point x="667.052" y="737" type="curve" smooth="yes"/>
      <point x="669.972" y="737"/>
      <point x="683.18" y="735.201"/>
      <point x="683.18" y="727.972" type="curve" smooth="yes"/>
      <point x="683.18" y="724.999"/>
      <point x="682.225" y="721.821"/>
      <point x="681.829" y="720.25" type="curve"/>
      <point x="650" y="600" type="line"/>
      <point x="629.753" y="599.505" type="line"/>
      <point x="631.285" y="607.915"/>
      <point x="637.271" y="632.366"/>
      <point x="637.271" y="655.008" type="curve" smooth="yes"/>
      <point x="637.271" y="683.52"/>
      <point x="633.464" y="695.945"/>
      <point x="617.339" y="699.212" type="curve" smooth="yes"/>
      <point x="594.165" y="703.906"/>
      <point x="565.832" y="705"/>
      <point x="508.865" y="705" type="curve" smooth="yes"/>
      <point x="492.562" y="705"/>
      <point x="474.904" y="704"/>
      <point x="456.984" y="704" type="curve" smooth="yes"/>
      <point x="438.446" y="704"/>
      <point x="431.62" y="681.23"/>
      <point x="428.852" y="669.906" type="curve"/>
      <point x="399.768" y="555.204"/>
      <point x="377.923" y="461.96"/>
      <point x="348.312" y="327.143" type="curve" smooth="yes"/>
      <point x="325" y="221"/>
      <point x="311" y="166"/>
      <point x="284.884" y="58.9922" type="curve" smooth="yes"/>
      <point x="284.367" y="56.875"/>
      <point x="283.232" y="49.377"/>
      <point x="283.232" y="47.6807" type="curve" smooth="yes"/>
      <point x="283.232" y="40.1621"/>
      <point x="283.874" y="29.8008"/>
      <point x="291.975" y="24.6953" type="curve" smooth="yes"/>
      <point x="296.951" y="21.5586"/>
      <point x="307.032" y="20"/>
      <point x="315.052" y="20" type="curve" smooth="yes"/>
      <point x="323.812" y="20" type="line"/>
      <point x="319.861" y="0" type="line"/>
      <point x="126.617" y="0" type="line"/>
      <point x="131.242" y="20" type="line"/>
      <point x="137.052" y="20" type="line" smooth="yes"/>
      <point x="145.267" y="20"/>
      <point x="155.682" y="21.4668"/>
      <point x="163.9" y="25.6045" type="curve" smooth="yes"/>
      <point x="176.673" y="32.0342"/>
      <point x="186.889" y="46.084"/>
      <point x="189.243" y="56.0762" type="curve"/>
      <point x="212.25" y="147.188"/>
      <point x="234.246" y="239.232"/>
      <point x="256.227" y="330.233" type="curve"/>
      <point x="334.398" y="673.881" type="line"/>
      <point x="335.182" y="677.58"/>
      <point x="338.021" y="689"/>
      <point x="338.021" y="692.332" type="curve" smooth="yes"/>
      <point x="338.021" y="700.067"/>
      <point x="332.772" y="703.365"/>
      <point x="328.709" y="704.132" type="curve"/>
      <point x="323.848" y="704.896"/>
      <point x="314.359" y="705"/>
    </contour>
  </outline>
</glyph>
<glyph name="U" format="1">
  <advance width="744"/>
  <unicode hex="0055"/>
  <outline>
    <contour>
      <point x="156.082" y="689.021" type="curve" smooth="yes"/>
      <point x="156.082" y="697.965"/>
      <point x="151.312" y="703.619"/>
      <point x="144.364" y="706.221" type="curve" smooth="yes"/>
      <point x="139.28" y="708.125"/>
      <point x="130.592" y="710"/>
      <point x="123.966" y="710" type="curve" smooth="yes"/>
      <point x="113.531" y="710" type="line"/>
      <point x="119.156" y="730" type="line"/>
      <point x="310.932" y="730" type="line"/>
      <point x="306.432" y="710" type="line"/>
      <point x="300.966" y="710" type="line" smooth="yes"/>
      <point x="293.017" y="710"/>
      <point x="285.59" y="709.069"/>
      <point x="276.569" y="706.224" type="curve" smooth="yes"/>
      <point x="260.167" y="701.049"/>
      <point x="251.54" y="686.086"/>
      <point x="247.966" y="672.73" type="curve" smooth="yes"/>
      <point x="245.374" y="664.496"/>
      <point x="245.103" y="662.131"/>
      <point x="242.782" y="652.41" type="curve" smooth="yes"/>
      <point x="224.774" y="576.968"/>
      <point x="166.217" y="319.125"/>
      <point x="166.158" y="318.899" type="curve" smooth="yes"/>
      <point x="154.132" y="267.599"/>
      <point x="148.634" y="228.088"/>
      <point x="148.634" y="192.963" type="curve" smooth="yes"/>
      <point x="148.634" y="87.0967"/>
      <point x="198.29" y="35.3447"/>
      <point x="318.637" y="35.3447" type="curve" smooth="yes"/>
      <point x="476.461" y="35.3447"/>
      <point x="550.278" y="115.834"/>
      <point x="597.494" y="308.358" type="curve" smooth="yes"/>
      <point x="604.784" y="338.789"/>
      <point x="675.913" y="645.788"/>
      <point x="683.167" y="676.093" type="curve" smooth="yes"/>
      <point x="683.773" y="678.623"/>
      <point x="685.062" y="687.267"/>
      <point x="685.062" y="688.861" type="curve" smooth="yes"/>
      <point x="685.062" y="695.078"/>
      <point x="680.563" y="701.102"/>
      <point x="673.043" y="705.305" type="curve" smooth="yes"/>
      <point x="666.079" y="709.197"/>
      <point x="657.013" y="710"/>
      <point x="648.966" y="710" type="curve" smooth="yes"/>
      <point x="642.707" y="710" type="line"/>
      <point x="647.5" y="730" type="line"/>
      <point x="799.932" y="730" type="line"/>
      <point x="795.432" y="710" type="line"/>
      <point x="789.966" y="710" type="line" smooth="yes"/>
      <point x="781.869" y="710"/>
      <point x="776.811" y="709.996"/>
      <point x="769.574" y="708.222" type="curve" smooth="yes"/>
      <point x="752.769" y="704.558"/>
      <point x="741.982" y="688.59"/>
      <point x="738.729" y="675.663" type="curve" smooth="yes"/>
      <point x="732.377" y="650.427"/>
      <point x="707.132" y="541.394"/>
      <point x="686.785" y="454.206" type="curve" smooth="yes"/>
      <point x="667.784" y="372.787"/>
      <point x="656.16" y="313.381"/>
      <point x="647" y="279" type="curve" smooth="yes"/>
      <point x="586.879" y="52.9678"/>
      <point x="450.748" y="-9.65527"/>
      <point x="310.362" y="-9.65527" type="curve" smooth="yes"/>
      <point x="192.6" y="-9.65527"/>
      <point x="52.5527" y="37.7686"/>
      <point x="52.5527" y="206.39" type="curve" smooth="yes"/>
      <point x="52.5527" y="232.952"/>
      <point x="60.0186" y="262.327"/>
      <point x="67.54" y="294.982" type="curve" smooth="yes"/>
      <point x="154.162" y="675.132" type="line" smooth="yes"/>
      <point x="154.748" y="677.705"/>
      <point x="156.082" y="686.897"/>
    </contour>
  </outline>
</glyph>
<glyph name="V" format="1">
  <advance width="651"/>
  <unicode hex="0056"/>
  <outline>
    <contour>
      <point x="293.23" y="710" type="line" smooth="yes"/>
      <point x="286.124" y="710"/>
      <point x="273.992" y="708.498"/>
      <point x="267.012" y="706.18" type="curve" smooth="yes"/>
      <point x="250.702" y="700.763"/>
      <point x="239.755" y="693.488"/>
      <point x="239.755" y="675.137" type="curve" smooth="yes"/>
      <point x="239.755" y="672.384"/>
      <point x="240.986" y="661.353"/>
      <point x="241.495" y="658.024" type="curve" smooth="yes"/>
      <point x="322.218" y="153.077" type="line"/>
      <point x="642.635" y="655.724" type="line"/>
      <point x="653.755" y="672.455"/>
      <point x="656.802" y="679.115"/>
      <point x="656.802" y="690.947" type="curve" smooth="yes"/>
      <point x="656.802" y="701.556"/>
      <point x="647.588" y="710"/>
      <point x="625.919" y="710" type="curve" smooth="yes"/>
      <point x="616.499" y="710" type="line"/>
      <point x="620.494" y="730" type="line"/>
      <point x="770.931" y="730" type="line"/>
      <point x="766.431" y="710" type="line"/>
      <point x="760.966" y="710" type="line" smooth="yes"/>
      <point x="726.728" y="710"/>
      <point x="722.828" y="691.767"/>
      <point x="705.861" y="666.928" type="curve"/>
      <point x="565.376" y="446.383"/>
      <point x="421.96" y="220.886"/>
      <point x="282.827" y="5.3457" type="curve" smooth="yes"/>
      <point x="279.752" y="0.486328"/>
      <point x="275.29" y="-10"/>
      <point x="264.25" y="-10" type="curve" smooth="yes"/>
      <point x="252.989" y="-10"/>
      <point x="249.794" y="0.230469"/>
      <point x="248.812" y="7.68652" type="curve"/>
      <point x="246.78" y="20.21"/>
      <point x="173.023" y="484.334"/>
      <point x="148.048" y="654.813" type="curve"/>
      <point x="147.067" y="660.583"/>
      <point x="146.042" y="669.589"/>
      <point x="145.044" y="674.479" type="curve" smooth="yes"/>
      <point x="141.94" y="689.686"/>
      <point x="141.593" y="699.349"/>
      <point x="135.528" y="704.185" type="curve" smooth="yes"/>
      <point x="130.479" y="708.211"/>
      <point x="122.623" y="710"/>
      <point x="115.966" y="710" type="curve" smooth="yes"/>
      <point x="107" y="710" type="line"/>
      <point x="111.866" y="730" type="line"/>
      <point x="304" y="730" type="line"/>
      <point x="298.881" y="710" type="line"/>
    </contour>
  </outline>
</glyph>
<glyph name="W" format="1">
  <advance width="930"/>
  <unicode hex="0057"/>
  <outline>
    <contour>
      <point x="893.348" y="714" type="curve" smooth="yes"/>
      <point x="884.202" y="714" type="line"/>
      <point x="887.853" y="734" type="line"/>
      <point x="1038.93" y="734" type="line"/>
      <point x="1035.43" y="714" type="line"/>
      <point x="1029.97" y="714" type="line" smooth="yes"/>
      <point x="1022.58" y="714"/>
      <point x="1013.17" y="712.501"/>
      <point x="1005.72" y="710.277" type="curve" smooth="yes"/>
      <point x="990.72" y="705.804"/>
      <point x="982.105" y="685.993"/>
      <point x="971.987" y="669.131" type="curve" smooth="yes"/>
      <point x="838.727" y="447.047"/>
      <point x="711.232" y="227.251"/>
      <point x="575.058" y="6.43066" type="curve" smooth="yes"/>
      <point x="574.961" y="6.27148" type="line"/>
      <point x="574.856" y="6.11719" type="line" smooth="yes"/>
      <point x="569.283" y="-2.0791"/>
      <point x="564.583" y="-10"/>
      <point x="554.637" y="-10" type="curve" smooth="yes"/>
      <point x="545.176" y="-10"/>
      <point x="539.571" y="-1.28125"/>
      <point x="538.38" y="8.07129" type="curve"/>
      <point x="537.588" y="13.501"/>
      <point x="511.437" y="171.447"/>
      <point x="485.301" y="334.997" type="curve"/>
      <point x="292.387" y="24.3037" type="line"/>
      <point x="285.22" y="13.2607"/>
      <point x="281.296" y="6.51562"/>
      <point x="281.296" y="6.51562" type="curve" smooth="yes"/>
      <point x="281.177" y="6.3125" type="line"/>
      <point x="281.044" y="6.11719" type="line" smooth="yes"/>
      <point x="275.25" y="-2.4043"/>
      <point x="270.531" y="-9"/>
      <point x="261.844" y="-9" type="curve" smooth="yes"/>
      <point x="251.851" y="-9"/>
      <point x="244.747" y="-0.383789"/>
      <point x="243.39" y="10.7988" type="curve" smooth="yes"/>
      <point x="232.377" y="101.475"/>
      <point x="149.243" y="611.651"/>
      <point x="137.102" y="671.193" type="curve" smooth="yes"/>
      <point x="133.013" y="691.243"/>
      <point x="131.376" y="702.377"/>
      <point x="125.083" y="706.291" type="curve" smooth="yes"/>
      <point x="121.634" y="708.437"/>
      <point x="117.037" y="710"/>
      <point x="108.966" y="710" type="curve" smooth="yes"/>
      <point x="100" y="710" type="line"/>
      <point x="103.5" y="730" type="line"/>
      <point x="296.046" y="730" type="line"/>
      <point x="292.309" y="710" type="line"/>
      <point x="286.383" y="710" type="line" smooth="yes"/>
      <point x="255.721" y="710"/>
      <point x="235.942" y="699.312"/>
      <point x="235.942" y="669.772" type="curve" smooth="yes"/>
      <point x="235.942" y="669.146"/>
      <point x="237.014" y="658.337"/>
      <point x="237.317" y="655.958" type="curve"/>
      <point x="317.002" y="149.842" type="line"/>
      <point x="475.711" y="400.479" type="line"/>
      <point x="456.154" y="521.603"/>
      <point x="439.098" y="619.438"/>
      <point x="430" y="673" type="curve"/>
      <point x="425" y="697"/>
      <point x="420.158" y="710"/>
      <point x="402.54" y="710" type="curve" smooth="yes"/>
      <point x="393.396" y="710" type="line"/>
      <point x="397.045" y="730" type="line"/>
      <point x="567.339" y="730" type="line"/>
      <point x="563.602" y="710" type="line"/>
      <point x="557.676" y="710" type="line" smooth="yes"/>
      <point x="524.678" y="710"/>
      <point x="505.005" y="694.304"/>
      <point x="505.005" y="671.645" type="curve" smooth="yes"/>
      <point x="505.005" y="671.547"/>
      <point x="505.439" y="667.251"/>
      <point x="505.626" y="666.116" type="curve" smooth="yes"/>
      <point x="536.215" y="496.512" type="line"/>
      <point x="639.395" y="654.797" type="line"/>
      <point x="648.995" y="668.915"/>
      <point x="653.516" y="676.96"/>
      <point x="653.516" y="688.104" type="curve" smooth="yes"/>
      <point x="653.516" y="697.27"/>
      <point x="643.621" y="710"/>
      <point x="624.935" y="710" type="curve" smooth="yes"/>
      <point x="614.79" y="710" type="line"/>
      <point x="618.439" y="730" type="line"/>
      <point x="769.835" y="730" type="line"/>
      <point x="766.185" y="710" type="line"/>
      <point x="760.611" y="710" type="line" smooth="yes"/>
      <point x="752.984" y="710"/>
      <point x="745.973" y="709.092"/>
      <point x="739.766" y="706.181" type="curve" smooth="yes"/>
      <point x="722.595" y="698.128"/>
      <point x="716.104" y="685.762"/>
      <point x="704.466" y="667.162" type="curve"/>
      <point x="559.049" y="440.519" type="line"/>
      <point x="602.53" y="145.038" type="line"/>
      <point x="909.747" y="656.606" type="line" smooth="yes"/>
      <point x="919.831" y="673.053"/>
      <point x="925.802" y="680.472"/>
      <point x="925.802" y="691.84" type="curve" smooth="yes"/>
      <point x="925.802" y="700.795"/>
      <point x="915.005" y="714"/>
    </contour>
  </outline>
</glyph>
<glyph name="X" format="1">
  <advance width="652"/>
  <unicode hex="0058"/>
  <outline>
    <contour>
      <point x="124.966" y="710" type="curve" smooth="yes"/>
      <point x="118.531" y="710" type="line"/>
      <point x="123.156" y="730" type="line"/>
      <point x="315.931" y="730" type="line"/>
      <point x="311.431" y="710" type="line"/>
      <point x="305.966" y="710" type="line" smooth="yes"/>
      <point x="278.595" y="710"/>
      <point x="261.77" y="697.362"/>
      <point x="261.77" y="676.755" type="curve" smooth="yes"/>
      <point x="261.77" y="672.033"/>
      <point x="265.496" y="663.086"/>
      <point x="268.473" y="655.58" type="curve" smooth="yes"/>
      <point x="363.536" y="439.006" type="line"/>
      <point x="571.775" y="652.697" type="line"/>
      <point x="590.625" y="673.642"/>
      <point x="598.275" y="679.682"/>
      <point x="598.275" y="690.925" type="curve" smooth="yes"/>
      <point x="598.275" y="696.442"/>
      <point x="589.811" y="710"/>
      <point x="570.966" y="710" type="curve" smooth="yes"/>
      <point x="560.534" y="710" type="line"/>
      <point x="565.5" y="730" type="line"/>
      <point x="726.4" y="730" type="line"/>
      <point x="721.775" y="710" type="line"/>
      <point x="715.966" y="710" type="line" smooth="yes"/>
      <point x="680.879" y="710"/>
      <point x="668.911" y="689.723"/>
      <point x="647.117" y="666.951" type="curve"/>
      <point x="387.353" y="389.765" type="line"/>
      <point x="393.219" y="375.079" type="line"/>
      <point x="456.499" y="238.978"/>
      <point x="504.53" y="107.836"/>
      <point x="531.397" y="48.3789" type="curve"/>
      <point x="538.915" y="30.707"/>
      <point x="545.72" y="20"/>
      <point x="569.966" y="20" type="curve" smooth="yes"/>
      <point x="578.931" y="20" type="line"/>
      <point x="573.431" y="0" type="line"/>
      <point x="372" y="0" type="line"/>
      <point x="377.5" y="20" type="line"/>
      <point x="382.966" y="20" type="line" smooth="yes"/>
      <point x="405.024" y="20"/>
      <point x="422.732" y="31.4072"/>
      <point x="422.732" y="49.209" type="curve" smooth="yes"/>
      <point x="422.732" y="55.3848"/>
      <point x="420.966" y="64.585"/>
      <point x="417.402" y="74.5635" type="curve"/>
      <point x="314.876" y="322.858" type="line"/>
      <point x="87.1045" y="76.2461" type="line"/>
      <point x="72.1836" y="58.3301"/>
      <point x="61.5059" y="45.8193"/>
      <point x="58.7383" y="40.2295" type="curve" smooth="yes"/>
      <point x="56.958" y="36.6338"/>
      <point x="56.0898" y="33.5391"/>
      <point x="56.0898" y="30.9238" type="curve" smooth="yes"/>
      <point x="56.0898" y="23.3008"/>
      <point x="63.4609" y="19.75"/>
      <point x="77.0908" y="19.75" type="curve" smooth="yes"/>
      <point x="80.1143" y="19.75"/>
      <point x="83.6699" y="20"/>
      <point x="87.9658" y="20" type="curve" smooth="yes"/>
      <point x="97.3174" y="20" type="line"/>
      <point x="92.4307" y="0" type="line"/>
      <point x="-66" y="0" type="line"/>
      <point x="-61.5" y="20" type="line"/>
      <point x="-56.0342" y="20" type="line" smooth="yes"/>
      <point x="-20.9844" y="20"/>
      <point x="-12.9277" y="39.2881"/>
      <point x="9.80664" y="63.042" type="curve"/>
      <point x="287.896" y="366.46" type="line"/>
      <point x="236.961" y="496.595"/>
      <point x="190.768" y="630.694"/>
      <point x="165" y="687" type="curve"/>
      <point x="158.059" y="703.317"/>
      <point x="150.876" y="710"/>
    </contour>
  </outline>
</glyph>
<glyph name="Y" format="1">
  <advance width="603"/>
  <unicode hex="0059"/>
  <outline>
    <contour>
      <point x="154.395" y="23.7852" type="curve" smooth="yes"/>
      <point x="170" y="29"/>
      <point x="179.713" y="46.6875"/>
      <point x="182.153" y="57.0479" type="curve" smooth="yes"/>
      <point x="199.195" y="125.781"/>
      <point x="217.168" y="193.263"/>
      <point x="233.147" y="260.764" type="curve" smooth="yes"/>
      <point x="242.905" y="301.862"/>
      <point x="253.185" y="345.393"/>
      <point x="261.724" y="384.931" type="curve"/>
      <point x="213.597" y="508.672"/>
      <point x="165.438" y="636.969"/>
      <point x="140.547" y="690.61" type="curve"/>
      <point x="133.5" y="707.177"/>
      <point x="128.604" y="710"/>
      <point x="104.966" y="710" type="curve" smooth="yes"/>
      <point x="96" y="710" type="line"/>
      <point x="100.5" y="730" type="line"/>
      <point x="287.4" y="730" type="line"/>
      <point x="282.775" y="710" type="line"/>
      <point x="276.966" y="710" type="line" smooth="yes"/>
      <point x="253.172" y="710"/>
      <point x="238.199" y="695.212"/>
      <point x="238.199" y="677.791" type="curve" smooth="yes"/>
      <point x="238.199" y="672.626"/>
      <point x="239.973" y="665.392"/>
      <point x="243.521" y="655.455" type="curve"/>
      <point x="333.613" y="431.013" type="line"/>
      <point x="541.801" y="651.725" type="line" smooth="yes"/>
      <point x="559.683" y="671.271"/>
      <point x="571.554" y="683.879"/>
      <point x="571.554" y="692.007" type="curve" smooth="yes"/>
      <point x="571.554" y="702.407"/>
      <point x="560.742" y="710"/>
      <point x="539.966" y="710" type="curve" smooth="yes"/>
      <point x="531.183" y="710" type="line"/>
      <point x="535.156" y="730" type="line"/>
      <point x="689.931" y="730" type="line"/>
      <point x="685.431" y="710" type="line"/>
      <point x="678.966" y="710" type="line" smooth="yes"/>
      <point x="647.868" y="710"/>
      <point x="632.799" y="690.884"/>
      <point x="623.229" y="679.807" type="curve"/>
      <point x="357.284" y="391.95" type="line"/>
      <point x="344.563" y="346.952"/>
      <point x="336.243" y="302.264"/>
      <point x="325.676" y="256.682" type="curve" smooth="yes"/>
      <point x="309.993" y="189.036"/>
      <point x="296.764" y="136.349"/>
      <point x="279.841" y="69.0654" type="curve"/>
      <point x="279.841" y="69.0654"/>
      <point x="275.146" y="52.5723"/>
      <point x="275.146" y="46.6006" type="curve" smooth="yes"/>
      <point x="275.146" y="31.6777"/>
      <point x="285.697" y="20"/>
      <point x="307.187" y="20" type="curve" smooth="yes"/>
      <point x="316.708" y="20" type="line"/>
      <point x="312.742" y="0" type="line"/>
      <point x="120" y="0" type="line"/>
      <point x="124.5" y="20" type="line"/>
      <point x="129.966" y="20" type="line" smooth="yes"/>
      <point x="138.086" y="20"/>
      <point x="146.04" y="20.9932"/>
    </contour>
  </outline>
</glyph>
<glyph name="Z" format="1">
  <advance width="693"/>
  <unicode hex="005A"/>
  <outline>
    <contour>
      <point x="698.697" y="671.641" type="curve" smooth="yes"/>
      <point x="162.072" y="39.0195" type="line"/>
      <point x="193.75" y="35.0605"/>
      <point x="227.001" y="33"/>
      <point x="263.862" y="33" type="curve" smooth="yes"/>
      <point x="306.105" y="33"/>
      <point x="388.633" y="33.0596"/>
      <point x="437.252" y="39.9297" type="curve" smooth="yes"/>
      <point x="501.742" y="48.7168"/>
      <point x="540.318" y="98.2411"/>
      <point x="569.43" y="166.744" type="curve"/>
      <point x="593.759" y="168.593" type="line"/>
      <point x="525.97" y="0" type="line"/>
      <point x="64.3701" y="0" type="line" smooth="yes"/>
      <point x="56.7207" y="0"/>
      <point x="37.3701" y="3.43555"/>
      <point x="37.3701" y="23.5254" type="curve" smooth="yes"/>
      <point x="37.3701" y="33.2324"/>
      <point x="44.9111" y="41.5439"/>
      <point x="48.9541" y="46.498" type="curve"/>
      <point x="606.928" y="696.734" type="line"/>
      <point x="579.47" y="697.907"/>
      <point x="525.187" y="700"/>
      <point x="484.749" y="700" type="curve" smooth="yes"/>
      <point x="428.042" y="700"/>
      <point x="384.212" y="698.956"/>
      <point x="343.907" y="690.169" type="curve" smooth="yes"/>
      <point x="274.615" y="675.138"/>
      <point x="237.031" y="637.67"/>
      <point x="209.005" y="577.295" type="curve"/>
      <point x="187.351" y="575.25" type="line"/>
      <point x="255.659" y="726.883" type="line" smooth="yes"/>
      <point x="259.297" y="732.172"/>
      <point x="266.621" y="734"/>
      <point x="272.99" y="734" type="curve" smooth="yes"/>
      <point x="284.359" y="734"/>
      <point x="302.356" y="730"/>
      <point x="307" y="730" type="curve" smooth="yes"/>
      <point x="714.393" y="730" type="line"/>
      <point x="714.393" y="730"/>
      <point x="715.202" y="720.745"/>
      <point x="715.37" y="716.117" type="curve" smooth="yes"/>
      <point x="715.37" y="700.814"/>
      <point x="709.326" y="683.547"/>
    </contour>
  </outline>
</glyph>
<glyph name="bracketleft" format="1">
  <advance width="438"/>
  <unicode hex="005B"/>
  <outline>
    <contour>
      <point x="273.704" y="706.95" type="line"/>
      <point x="98.6709" y="-59.9502" type="line"/>
      <point x="215.88" y="-59.9502" type="line" smooth="yes"/>
      <point x="227.459" y="-59.9502"/>
      <point x="228.094" y="-73.0762"/>
      <point x="228.094" y="-78.6455" type="curve" smooth="yes"/>
      <point x="228.094" y="-92.1465"/>
      <point x="223.255" y="-110.15"/>
      <point x="207.38" y="-110.15" type="curve" smooth="yes"/>
      <point x="46.7305" y="-110.15" type="line" smooth="yes"/>
      <point x="34.3798" y="-110.15"/>
      <point x="25.0775" y="-103.211"/>
      <point x="25.0775" y="-90.3568" type="curve" smooth="yes"/>
      <point x="25.0775" y="-87.2901"/>
      <point x="25.4822" y="-84.1982"/>
      <point x="26.2472" y="-80.6288" type="curve"/>
      <point x="212.097" y="723.672" type="line"/>
      <point x="215.859" y="741.228"/>
      <point x="228.011" y="750.15"/>
      <point x="246.23" y="750.15" type="curve" smooth="yes"/>
      <point x="402.68" y="750.15" type="line" smooth="yes"/>
      <point x="413.642" y="750.15"/>
      <point x="414.142" y="738.051"/>
      <point x="414.142" y="733.502" type="curve" smooth="yes"/>
      <point x="414.142" y="721.158"/>
      <point x="411.785" y="706.95"/>
      <point x="395.18" y="706.95" type="curve" smooth="yes"/>
    </contour>
  </outline>
</glyph>
<glyph name="backslash" format="1">
  <advance width="398"/>
  <unicode hex="005C"/>
  <outline>
    <contour>
      <point x="359.39" y="-102.214" type="line" smooth="yes"/>
      <point x="349.544" y="-107.32"/>
      <point x="338.219" y="-110.052"/>
      <point x="327" y="-110.052" type="curve" smooth="yes"/>
      <point x="302.096" y="-110.052"/>
      <point x="284.19" y="-93.7463"/>
      <point x="275.394" y="-59.7916" type="curve"/>
      <point x="275.394" y="-59.7916"/>
      <point x="125.431" y="422.579"/>
      <point x="36.4025" y="673.661" type="curve" smooth="yes"/>
      <point x="36" y="674.796" type="line"/>
      <point x="36" y="676" type="line" smooth="yes"/>
      <point x="36" y="693.164"/>
      <point x="48.115" y="703.256"/>
      <point x="64" y="703.256" type="curve" smooth="yes"/>
      <point x="78.6068" y="703.256"/>
      <point x="96.1809" y="695.747"/>
      <point x="114.466" y="681.525" type="curve" smooth="yes"/>
      <point x="116.286" y="680.109" type="line"/>
      <point x="116.908" y="677.888" type="line" smooth="yes"/>
      <point x="188.878" y="420.998"/>
      <point x="261.813" y="185.21"/>
      <point x="362.75" y="-93.6173" type="curve" smooth="yes"/>
      <point x="364.839" y="-99.3888" type="line"/>
    </contour>
  </outline>
</glyph>
<glyph name="bracketright" format="1">
  <advance width="441"/>
  <unicode hex="005D"/>
  <outline>
    <contour>
      <point x="341.984" y="705.95" type="line"/>
      <point x="223.737" y="705.95" type="line" smooth="yes"/>
      <point x="212.232" y="705.95"/>
      <point x="211.815" y="719.202"/>
      <point x="211.815" y="724.382" type="curve" smooth="yes"/>
      <point x="211.815" y="736.761"/>
      <point x="213.082" y="750.15"/>
      <point x="230.237" y="750.15" type="curve" smooth="yes"/>
      <point x="387.737" y="750.15" type="line" smooth="yes"/>
      <point x="402.114" y="750.15"/>
      <point x="413.46" y="743.777"/>
      <point x="413.46" y="729.399" type="curve" smooth="yes"/>
      <point x="413.46" y="726.585"/>
      <point x="413.1" y="723.799"/>
      <point x="412.421" y="720.629" type="curve"/>
      <point x="226.57" y="-83.6717" type="line"/>
      <point x="222.881" y="-100.891"/>
      <point x="211.242" y="-110.15"/>
      <point x="195.588" y="-110.15" type="curve" smooth="yes"/>
      <point x="34.9375" y="-110.15" type="line" smooth="yes"/>
      <point x="23.4314" y="-110.15"/>
      <point x="23.0156" y="-96.897"/>
      <point x="23.0156" y="-91.7164" type="curve" smooth="yes"/>
      <point x="23.0156" y="-79.337"/>
      <point x="26.2832" y="-59.9502"/>
      <point x="43.4375" y="-59.9502" type="curve" smooth="yes"/>
      <point x="164.921" y="-59.9502" type="line"/>
    </contour>
  </outline>
</glyph>
<glyph name="asciicircum" format="1">
  <advance width="458"/>
  <unicode hex="005E"/>
  <outline>
    <contour>
      <point x="431.37" y="571.723" type="line" smooth="yes"/>
      <point x="424.126" y="558.443"/>
      <point x="413.019" y="551.027"/>
      <point x="402.239" y="547.434" type="curve" smooth="yes"/>
      <point x="398.311" y="546.125" type="line"/>
      <point x="273.269" y="661.789" type="line"/>
      <point x="95.4588" y="546.369" type="line"/>
      <point x="92.2612" y="547.434" type="line" smooth="yes"/>
      <point x="80.0719" y="551.497"/>
      <point x="72.7754" y="561.927"/>
      <point x="72.7754" y="575.075" type="curve" smooth="yes"/>
      <point x="72.7754" y="578.279" type="line"/>
      <point x="296.314" y="771.286" type="line"/>
      <point x="433.449" y="575.535" type="line"/>
    </contour>
  </outline>
</glyph>
<glyph name="underscore" format="1">
  <advance width="429"/>
  <unicode hex="005F"/>
  <outline>
    <contour>
      <point x="65.2715" y="-11" type="line" smooth="yes"/>
      <point x="54.2064" y="-11"/>
      <point x="52.8156" y="0.67941"/>
      <point x="52.8156" y="5.98559" type="curve" smooth="yes"/>
      <point x="52.8156" y="17.928"/>
      <point x="57.2715" y="45"/>
      <point x="74.7217" y="45" type="curve" smooth="yes"/>
      <point x="356.121" y="45" type="line" smooth="yes"/>
      <point x="367.233" y="45"/>
      <point x="368.335" y="32.8519"/>
      <point x="368.335" y="27.4407" type="curve" smooth="yes"/>
      <point x="368.335" y="15.6289"/>
      <point x="363.551" y="-11"/>
      <point x="346.671" y="-11" type="curve" smooth="yes"/>
    </contour>
  </outline>
</glyph>
<glyph name="a" format="1">
  <advance width="555"/>
  <unicode hex="0061"/>
  <outline>
    <contour>
      <point x="437.256" y="52.5371" type="curve"/>
      <point x="437.256" y="21.835" type="line"/>
      <point x="412.204" y="5.65341"/>
      <point x="390.297" y="-7.27539"/>
      <point x="362.446" y="-7.27539" type="curve" smooth="yes"/>
      <point x="338.599" y="-7.27539"/>
      <point x="328.051" y="11.8076"/>
      <point x="325.301" y="28.5898" type="curve"/>
      <point x="286.704" y="3.90918"/>
      <point x="245.325" y="-10.4248"/>
      <point x="195.945" y="-10.4248" type="curve" smooth="yes"/>
      <point x="80.4961" y="-10.4248"/>
      <point x="22.2217" y="52.9668"/>
      <point x="22.2217" y="166.87" type="curve" smooth="yes"/>
      <point x="22.2217" y="377.188"/>
      <point x="155.98" y="511.425"/>
      <point x="320.352" y="511.425" type="curve" smooth="yes"/>
      <point x="359.702" y="511.425"/>
      <point x="395.243" y="503.098"/>
      <point x="424.613" y="474.852" type="curve"/>
      <point x="426.954" y="485.384" type="line"/>
      <point x="431.647" y="486.137" type="line" smooth="yes"/>
      <point x="459.359" y="490.581"/>
      <point x="485.347" y="496.212"/>
      <point x="512.081" y="503.09" type="curve"/>
      <point x="409.826" y="60.4814" type="line" smooth="yes"/>
      <point x="406.042" y="44.5205" type="line"/>
      <point x="416.262" y="47.0684"/>
      <point x="426.93" y="49.7969"/>
    </contour>
    <contour>
      <point x="330.4" y="75.0723" type="curve"/>
      <point x="401.604" y="374.28" type="line"/>
      <point x="401.978" y="380.765"/>
      <point x="407.144" y="399.676"/>
      <point x="407.144" y="405.516" type="curve" smooth="yes"/>
      <point x="407.144" y="451.375"/>
      <point x="385.391" y="481.375"/>
      <point x="322.947" y="481.375" type="curve" smooth="yes"/>
      <point x="206.621" y="481.375"/>
      <point x="114.577" y="349.807"/>
      <point x="114.577" y="169.765" type="curve" smooth="yes"/>
      <point x="114.577" y="121.276"/>
      <point x="141.372" y="38.0752"/>
      <point x="213.382" y="38.0752" type="curve" smooth="yes"/>
      <point x="258.192" y="38.0752"/>
      <point x="323.655" y="61.7803"/>
    </contour>
  </outline>
</glyph>
<glyph name="b" format="1">
  <advance width="549"/>
  <unicode hex="0062"/>
  <outline>
    <contour>
      <point x="291.346" y="745.498" type="curve" smooth="yes"/>
      <point x="227.874" y="480.834" type="line"/>
      <point x="260.974" y="501.122"/>
      <point x="292.789" y="511.9"/>
      <point x="336.32" y="511.9" type="curve" smooth="yes"/>
      <point x="433.86" y="511.9"/>
      <point x="512.312" y="470.563"/>
      <point x="512.312" y="329.054" type="curve" smooth="yes"/>
      <point x="512.312" y="134.735"/>
      <point x="394.102" y="-9.9502"/>
      <point x="210.794" y="-9.9502" type="curve" smooth="yes"/>
      <point x="173.442" y="-9.9502"/>
      <point x="143.903" y="-0.825195"/>
      <point x="113.668" y="22.7725" type="curve"/>
      <point x="87.5615" y="3.89062"/>
      <point x="63.2852" y="-3.65039"/>
      <point x="6.42676" y="-3.65039" type="curve" smooth="yes"/>
      <point x="-2.2002" y="-3.65039" type="line"/>
      <point x="2.94727" y="19.623" type="line"/>
      <point x="8.62695" y="19.623" type="line" smooth="yes"/>
      <point x="28.5479" y="19.623"/>
      <point x="41.0449" y="36.0703"/>
      <point x="43.6064" y="46.9453" type="curve" smooth="yes"/>
      <point x="192.895" y="687.578" type="line" smooth="yes"/>
      <point x="193.977" y="692.011"/>
      <point x="196.562" y="703.323"/>
      <point x="196.562" y="707.165" type="curve" smooth="yes"/>
      <point x="196.562" y="715.987"/>
      <point x="194.419" y="722.471"/>
      <point x="189.816" y="725.488" type="curve" smooth="yes"/>
      <point x="186.914" y="727.391"/>
      <point x="179.693" y="728.95"/>
      <point x="170.851" y="728.95" type="curve" smooth="yes"/>
      <point x="161.565" y="728.95" type="line"/>
      <point x="164.972" y="745.254" type="line"/>
      <point x="269.367" y="770.701" type="line" smooth="yes"/>
      <point x="271.318" y="771.208"/>
      <point x="277.186" y="774"/>
      <point x="282.398" y="774" type="curve" smooth="yes"/>
      <point x="285.929" y="774"/>
      <point x="293.897" y="770.192"/>
      <point x="293.897" y="760.41" type="curve" smooth="yes"/>
      <point x="293.897" y="755.986"/>
      <point x="292.88" y="751.8"/>
    </contour>
    <contour>
      <point x="217.281" y="436.125" type="curve"/>
      <point x="136.79" y="98.707" type="line" smooth="yes"/>
      <point x="136.382" y="94.2051"/>
      <point x="136.292" y="91.9707"/>
      <point x="136.292" y="88.5752" type="curve" smooth="yes"/>
      <point x="136.292" y="44.7734"/>
      <point x="166.387" y="25.1504"/>
      <point x="232.521" y="25.1504" type="curve" smooth="yes"/>
      <point x="353.276" y="25.1504"/>
      <point x="425.996" y="174.238"/>
      <point x="425.996" y="338.887" type="curve" smooth="yes"/>
      <point x="425.996" y="415.891"/>
      <point x="404.327" y="484.4"/>
      <point x="328.052" y="484.4" type="curve" smooth="yes"/>
      <point x="292.197" y="484.4"/>
      <point x="253.909" y="463.948"/>
    </contour>
  </outline>
</glyph>
<glyph name="c" format="1">
  <advance width="482"/>
  <unicode hex="0063"/>
  <outline>
    <contour>
      <point x="313.126" y="511.425" type="curve" smooth="yes"/>
      <point x="366.292" y="511.425"/>
      <point x="426.956" y="494.004"/>
      <point x="464.178" y="427.226" type="curve" smooth="yes"/>
      <point x="466.111" y="424.323"/>
      <point x="467.71" y="420.977"/>
      <point x="467.71" y="416.657" type="curve" smooth="yes"/>
      <point x="467.71" y="391.821"/>
      <point x="429.677" y="380.875"/>
      <point x="413.048" y="380.875" type="curve" smooth="yes"/>
      <point x="344.816" y="380.875"/>
      <point x="379.072" y="484.325"/>
      <point x="303.64" y="484.325" type="curve" smooth="yes"/>
      <point x="220.338" y="484.325"/>
      <point x="106.371" y="342.743"/>
      <point x="106.371" y="195.656" type="curve" smooth="yes"/>
      <point x="106.371" y="112.196"/>
      <point x="140.448" y="37.6748"/>
      <point x="229.962" y="37.6748" type="curve" smooth="yes"/>
      <point x="271.373" y="37.6748"/>
      <point x="331.601" y="54.6504"/>
      <point x="385.691" y="96.1387" type="curve"/>
      <point x="397.208" y="72.3486" type="line"/>
      <point x="330.063" y="11.6938"/>
      <point x="269.004" y="-10.4248"/>
      <point x="188.38" y="-10.4248" type="curve" smooth="yes"/>
      <point x="87.4697" y="-10.4248"/>
      <point x="13.6279" y="38.0186"/>
      <point x="13.6279" y="174.27" type="curve" smooth="yes"/>
      <point x="13.6279" y="371.378"/>
      <point x="143.362" y="511.425"/>
    </contour>
  </outline>
</glyph>
<glyph name="d" format="1">
  <advance width="568"/>
  <unicode hex="0064"/>
  <outline>
    <contour>
      <point x="447.466" y="49.5801" type="line"/>
      <point x="447.466" y="22.5596" type="line"/>
      <point x="415.071" y="7.90395"/>
      <point x="379.67" y="-6.7998"/>
      <point x="352.183" y="-6.7998" type="curve" smooth="yes"/>
      <point x="331.263" y="-6.7998"/>
      <point x="326.294" y="10.6992"/>
      <point x="326.294" y="23.2354" type="curve" smooth="yes"/>
      <point x="326.294" y="23.2354"/>
      <point x="257.04" y="-9.9502"/>
      <point x="209.223" y="-9.9502" type="curve" smooth="yes"/>
      <point x="113.479" y="-9.9502"/>
      <point x="40.2793" y="41.5879"/>
      <point x="40.2793" y="161.988" type="curve" smooth="yes"/>
      <point x="40.2793" y="373.97"/>
      <point x="164.479" y="511.9"/>
      <point x="327.389" y="511.9" type="curve" smooth="yes"/>
      <point x="366.37" y="511.9"/>
      <point x="401.465" y="503.636"/>
      <point x="432.21" y="475.252" type="curve"/>
      <point x="480.817" y="681.632" type="line"/>
      <point x="482.423" y="688.054"/>
      <point x="485.119" y="696.343"/>
      <point x="485.119" y="703.812" type="curve" smooth="yes"/>
      <point x="485.119" y="710.366"/>
      <point x="484.751" y="718.142"/>
      <point x="481.095" y="721.639" type="curve" smooth="yes"/>
      <point x="475.752" y="726.75"/>
      <point x="465.622" y="729.101"/>
      <point x="458.802" y="729.101" type="curve" smooth="yes"/>
      <point x="450.585" y="729.101" type="line"/>
      <point x="453.96" y="744.472" type="line"/>
      <point x="491.499" y="753.923"/>
      <point x="529.609" y="762.803"/>
      <point x="566.678" y="772.726" type="curve" smooth="yes"/>
      <point x="567.421" y="772.958"/>
      <point x="569.761" y="774.15"/>
      <point x="573.225" y="774.15" type="curve" smooth="yes"/>
      <point x="581.236" y="774.15"/>
      <point x="584.062" y="766.616"/>
      <point x="584.062" y="762.415" type="curve" smooth="yes"/>
      <point x="584.062" y="757.738"/>
      <point x="582.61" y="752.53"/>
      <point x="581.13" y="746.608" type="curve"/>
      <point x="417.791" y="58.6436" type="line"/>
      <point x="413.719" y="41.4678" type="line"/>
    </contour>
    <contour>
      <point x="339.742" y="77.5098" type="curve"/>
      <point x="409.117" y="374.688" type="line"/>
      <point x="410.484" y="381.789"/>
      <point x="413.635" y="396.935"/>
      <point x="413.635" y="402.979" type="curve" smooth="yes"/>
      <point x="413.635" y="453.936"/>
      <point x="393.014" y="485.85"/>
      <point x="341.083" y="485.85" type="curve" smooth="yes"/>
      <point x="209.85" y="485.85"/>
      <point x="126.592" y="318.977"/>
      <point x="126.592" y="155.941" type="curve" smooth="yes"/>
      <point x="126.592" y="78.5303"/>
      <point x="145.483" y="25.5498"/>
      <point x="223.416" y="25.5498" type="curve" smooth="yes"/>
      <point x="273.608" y="25.5498"/>
      <point x="332.753" y="60.8545"/>
    </contour>
  </outline>
</glyph>
<glyph name="e" format="1">
  <advance width="512"/>
  <unicode hex="0065"/>
  <outline>
    <contour>
      <point x="470.616" y="427.644" type="curve" smooth="yes"/>
      <point x="470.616" y="257.021"/>
      <point x="198.218" y="250.302"/>
      <point x="113.851" y="231.783" type="curve"/>
      <point x="111.535" y="217.759"/>
      <point x="110.383" y="197.097"/>
      <point x="110.383" y="183.983" type="curve" smooth="yes"/>
      <point x="110.383" y="105.862"/>
      <point x="141.287" y="37.2002"/>
      <point x="220.99" y="37.2002" type="curve" smooth="yes"/>
      <point x="272.364" y="37.2002"/>
      <point x="338.451" y="58.8389"/>
      <point x="395.931" y="97.958" type="curve"/>
      <point x="398.66" y="90.8535"/>
      <point x="398.845" y="83.2422"/>
      <point x="398.845" y="74.4854" type="curve" smooth="yes"/>
      <point x="398.845" y="72.1357"/>
      <point x="398.255" y="70.208"/>
      <point x="396.813" y="68.959" type="curve" smooth="yes"/>
      <point x="331.78" y="14.5322"/>
      <point x="272.147" y="-10.4502"/>
      <point x="188.815" y="-10.4502" type="curve" smooth="yes"/>
      <point x="86.4717" y="-10.4502"/>
      <point x="16.6162" y="48.7646"/>
      <point x="16.6162" y="165.73" type="curve" smooth="yes"/>
      <point x="16.6162" y="396.784"/>
      <point x="164.237" y="512.45"/>
      <point x="320.999" y="512.45" type="curve" smooth="yes"/>
      <point x="406.094" y="512.45"/>
      <point x="470.616" y="486.993"/>
    </contour>
    <contour>
      <point x="311.799" y="480.866" type="curve" smooth="yes"/>
      <point x="236.679" y="480.866"/>
      <point x="134.985" y="400.893"/>
      <point x="108.658" y="264.613" type="curve"/>
      <point x="206.739" y="282.837"/>
      <point x="385.336" y="286.188"/>
      <point x="385.336" y="407.685" type="curve" smooth="yes"/>
      <point x="385.336" y="447.355"/>
      <point x="362.001" y="480.866"/>
    </contour>
  </outline>
</glyph>
<glyph name="f" format="1">
  <advance width="496"/>
  <unicode hex="0066"/>
  <outline>
    <contour>
      <point x="360.007" y="474.899" type="curve" smooth="yes"/>
      <point x="360.007" y="467.925"/>
      <point x="355.596" y="458.948"/>
      <point x="353" y="454" type="curve" smooth="yes"/>
      <point x="349.181" y="447.063" type="line"/>
      <point x="344.468" y="447.063" type="line" smooth="yes"/>
      <point x="338.899" y="447.063"/>
      <point x="265.714" y="450.798"/>
      <point x="227.059" y="451.155" type="curve"/>
      <point x="122.749" y="16.6807" type="line" smooth="yes"/>
      <point x="90.5501" y="-123.777"/>
      <point x="29.6878" y="-179.2"/>
      <point x="-89.4502" y="-179.2" type="curve" smooth="yes"/>
      <point x="-127.66" y="-179.2"/>
      <point x="-174.853" y="-165.871"/>
      <point x="-201.646" y="-116.752" type="curve"/>
      <point x="-201.646" y="-116.752"/>
      <point x="-205.013" y="-107.978"/>
      <point x="-205.013" y="-105.618" type="curve" smooth="yes"/>
      <point x="-205.013" y="-82.9561"/>
      <point x="-172.56" y="-73.8496"/>
      <point x="-158.75" y="-73.8496" type="curve" smooth="yes"/>
      <point x="-98.6309" y="-73.8496"/>
      <point x="-130.513" y="-151.05"/>
      <point x="-69.8848" y="-151.05" type="curve" smooth="yes"/>
      <point x="-8.62207" y="-151.05"/>
      <point x="21.2324" y="-78.9805"/>
      <point x="43.0303" y="24.125" type="curve" smooth="yes"/>
      <point x="141.121" y="450.808" type="line"/>
      <point x="117.453" y="450.043"/>
      <point x="98.2588" y="446.942"/>
      <point x="98.165" y="446.928" type="curve" smooth="yes"/>
      <point x="85.3438" y="444.916" type="line"/>
      <point x="104.4" y="487.561" type="line"/>
      <point x="147.882" y="487.561" type="line"/>
      <point x="149.668" y="494.469"/>
      <point x="152.554" y="505.831"/>
      <point x="155.558" y="518.693" type="curve" smooth="yes"/>
      <point x="157.815" y="528.568"/>
      <point x="161.029" y="538.917"/>
      <point x="163.194" y="547.333" type="curve"/>
      <point x="210.352" y="708.222"/>
      <point x="298.688" y="768.825"/>
      <point x="417.418" y="768.825" type="curve" smooth="yes"/>
      <point x="456.097" y="768.825"/>
      <point x="502.133" y="753.033"/>
      <point x="527.194" y="700.774" type="curve"/>
      <point x="530.299" y="695.022"/>
      <point x="530.107" y="694.452"/>
      <point x="530.107" y="691.188" type="curve" smooth="yes"/>
      <point x="530.107" y="667.235"/>
      <point x="497.674" y="656.125"/>
      <point x="482.518" y="656.125" type="curve" smooth="yes"/>
      <point x="421.876" y="656.125"/>
      <point x="457.88" y="742.775"/>
      <point x="397.854" y="742.775" type="curve" smooth="yes"/>
      <point x="335.974" y="742.775"/>
      <point x="271.921" y="656.279"/>
      <point x="243.078" y="537.616" type="curve" smooth="yes"/>
      <point x="231.772" y="491.99" type="line"/>
      <point x="329.66" y="491.99" type="line" smooth="yes"/>
      <point x="346.135" y="491.99"/>
      <point x="360.007" y="487.937"/>
    </contour>
  </outline>
</glyph>
<glyph name="g" format="1">
  <advance width="552"/>
  <unicode hex="0067"/>
  <outline>
    <contour>
      <point x="143.166" y="-241.4" type="curve" smooth="yes"/>
      <point x="239.46" y="-241.4"/>
      <point x="351.614" y="-184.095"/>
      <point x="351.614" y="-99.335" type="curve" smooth="yes"/>
      <point x="351.614" y="-41.4747"/>
      <point x="279.376" y="-37.9972"/>
      <point x="206.248" y="-30.3848" type="curve"/>
      <point x="117.639" y="-55.5537"/>
      <point x="39.2607" y="-84.0752"/>
      <point x="39.2607" y="-165.913" type="curve" smooth="yes"/>
      <point x="39.2607" y="-209.377"/>
      <point x="80.1699" y="-241.4"/>
    </contour>
    <contour>
      <point x="171.766" y="249.908" type="curve" smooth="yes"/>
      <point x="171.766" y="188.441"/>
      <point x="195.081" y="126.8"/>
      <point x="245.572" y="126.8" type="curve" smooth="yes"/>
      <point x="346.071" y="126.8"/>
      <point x="393.859" y="265.962"/>
      <point x="393.859" y="375.751" type="curve" smooth="yes"/>
      <point x="393.859" y="433.856"/>
      <point x="370.646" y="477.2"/>
      <point x="312.704" y="477.2" type="curve" smooth="yes"/>
      <point x="224.872" y="477.2"/>
      <point x="171.766" y="351.437"/>
    </contour>
    <contour>
      <point x="425.086" y="-60.3281" type="curve" smooth="yes"/>
      <point x="425.086" y="-202.842"/>
      <point x="250.582" y="-271.65"/>
      <point x="133.596" y="-271.65" type="curve" smooth="yes"/>
      <point x="48.1592" y="-271.65"/>
      <point x="-40.1611" y="-254.417"/>
      <point x="-40.1611" y="-180.487" type="curve" smooth="yes"/>
      <point x="-40.1611" y="-83.6943"/>
      <point x="67.9131" y="-45.6943"/>
      <point x="143.799" y="-23.707" type="curve"/>
      <point x="124.253" y="-21.457"/>
      <point x="107.801" y="-18.5742"/>
      <point x="94.584" y="-15.2393" type="curve"/>
      <point x="70.3486" y="-9.71484"/>
      <point x="43.04" y="1.61523"/>
      <point x="43.04" y="24.7061" type="curve" smooth="yes"/>
      <point x="43.04" y="69.1846"/>
      <point x="136.725" y="93.3682"/>
      <point x="182.357" y="106.225" type="curve"/>
      <point x="129.58" y="121.164"/>
      <point x="85.8613" y="164.925"/>
      <point x="85.8613" y="246.746" type="curve" smooth="yes"/>
      <point x="85.8613" y="409.14"/>
      <point x="199.229" y="511.65"/>
      <point x="326.318" y="511.65" type="curve" smooth="yes"/>
      <point x="363.142" y="511.65"/>
      <point x="401.792" y="501.15"/>
      <point x="426.829" y="476.864" type="curve"/>
      <point x="460.047" y="497.014"/>
      <point x="485.625" y="506.5"/>
      <point x="522.336" y="506.5" type="curve" smooth="yes"/>
      <point x="534.008" y="506.5"/>
      <point x="539.375" y="496.336"/>
      <point x="539.375" y="487.185" type="curve" smooth="yes"/>
      <point x="539.375" y="452.045"/>
      <point x="495.05" y="435.302"/>
      <point x="465.972" y="435.302" type="curve" smooth="yes"/>
      <point x="462.965" y="435.302"/>
      <point x="455.295" y="435.705"/>
      <point x="453" y="436" type="curve"/>
      <point x="462" y="418"/>
      <point x="467.333" y="388.027"/>
      <point x="467.333" y="363.354" type="curve" smooth="yes"/>
      <point x="467.333" y="118.681"/>
      <point x="279.972" y="110.385"/>
      <point x="161.947" y="57.4541" type="curve" smooth="yes"/>
      <point x="155.674" y="54.6406"/>
      <point x="150.786" y="49.0938"/>
      <point x="150.786" y="45.5918" type="curve" smooth="yes"/>
      <point x="150.786" y="41.377"/>
      <point x="154.838" y="36.9043"/>
      <point x="163.777" y="34.6338" type="curve" smooth="yes"/>
      <point x="167.948" y="33.5752"/>
      <point x="190.172" y="31.0947"/>
      <point x="203.796" y="29.8848" type="curve" smooth="yes"/>
      <point x="229.812" y="27.5752"/>
      <point x="252.252" y="27.4414"/>
      <point x="281.89" y="25.6738" type="curve" smooth="yes"/>
      <point x="364.229" y="20.7637"/>
      <point x="425.086" y="5.27051"/>
    </contour>
  </outline>
</glyph>
<glyph name="h" format="1">
  <advance width="587"/>
  <unicode hex="0068"/>
  <outline>
    <contour>
      <point x="342.131" y="44.2266" type="curve"/>
      <point x="342.131" y="70.5518"/>
      <point x="350.697" y="100.813"/>
      <point x="360.388" y="140.297" type="curve" smooth="yes"/>
      <point x="401" y="315" type="line" smooth="yes"/>
      <point x="403.804" y="326.758"/>
      <point x="405.133" y="340.994"/>
      <point x="405.133" y="351.494" type="curve" smooth="yes"/>
      <point x="405.133" y="420.543"/>
      <point x="386.32" y="472.375"/>
      <point x="328.754" y="472.375" type="curve" smooth="yes"/>
      <point x="298.284" y="472.375"/>
      <point x="247.327" y="451.027"/>
      <point x="182.732" y="388.499" type="curve"/>
      <point x="90.0449" y="-0.325195" type="line"/>
      <point x="7.58008" y="-0.325195" type="line"/>
      <point x="168.915" y="685.568" type="line"/>
      <point x="170.03" y="690.301"/>
      <point x="173.637" y="705.863"/>
      <point x="173.637" y="709.424" type="curve" smooth="yes"/>
      <point x="173.637" y="718.062"/>
      <point x="171.964" y="721.384"/>
      <point x="166.798" y="725.438" type="curve" smooth="yes"/>
      <point x="164.169" y="727.502"/>
      <point x="151.498" y="728.899"/>
      <point x="146.592" y="728.899" type="curve" smooth="yes"/>
      <point x="137.525" y="728.899" type="line"/>
      <point x="141.146" y="745.281" type="line"/>
      <point x="244.927" y="770.649" type="line" smooth="yes"/>
      <point x="247.471" y="771.308"/>
      <point x="255.332" y="773.949"/>
      <point x="257.551" y="773.949" type="curve" smooth="yes"/>
      <point x="261.009" y="773.949"/>
      <point x="270.602" y="772.837"/>
      <point x="270.602" y="763.37" type="curve" smooth="yes"/>
      <point x="270.602" y="759.028"/>
      <point x="269.64" y="754.012"/>
      <point x="268.033" y="747.423" type="curve" smooth="yes"/>
      <point x="196.415" y="446.698" type="line"/>
      <point x="246.528" y="496.115"/>
      <point x="292.073" y="511.925"/>
      <point x="344.4" y="511.925" type="curve" smooth="yes"/>
      <point x="411.216" y="511.925"/>
      <point x="489.653" y="455.935"/>
      <point x="489.653" y="358.564" type="curve" smooth="yes"/>
      <point x="489.653" y="345.805"/>
      <point x="488.028" y="332.156"/>
      <point x="484.535" y="317.425" type="curve" smooth="yes"/>
      <point x="438.755" y="129.737" type="line" smooth="yes"/>
      <point x="433.508" y="107.337"/>
      <point x="426.185" y="69.3945"/>
      <point x="426.185" y="59.0752" type="curve" smooth="yes"/>
      <point x="426.185" y="47.7861"/>
      <point x="434.286" y="43.6074"/>
      <point x="443.006" y="43.6074" type="curve" smooth="yes"/>
      <point x="457.613" y="43.6074"/>
      <point x="482.567" y="52.3389"/>
      <point x="495.482" y="65.0244" type="curve"/>
      <point x="509.981" y="52.1572" type="line" smooth="yes"/>
      <point x="489.378" y="19.8887"/>
      <point x="446.613" y="-9.97461"/>
      <point x="402.188" y="-9.97461" type="curve" smooth="yes"/>
      <point x="371.179" y="-9.97461"/>
      <point x="342.399" y="9.83105"/>
    </contour>
  </outline>
</glyph>
<glyph name="i" format="1">
  <advance width="306"/>
  <unicode hex="0069"/>
  <outline>
    <contour>
      <point x="221.874" y="474.575" type="curve"/>
      <point x="221.874" y="447.423"/>
      <point x="206.903" y="394.032"/>
      <point x="197.71" y="354.94" type="curve" smooth="yes"/>
      <point x="145.557" y="133.363" type="line" smooth="yes"/>
      <point x="139.412" y="108.682"/>
      <point x="132.671" y="75.168"/>
      <point x="132.671" y="61.5371" type="curve" smooth="yes"/>
      <point x="132.671" y="53.3896"/>
      <point x="137.98" y="44.125"/>
      <point x="146.847" y="44.125" type="curve" smooth="yes"/>
      <point x="163.312" y="44.125"/>
      <point x="185.903" y="52.2285"/>
      <point x="206.725" y="67.8457" type="curve"/>
      <point x="217.312" y="58.3594" type="line"/>
      <point x="195.612" y="19.7832"/>
      <point x="149.697" y="-9.22461"/>
      <point x="101.002" y="-9.22461" type="curve" smooth="yes"/>
      <point x="67.1758" y="-9.22461"/>
      <point x="47" y="15.3105"/>
      <point x="47" y="48.1895" type="curve" smooth="yes"/>
      <point x="47" y="69.6504"/>
      <point x="54.8779" y="104.64"/>
      <point x="65.1602" y="143.945" type="curve" smooth="yes"/>
      <point x="113.484" y="350.797" type="line"/>
      <point x="118.776" y="375.712"/>
      <point x="136.663" y="442.875"/>
      <point x="136.897" y="452.654" type="curve"/>
      <point x="136.897" y="459.403"/>
      <point x="131.8" y="462.825"/>
      <point x="126.142" y="462.825" type="curve" smooth="yes"/>
      <point x="107.993" y="462.825"/>
      <point x="94.4932" y="455.455"/>
      <point x="77.2158" y="438.817" type="curve"/>
      <point x="63.2949" y="449.497" type="line"/>
      <point x="86.7686" y="486.535"/>
      <point x="115.239" y="513.075"/>
      <point x="173.041" y="513.075" type="curve" smooth="yes"/>
      <point x="200.262" y="513.075"/>
      <point x="221.679" y="502.293"/>
    </contour>
    <contour>
      <point x="154.093" y="649.872" type="curve" smooth="yes"/>
      <point x="154.093" y="687.621"/>
      <point x="184.816" y="716.225"/>
      <point x="215.151" y="716.225" type="curve" smooth="yes"/>
      <point x="239.483" y="716.225"/>
      <point x="258.039" y="698.326"/>
      <point x="258.039" y="673.223" type="curve" smooth="yes"/>
      <point x="258.039" y="634.525"/>
      <point x="224.597" y="610.625"/>
      <point x="195.102" y="610.625" type="curve" smooth="yes"/>
      <point x="171.578" y="610.625"/>
      <point x="154.093" y="625.74"/>
    </contour>
  </outline>
</glyph>
<glyph name="j" format="1">
  <advance width="353"/>
  <unicode hex="006A"/>
  <outline>
    <contour>
      <point x="213.804" y="649.872" type="curve" smooth="yes"/>
      <point x="213.804" y="687.621"/>
      <point x="244.527" y="716.225"/>
      <point x="274.862" y="716.225" type="curve" smooth="yes"/>
      <point x="299.194" y="716.225"/>
      <point x="317.75" y="698.326"/>
      <point x="317.75" y="673.223" type="curve" smooth="yes"/>
      <point x="317.75" y="634.525"/>
      <point x="284.308" y="610.625"/>
      <point x="254.812" y="610.625" type="curve" smooth="yes"/>
      <point x="231.289" y="610.625"/>
      <point x="213.804" y="625.74"/>
    </contour>
    <contour>
      <point x="281.644" y="472.362" type="curve" smooth="yes"/>
      <point x="281.644" y="446.09"/>
      <point x="267.293" y="393.942"/>
      <point x="257.684" y="354.378" type="curve" smooth="yes"/>
      <point x="191.644" y="82.4746" type="line"/>
      <point x="188.444" y="67.8809"/>
      <point x="184.153" y="53.543"/>
      <point x="180.842" y="39.3584" type="curve"/>
      <point x="167.132" y="-14.1152"/>
      <point x="145.882" y="-49.7178"/>
      <point x="93.5122" y="-92.5576" type="curve"/>
      <point x="59.0908" y="-120.572"/>
      <point x="-9.49609" y="-165.7"/>
      <point x="-84.3896" y="-165.7" type="curve" smooth="yes"/>
      <point x="-105.341" y="-165.7"/>
      <point x="-126.214" y="-161.285"/>
      <point x="-146.976" y="-152.543" type="curve"/>
      <point x="-154.737" y="-149.218"/>
      <point x="-158.037" y="-142.543"/>
      <point x="-158.037" y="-136.325" type="curve" smooth="yes"/>
      <point x="-158.037" y="-102.089"/>
      <point x="-115.375" y="-88.2002"/>
      <point x="-90.54" y="-88.2002" type="curve" smooth="yes"/>
      <point x="-57.6436" y="-88.2002"/>
      <point x="-41.6338" y="-113.4"/>
      <point x="-17.7188" y="-113.4" type="curve" smooth="yes"/>
      <point x="-10.5625" y="-113.4"/>
      <point x="-0.245117" y="-110.669"/>
      <point x="10.2549" y="-105.739" type="curve" smooth="yes"/>
      <point x="67.9883" y="-79.3086"/>
      <point x="78.5908" y="-41.1582"/>
      <point x="95.4209" y="25.6162" type="curve" smooth="yes"/>
      <point x="177.506" y="366.48" type="line"/>
      <point x="183.066" y="389.902"/>
      <point x="194.425" y="436.954"/>
      <point x="194.666" y="448.088" type="curve"/>
      <point x="194.666" y="454.867"/>
      <point x="191.568" y="463.3"/>
      <point x="183.661" y="463.3" type="curve" smooth="yes"/>
      <point x="165.909" y="463.3"/>
      <point x="149.691" y="456.166"/>
      <point x="127.072" y="436.738" type="curve" smooth="yes"/>
      <point x="112.789" y="448.143" type="line"/>
      <point x="133.73" y="482.967"/>
      <point x="180.214" y="511.55"/>
      <point x="233.811" y="511.55" type="curve" smooth="yes"/>
      <point x="261.177" y="511.55"/>
      <point x="281.644" y="500.65"/>
    </contour>
  </outline>
</glyph>
<glyph name="k" format="1">
  <advance width="529"/>
  <unicode hex="006B"/>
  <outline>
    <contour>
      <point x="150.826" y="745.175" type="line"/>
      <point x="249.814" y="769.445" type="line" smooth="yes"/>
      <point x="253.661" y="770.652"/>
      <point x="263.789" y="773.85"/>
      <point x="267.975" y="773.85" type="curve" smooth="yes"/>
      <point x="275.125" y="773.85"/>
      <point x="279.477" y="768.454"/>
      <point x="279.477" y="762.585" type="curve" smooth="yes"/>
      <point x="279.477" y="759.196"/>
      <point x="278.783" y="750.747"/>
      <point x="277.976" y="747.434" type="curve" smooth="yes"/>
      <point x="180.834" y="341.905" type="line"/>
      <point x="180.352" y="339.637"/>
      <point x="180.116" y="337.396"/>
      <point x="180.116" y="335.763" type="curve" smooth="yes"/>
      <point x="180.116" y="327.031"/>
      <point x="185.065" y="326.344"/>
      <point x="192.201" y="326.225" type="curve"/>
      <point x="203.755" y="329.585"/>
      <point x="267.769" y="389.951"/>
      <point x="305.355" y="424.018" type="curve" smooth="yes"/>
      <point x="327.028" y="443.661"/>
      <point x="339.812" y="454.358"/>
      <point x="357.279" y="469.197" type="curve" smooth="yes"/>
      <point x="392.952" y="500.574"/>
      <point x="416.866" y="511.985"/>
      <point x="437.831" y="511.985" type="curve" smooth="yes"/>
      <point x="464.493" y="511.985"/>
      <point x="486.578" y="495.092"/>
      <point x="486.578" y="469.629" type="curve" smooth="yes"/>
      <point x="486.578" y="444.95"/>
      <point x="462.7" y="432.106"/>
      <point x="441.637" y="432.106" type="curve" smooth="yes"/>
      <point x="427.425" y="432.106"/>
      <point x="419.364" y="439.715"/>
      <point x="411.518" y="450.297" type="curve" smooth="yes"/>
      <point x="406.441" y="457.145"/>
      <point x="403.741" y="460.533"/>
      <point x="403.546" y="460.626" type="curve"/>
      <point x="402.135" y="460.626"/>
      <point x="392.945" y="454.27"/>
      <point x="380.133" y="442.747" type="curve"/>
      <point x="346.384" y="411.895" type="line"/>
      <point x="328.748" y="395.155"/>
      <point x="286.319" y="355.065"/>
      <point x="263" y="332" type="curve"/>
      <point x="267.401" y="313.619"/>
      <point x="304.705" y="244.209"/>
      <point x="329.48" y="197.759" type="curve" smooth="yes"/>
      <point x="356.092" y="147.864"/>
      <point x="389.774" y="85.8877"/>
      <point x="397.837" y="70.7227" type="curve" smooth="yes"/>
      <point x="402.628" y="61.7109"/>
      <point x="414.201" y="39.4248"/>
      <point x="432.243" y="39.4248" type="curve" smooth="yes"/>
      <point x="450.323" y="39.4248"/>
      <point x="468.459" y="46.8848"/>
      <point x="486.07" y="63.0957" type="curve"/>
      <point x="501.66" y="51.6094" type="line"/>
      <point x="481.991" y="18.6572"/>
      <point x="437.932" y="-9.9248"/>
      <point x="399.748" y="-9.9248" type="curve" smooth="yes"/>
      <point x="365.321" y="-9.9248"/>
      <point x="340.465" y="8.97363"/>
      <point x="320.873" y="40.8926" type="curve" smooth="yes"/>
      <point x="311.765" y="55.7285"/>
      <point x="289.328" y="97.6855"/>
      <point x="245.787" y="182.929" type="curve" smooth="yes"/>
      <point x="204.997" y="262.789"/>
      <point x="201.478" y="288.775"/>
      <point x="177.795" y="288.775" type="curve" smooth="yes"/>
      <point x="173.898" y="288.775"/>
      <point x="170.161" y="287.798"/>
      <point x="167.674" y="286.425" type="curve"/>
      <point x="99.8105" y="0.724609" type="line"/>
      <point x="17.4297" y="0.724609" type="line"/>
      <point x="177.936" y="685.534" type="line"/>
      <point x="179.386" y="692.022"/>
      <point x="183.198" y="704.999"/>
      <point x="183.198" y="709.533" type="curve" smooth="yes"/>
      <point x="183.198" y="717.685"/>
      <point x="180.651" y="721.414"/>
      <point x="176.102" y="724.519" type="curve" smooth="yes"/>
      <point x="171" y="728"/>
      <point x="160.709" y="728.899"/>
      <point x="156.731" y="728.899" type="curve" smooth="yes"/>
      <point x="147.385" y="728.899" type="line"/>
    </contour>
  </outline>
</glyph>
<glyph name="l" format="1">
  <advance width="298"/>
  <unicode hex="006C"/>
  <outline>
    <contour>
      <point x="27.3105" y="48.3438" type="curve" smooth="yes"/>
      <point x="27.3105" y="74.0615"/>
      <point x="36.1113" y="106.391"/>
      <point x="45.4453" y="145.97" type="curve" smooth="yes"/>
      <point x="172.184" y="687.593" type="line"/>
      <point x="173.475" y="693.188"/>
      <point x="176.105" y="706.098"/>
      <point x="176.105" y="710.066" type="curve" smooth="yes"/>
      <point x="176.105" y="718.688"/>
      <point x="172.47" y="723.014"/>
      <point x="168.469" y="725.489" type="curve" smooth="yes"/>
      <point x="164.251" y="728.099"/>
      <point x="151.878" y="728.9"/>
      <point x="147.5" y="728.9" type="curve" smooth="yes"/>
      <point x="138.701" y="728.9" type="line"/>
      <point x="144.782" y="745.255" type="line"/>
      <point x="255.85" y="772.629" type="line" smooth="yes"/>
      <point x="257.994" y="773.182"/>
      <point x="259.97" y="773.851"/>
      <point x="262.75" y="773.851" type="curve" smooth="yes"/>
      <point x="268.642" y="773.851"/>
      <point x="273.956" y="768.831"/>
      <point x="273.956" y="762.09" type="curve" smooth="yes"/>
      <point x="273.956" y="758.017"/>
      <point x="273.031" y="753.453"/>
      <point x="271.619" y="747.42" type="curve"/>
      <point x="125.34" y="134.869" type="line"/>
      <point x="120.142" y="112.011"/>
      <point x="110.76" y="70.9297"/>
      <point x="110.76" y="60.5117" type="curve" smooth="yes"/>
      <point x="110.76" y="46.6133"/>
      <point x="125.265" y="43.7725"/>
      <point x="136.768" y="43.7725" type="curve" smooth="yes"/>
      <point x="153.177" y="43.7725"/>
      <point x="173.78" y="57.3916"/>
      <point x="188.484" y="68.4209" type="curve"/>
      <point x="197.074" y="58.9346" type="line"/>
      <point x="175.404" y="20.4276"/>
      <point x="136.084" y="-9.65039"/>
      <point x="85.4121" y="-9.65039" type="curve" smooth="yes"/>
      <point x="54.5986" y="-9.65039"/>
      <point x="27.3105" y="13.0918"/>
    </contour>
  </outline>
</glyph>
<glyph name="m" format="1">
  <advance width="875"/>
  <unicode hex="006D"/>
  <outline>
    <contour>
      <point x="632.557" y="50.708" type="curve" smooth="yes"/>
      <point x="632.557" y="69.9434"/>
      <point x="640.868" y="107.871"/>
      <point x="651.196" y="148.327" type="curve" smooth="yes"/>
      <point x="694" y="331" type="line"/>
      <point x="698.206" y="348.542"/>
      <point x="700.255" y="364.531"/>
      <point x="700.255" y="378.549" type="curve" smooth="yes"/>
      <point x="700.255" y="426.835"/>
      <point x="667.014" y="465.7"/>
      <point x="610.825" y="465.7" type="curve" smooth="yes"/>
      <point x="574.998" y="465.7"/>
      <point x="527.671" y="444.168"/>
      <point x="483.229" y="397.082" type="curve"/>
      <point x="482.409" y="392.554"/>
      <point x="480.998" y="387.719"/>
      <point x="479.368" y="380.83" type="curve" smooth="yes"/>
      <point x="388.464" y="0" type="line"/>
      <point x="313.512" y="0" type="line"/>
      <point x="395" y="351" type="line"/>
      <point x="397.687" y="362.305"/>
      <point x="398.979" y="373.242"/>
      <point x="398.979" y="383.282" type="curve" smooth="yes"/>
      <point x="398.979" y="435.388"/>
      <point x="365.229" y="465.7"/>
      <point x="312.143" y="465.7" type="curve" smooth="yes"/>
      <point x="271.838" y="465.7"/>
      <point x="221.014" y="431.275"/>
      <point x="179" y="390" type="curve"/>
      <point x="87" y="0" type="line"/>
      <point x="3.87988" y="0" type="line"/>
      <point x="92.084" y="376.403" type="line" smooth="yes"/>
      <point x="98.2988" y="401.606"/>
      <point x="110.591" y="451.322"/>
      <point x="110.591" y="456.504" type="curve" smooth="yes"/>
      <point x="110.591" y="464.769"/>
      <point x="103.517" y="467.941"/>
      <point x="92.791" y="467.941" type="curve" smooth="yes"/>
      <point x="78.0176" y="467.941"/>
      <point x="60.8271" y="452.965"/>
      <point x="45.75" y="436.225" type="curve"/>
      <point x="31.2891" y="446.997" type="line"/>
      <point x="48.7334" y="479.261"/>
      <point x="84.4889" y="512.52"/>
      <point x="135.467" y="512.52" type="curve" smooth="yes"/>
      <point x="189.423" y="512.52"/>
      <point x="196.418" y="489.666"/>
      <point x="196.418" y="473.075" type="curve" smooth="yes"/>
      <point x="196.418" y="465.347"/>
      <point x="195" y="458.678"/>
      <point x="194" y="449" type="curve"/>
      <point x="240.11" y="495.5"/>
      <point x="286.896" y="512.45"/>
      <point x="344.191" y="512.45" type="curve" smooth="yes"/>
      <point x="397.771" y="512.45"/>
      <point x="453.601" y="494.074"/>
      <point x="472.1" y="439.707" type="curve"/>
      <point x="524.213" y="497.655"/>
      <point x="568.931" y="506.522"/>
      <point x="627.086" y="506.522" type="curve" smooth="yes"/>
      <point x="702.759" y="506.522"/>
      <point x="775.897" y="449.623"/>
      <point x="775.897" y="357.812" type="curve" smooth="yes"/>
      <point x="775.897" y="344.932"/>
      <point x="774.2" y="331.108"/>
      <point x="770.558" y="316.189" type="curve"/>
      <point x="726.505" y="133.199" type="line"/>
      <point x="721.275" y="110.867"/>
      <point x="711.938" y="69.9258"/>
      <point x="711.938" y="59.5723" type="curve" smooth="yes"/>
      <point x="711.938" y="50.0869"/>
      <point x="720.423" y="41.9004"/>
      <point x="729.786" y="41.9004" type="curve" smooth="yes"/>
      <point x="741.952" y="41.9004"/>
      <point x="760.555" y="46.0391"/>
      <point x="782.235" y="62.5498" type="curve"/>
      <point x="794.811" y="51.8027" type="line"/>
      <point x="773.293" y="16.5527"/>
      <point x="733.71" y="-10.4502"/>
      <point x="693.941" y="-10.4502" type="curve" smooth="yes"/>
      <point x="654.847" y="-10.4502"/>
      <point x="632.557" y="14.5811"/>
    </contour>
  </outline>
</glyph>
<glyph name="n" format="1">
  <advance width="533"/>
  <unicode hex="006E"/>
  <outline>
    <contour>
      <point x="197.708" y="469.472" type="curve" smooth="yes"/>
      <point x="197.708" y="463.899"/>
      <point x="197.44" y="457.325"/>
      <point x="196.046" y="449.36" type="curve"/>
      <point x="231.013" y="480.687"/>
      <point x="270.839" y="512.461"/>
      <point x="340.124" y="512.461" type="curve" smooth="yes"/>
      <point x="422.145" y="512.461"/>
      <point x="487.495" y="446.782"/>
      <point x="487.495" y="359.705" type="curve" smooth="yes"/>
      <point x="487.495" y="347.254"/>
      <point x="486.917" y="337.942"/>
      <point x="483.522" y="323.559" type="curve" smooth="yes"/>
      <point x="438.355" y="133.191" type="line"/>
      <point x="433.09" y="110.706"/>
      <point x="421.785" y="67.7793"/>
      <point x="421.785" y="57.5732" type="curve" smooth="yes"/>
      <point x="421.785" y="49.1309"/>
      <point x="432.179" y="38.9004"/>
      <point x="440.632" y="38.9004" type="curve" smooth="yes"/>
      <point x="455.546" y="38.9004"/>
      <point x="475.354" y="46.0039"/>
      <point x="494.082" y="64.5498" type="curve"/>
      <point x="507.784" y="54.0186" type="line" smooth="yes"/>
      <point x="487.087" y="19.2236"/>
      <point x="450.009" y="-9.4502"/>
      <point x="399.595" y="-9.4502" type="curve" smooth="yes"/>
      <point x="367.827" y="-9.4502"/>
      <point x="343.859" y="12.3252"/>
      <point x="343.859" y="46.9854" type="curve" smooth="yes"/>
      <point x="343.859" y="72.501"/>
      <point x="352.204" y="104.311"/>
      <point x="361.059" y="143.718" type="curve"/>
      <point x="400" y="310" type="line" smooth="yes"/>
      <point x="402.228" y="319.387"/>
      <point x="406.295" y="335.491"/>
      <point x="406.295" y="343.854" type="curve" smooth="yes"/>
      <point x="406.295" y="409.474"/>
      <point x="382.263" y="465.5"/>
      <point x="319.824" y="465.5" type="curve" smooth="yes"/>
      <point x="270.777" y="465.5"/>
      <point x="224.523" y="432.877"/>
      <point x="180.775" y="389.739" type="curve"/>
      <point x="89.0039" y="0.200195" type="line"/>
      <point x="6.4248" y="0.200195" type="line"/>
      <point x="93.6865" y="375.209" type="line" smooth="yes"/>
      <point x="100.562" y="402.557"/>
      <point x="111.912" y="447.348"/>
      <point x="111.912" y="457.261" type="curve" smooth="yes"/>
      <point x="111.912" y="462.657"/>
      <point x="103.517" y="466.75"/>
      <point x="97.1123" y="466.75" type="curve" smooth="yes"/>
      <point x="83.0127" y="466.75"/>
      <point x="62.1133" y="458.095"/>
      <point x="47.1875" y="434.061" type="curve"/>
      <point x="34.791" y="445.322" type="line"/>
      <point x="54.7492" y="480.669"/>
      <point x="85.3838" y="512.45"/>
      <point x="141.554" y="512.45" type="curve" smooth="yes"/>
      <point x="187.634" y="512.45"/>
      <point x="197.708" y="493.318"/>
    </contour>
  </outline>
</glyph>
<glyph name="o" format="1">
  <advance width="514"/>
  <unicode hex="006F"/>
  <outline>
    <contour>
      <point x="473.901" y="349.989" type="curve" smooth="yes"/>
      <point x="473.901" y="118.945"/>
      <point x="336.36" y="-10.375"/>
      <point x="189.683" y="-10.375" type="curve" smooth="yes"/>
      <point x="89.0605" y="-10.375"/>
      <point x="12.6758" y="29.4277"/>
      <point x="12.6758" y="149.855" type="curve" smooth="yes"/>
      <point x="12.6758" y="351.249"/>
      <point x="150.693" y="511.375"/>
      <point x="300.656" y="511.375" type="curve" smooth="yes"/>
      <point x="398.828" y="511.375"/>
      <point x="473.901" y="463.054"/>
    </contour>
    <contour>
      <point x="294.963" y="475.875" type="curve" smooth="yes"/>
      <point x="170.955" y="475.875"/>
      <point x="97.8213" y="278.886"/>
      <point x="97.8213" y="150.247" type="curve" smooth="yes"/>
      <point x="97.8213" y="82.668"/>
      <point x="119.109" y="25.125"/>
      <point x="199.014" y="25.125" type="curve" smooth="yes"/>
      <point x="318.371" y="25.125"/>
      <point x="389.483" y="215.031"/>
      <point x="389.483" y="344.278" type="curve" smooth="yes"/>
      <point x="389.483" y="409.455"/>
      <point x="366.754" y="475.875"/>
    </contour>
  </outline>
</glyph>
<glyph name="p" format="1">
  <advance width="555"/>
  <unicode hex="0070"/>
  <outline>
    <contour>
      <point x="-27" y="-232" type="line"/>
      <point x="114.438" y="373.648" type="line" smooth="yes"/>
      <point x="117.561" y="385.911"/>
      <point x="131.706" y="436.442"/>
      <point x="131.706" y="449.633" type="curve" smooth="yes"/>
      <point x="131.706" y="455.959"/>
      <point x="123.842" y="461.925"/>
      <point x="115.384" y="461.925" type="curve" smooth="yes"/>
      <point x="99.1797" y="461.925"/>
      <point x="78.7773" y="452.574"/>
      <point x="59.2285" y="434.718" type="curve"/>
      <point x="46.3086" y="445.398" type="line"/>
      <point x="67.5077" y="482.934"/>
      <point x="105.981" y="511.975"/>
      <point x="155.778" y="511.975" type="curve" smooth="yes"/>
      <point x="183.596" y="511.975"/>
      <point x="220.219" y="500.829"/>
      <point x="220.219" y="475.575" type="curve" smooth="yes"/>
      <point x="220.219" y="473.374"/>
      <point x="219.707" y="467.814"/>
      <point x="219.056" y="461.849" type="curve"/>
      <point x="254.326" y="492.81"/>
      <point x="292.753" y="511.825"/>
      <point x="336.11" y="511.825" type="curve" smooth="yes"/>
      <point x="430.597" y="511.825"/>
      <point x="507.773" y="460.614"/>
      <point x="507.773" y="338.238" type="curve" smooth="yes"/>
      <point x="507.773" y="113.978"/>
      <point x="377.938" y="-12.0254"/>
      <point x="214.729" y="-12.0254" type="curve" smooth="yes"/>
      <point x="181.113" y="-12.0254"/>
      <point x="148.013" y="-1.65527"/>
      <point x="115.057" y="20.3096" type="curve"/>
      <point x="55.2314" y="-232" type="line"/>
    </contour>
    <contour>
      <point x="331.043" y="476.325" type="curve" smooth="yes"/>
      <point x="286.865" y="476.325"/>
      <point x="245.11" y="445.102"/>
      <point x="208.304" y="410.389" type="curve"/>
      <point x="138.373" y="118.548" type="line"/>
      <point x="145.121" y="63.1064"/>
      <point x="165.486" y="18.0752"/>
      <point x="226.037" y="18.0752" type="curve" smooth="yes"/>
      <point x="317.51" y="18.0752"/>
      <point x="421.759" y="158.017"/>
      <point x="421.759" y="327.635" type="curve" smooth="yes"/>
      <point x="421.759" y="404.758"/>
      <point x="407.214" y="476.325"/>
    </contour>
  </outline>
</glyph>
<glyph name="q" format="1">
  <advance width="568"/>
  <unicode hex="0071"/>
  <outline>
    <contour>
      <point x="514.459" y="521.326" type="line" smooth="yes"/>
      <point x="517.575" y="523.876"/>
      <point x="520.487" y="526"/>
      <point x="525.032" y="526" type="curve" smooth="yes"/>
      <point x="528.48" y="526"/>
      <point x="536.983" y="523.67"/>
      <point x="536.983" y="514.617" type="curve" smooth="yes"/>
      <point x="536.983" y="509.821"/>
      <point x="535.252" y="502.918"/>
      <point x="533.884" y="497.447" type="curve" smooth="yes"/>
      <point x="361.055" y="-232" type="line"/>
      <point x="275.153" y="-232" type="line"/>
      <point x="340" y="22" type="line"/>
      <point x="306" y="0"/>
      <point x="255.228" y="-9.59961"/>
      <point x="213.659" y="-9.59961" type="curve" smooth="yes"/>
      <point x="111.629" y="-9.59961"/>
      <point x="45.793" y="40.918"/>
      <point x="45.793" y="173.159" type="curve" smooth="yes"/>
      <point x="45.793" y="361.393"/>
      <point x="164.176" y="512.25"/>
      <point x="337.953" y="512.25" type="curve" smooth="yes"/>
      <point x="372.467" y="512.25"/>
      <point x="418.631" y="499.359"/>
      <point x="451.679" y="470.343" type="curve"/>
    </contour>
    <contour>
      <point x="131.884" y="184.109" type="curve" smooth="yes"/>
      <point x="131.884" y="93.5703"/>
      <point x="155.385" y="26"/>
      <point x="228" y="26" type="curve" smooth="yes"/>
      <point x="263.761" y="26"/>
      <point x="324" y="50"/>
      <point x="352" y="74" type="curve"/>
      <point x="427.808" y="404.473" type="line"/>
      <point x="427.901" y="404.745" type="line"/>
      <point x="428.225" y="405.774" type="line"/>
      <point x="428.133" y="405.979" type="line" smooth="yes"/>
      <point x="409.564" y="446.089"/>
      <point x="385.801" y="485.15"/>
      <point x="332.746" y="485.15" type="curve" smooth="yes"/>
      <point x="217.819" y="485.15"/>
      <point x="131.884" y="316.311"/>
    </contour>
  </outline>
</glyph>
<glyph name="r" format="1">
  <advance width="427"/>
  <unicode hex="0072"/>
  <outline>
    <contour>
      <point x="31.5" y="-0.200195" type="line"/>
      <point x="119.742" y="371.736" type="line" smooth="yes"/>
      <point x="126.06" y="398.368"/>
      <point x="135.965" y="438.638"/>
      <point x="136.207" y="447.769" type="curve"/>
      <point x="136.207" y="454.545"/>
      <point x="128.109" y="460.95"/>
      <point x="122.451" y="460.95" type="curve" smooth="yes"/>
      <point x="105.558" y="460.95"/>
      <point x="92.1426" y="456.781"/>
      <point x="70.9443" y="439.389" type="curve"/>
      <point x="56.958" y="449.792" type="line"/>
      <point x="75.2324" y="482.154"/>
      <point x="114.231" y="512.2"/>
      <point x="155.205" y="512.2" type="curve" smooth="yes"/>
      <point x="185.547" y="512.2"/>
      <point x="223.232" y="501.033"/>
      <point x="223.232" y="472.702" type="curve" smooth="yes"/>
      <point x="223.232" y="462.628"/>
      <point x="221.505" y="452.734"/>
      <point x="220.908" y="445.924" type="curve"/>
      <point x="258.505" y="473.274"/>
      <point x="306.509" y="501.979"/>
      <point x="358.901" y="501.979" type="curve" smooth="yes"/>
      <point x="366.584" y="501.979"/>
      <point x="419.856" y="501.069"/>
      <point x="419.856" y="474.725" type="curve" smooth="yes"/>
      <point x="419.856" y="437.757"/>
      <point x="381.609" y="420.896"/>
      <point x="358.901" y="420.896" type="curve" smooth="yes"/>
      <point x="330.268" y="420.896"/>
      <point x="315.197" y="442.138"/>
      <point x="294.359" y="442.138" type="curve" smooth="yes"/>
      <point x="260.349" y="442.138"/>
      <point x="217.135" y="395.042"/>
      <point x="203.715" y="375.09" type="curve"/>
      <point x="114.017" y="-0.200195" type="line"/>
    </contour>
  </outline>
</glyph>
<glyph name="s" format="1">
  <advance width="398"/>
  <unicode hex="0073"/>
  <outline>
    <contour>
      <point x="54.8564" y="78" type="curve" smooth="yes"/>
      <point x="54.8564" y="45.5137"/>
      <point x="78.8574" y="19.0752"/>
      <point x="133.837" y="19.0752" type="curve" smooth="yes"/>
      <point x="186.237" y="19.0752"/>
      <point x="252.292" y="59.3037"/>
      <point x="252.292" y="127.981" type="curve" smooth="yes"/>
      <point x="252.292" y="169.353"/>
      <point x="199.114" y="208.862"/>
      <point x="164.417" y="237.578" type="curve" smooth="yes"/>
      <point x="134.16" y="262.507"/>
      <point x="67.6855" y="315.32"/>
      <point x="67.6855" y="374.374" type="curve" smooth="yes"/>
      <point x="67.6855" y="459.35"/>
      <point x="164.455" y="512"/>
      <point x="257.715" y="512" type="curve" smooth="yes"/>
      <point x="312.534" y="512"/>
      <point x="365" y="476.63"/>
      <point x="365" y="455" type="curve" smooth="yes"/>
      <point x="365" y="430.409"/>
      <point x="350.554" y="408.975"/>
      <point x="329.715" y="408.975" type="curve" smooth="yes"/>
      <point x="288.557" y="408.975"/>
      <point x="308.927" y="485.125"/>
      <point x="252.615" y="485.125" type="curve" smooth="yes"/>
      <point x="193.181" y="485.125"/>
      <point x="155.259" y="443.342"/>
      <point x="155.259" y="402.158" type="curve" smooth="yes"/>
      <point x="155.259" y="360.531"/>
      <point x="213.481" y="320.852"/>
      <point x="242.448" y="296.222" type="curve"/>
      <point x="278.307" y="263.223"/>
      <point x="340.487" y="205.917"/>
      <point x="340.487" y="149.684" type="curve" smooth="yes"/>
      <point x="340.487" y="35.3047"/>
      <point x="215.241" y="-11.2754"/>
      <point x="131.227" y="-11.2754" type="curve" smooth="yes"/>
      <point x="24.0244" y="-11.2754"/>
      <point x="-10.8848" y="55.5205"/>
      <point x="-10.8848" y="87.8252" type="curve" smooth="yes"/>
      <point x="-10.8848" y="108.084"/>
      <point x="0.295898" y="139.975"/>
      <point x="30.6152" y="139.975" type="curve" smooth="yes"/>
      <point x="45.8799" y="139.975"/>
      <point x="65.4297" y="127.028"/>
      <point x="65.4297" y="110" type="curve" smooth="yes"/>
      <point x="65.4297" y="97.2109"/>
      <point x="54.8564" y="84.957"/>
    </contour>
  </outline>
</glyph>
<glyph name="t" format="1">
  <advance width="335"/>
  <unicode hex="0074"/>
  <outline>
    <contour>
      <point x="36.6846" y="50.6924" type="curve" smooth="yes"/>
      <point x="36.6846" y="77.0449"/>
      <point x="49.3242" y="124.421"/>
      <point x="58.96" y="164.037" type="curve" smooth="yes"/>
      <point x="126.986" y="454.769" type="line"/>
      <point x="114.246" y="455.146"/>
      <point x="77.1911" y="454.636"/>
      <point x="70.0176" y="455.86" type="curve" smooth="yes"/>
      <point x="63.1182" y="457.038"/>
      <point x="62.3613" y="467.042"/>
      <point x="62.3613" y="470.23" type="curve" smooth="yes"/>
      <point x="62.3613" y="480.282"/>
      <point x="63.8145" y="494.206"/>
      <point x="76.7998" y="494.206" type="curve" smooth="yes"/>
      <point x="81.4688" y="494.206"/>
      <point x="116.173" y="494.266"/>
      <point x="135.778" y="495.002" type="curve"/>
      <point x="143.924" y="521.264"/>
      <point x="160.871" y="608.192"/>
      <point x="170.678" y="637.936" type="curve" smooth="yes"/>
      <point x="175.546" y="652.701"/>
      <point x="238.8" y="653.483"/>
      <point x="238.8" y="653.483" type="curve" smooth="yes"/>
      <point x="246.366" y="653.483"/>
      <point x="253.186" y="647.462"/>
      <point x="253.186" y="637.654" type="curve" smooth="yes"/>
      <point x="253.186" y="633.138"/>
      <point x="252.381" y="627.778"/>
      <point x="250.833" y="620.814" type="curve" smooth="yes"/>
      <point x="245.025" y="597.67"/>
      <point x="229.783" y="534.561"/>
      <point x="222.847" y="505.975" type="curve"/>
      <point x="252.672" y="506.147"/>
      <point x="271.438" y="507"/>
      <point x="281.55" y="507" type="curve" smooth="yes"/>
      <point x="294.973" y="507"/>
      <point x="306.975" y="503.707"/>
      <point x="306.975" y="491.404" type="curve" smooth="yes"/>
      <point x="306.975" y="483.936"/>
      <point x="304.779" y="478.813"/>
      <point x="301.465" y="472.531" type="curve"/>
      <point x="296.702" y="464.151" type="line"/>
      <point x="292.216" y="464.151" type="line" smooth="yes"/>
      <point x="287.9" y="464.151"/>
      <point x="241.418" y="465.071"/>
      <point x="213.398" y="465.192" type="curve"/>
      <point x="187.156" y="358.363"/>
      <point x="159.867" y="243.146"/>
      <point x="134.704" y="136.407" type="curve" smooth="yes"/>
      <point x="129.371" y="113.356"/>
      <point x="119.135" y="74"/>
      <point x="119.135" y="63.2549" type="curve" smooth="yes"/>
      <point x="119.135" y="55.0811"/>
      <point x="124.828" y="43.0752"/>
      <point x="137.982" y="43.0752" type="curve" smooth="yes"/>
      <point x="159.131" y="43.0752"/>
      <point x="181.061" y="52.4473"/>
      <point x="195.095" y="69.1504" type="curve"/>
      <point x="205.432" y="58.7295" type="line"/>
      <point x="183.124" y="18.6176"/>
      <point x="146.996" y="-9.875"/>
      <point x="93.7852" y="-9.875" type="curve" smooth="yes"/>
      <point x="62.3008" y="-9.875"/>
      <point x="36.6846" y="15.6367"/>
    </contour>
  </outline>
</glyph>
<glyph name="u" format="1">
  <advance width="541"/>
  <unicode hex="0075"/>
  <outline>
    <contour>
      <point x="33.5322" y="142.459" type="curve"/>
      <point x="87.2334" y="365.331" type="line" smooth="yes"/>
      <point x="92.4365" y="388.56"/>
      <point x="101.573" y="426.719"/>
      <point x="101.809" y="437.58" type="curve"/>
      <point x="101.809" y="449.328"/>
      <point x="88.7119" y="457.75"/>
      <point x="80.0527" y="457.75" type="curve" smooth="yes"/>
      <point x="62.0771" y="457.75"/>
      <point x="43.9072" y="452.329"/>
      <point x="26.127" y="433.743" type="curve"/>
      <point x="16.2061" y="443.423" type="line"/>
      <point x="36.0311" y="478.534"/>
      <point x="83.3691" y="512"/>
      <point x="133.953" y="512" type="curve" smooth="yes"/>
      <point x="159.836" y="512"/>
      <point x="189.488" y="504.344"/>
      <point x="189.693" y="468.42" type="curve"/>
      <point x="189.693" y="441.682"/>
      <point x="175.085" y="393.462"/>
      <point x="167.029" y="353.694" type="curve"/>
      <point x="119.297" y="156.086" type="line"/>
      <point x="116.604" y="144.971"/>
      <point x="110.323" y="119.141"/>
      <point x="110.323" y="105.954" type="curve" smooth="yes"/>
      <point x="110.323" y="46.3574"/>
      <point x="135.903" y="28"/>
      <point x="182.878" y="28" type="curve" smooth="yes"/>
      <point x="215.265" y="28"/>
      <point x="261.459" y="38.7051"/>
      <point x="307.633" y="68.3057" type="curve"/>
      <point x="412.232" y="516.8" type="line"/>
      <point x="490.659" y="516.8" type="line"/>
      <point x="381" y="37" type="line"/>
      <point x="416.298" y="46.3164" type="line"/>
      <point x="418.438" y="22.3418" type="line"/>
      <point x="386.944" y="7.63778"/>
      <point x="361.286" y="-7.5"/>
      <point x="332.384" y="-7.5" type="curve" smooth="yes"/>
      <point x="307.864" y="-7.5"/>
      <point x="301.851" y="13.6465"/>
      <point x="301.851" y="26.1689" type="curve" smooth="yes"/>
      <point x="301.851" y="28.8379"/>
      <point x="302.074" y="32.4893"/>
      <point x="302.195" y="33.8994" type="curve"/>
      <point x="256.021" y="5.80859"/>
      <point x="216.678" y="-9.59961"/>
      <point x="159.474" y="-9.59961" type="curve" smooth="yes"/>
      <point x="94.6533" y="-9.59961"/>
      <point x="28.1592" y="20.7529"/>
      <point x="28.1592" y="100.478" type="curve" smooth="yes"/>
      <point x="28.1592" y="113.304"/>
      <point x="29.8623" y="127.176"/>
    </contour>
  </outline>
</glyph>
<glyph name="v" format="1">
  <advance width="493"/>
  <unicode hex="0076"/>
  <outline>
    <contour>
      <point x="161.786" y="300.258" type="curve" smooth="yes"/>
      <point x="173.066" y="179.935"/>
      <point x="188.853" y="111.332"/>
      <point x="197.88" y="82.3428" type="curve"/>
      <point x="242.785" y="130.937"/>
      <point x="391.902" y="333.982"/>
      <point x="391.902" y="410.855" type="curve" smooth="yes"/>
      <point x="391.902" y="425.799"/>
      <point x="381.705" y="437.487"/>
      <point x="371.766" y="437.487" type="curve" smooth="yes"/>
      <point x="364.172" y="437.487"/>
      <point x="351.551" y="428.738"/>
      <point x="339.233" y="428.738" type="curve" smooth="yes"/>
      <point x="317.882" y="428.738"/>
      <point x="303.99" y="453.434"/>
      <point x="303.99" y="469.875" type="curve" smooth="yes"/>
      <point x="303.99" y="495.742"/>
      <point x="325.029" y="511.601"/>
      <point x="353.844" y="511.601" type="curve" smooth="yes"/>
      <point x="375.142" y="511.601"/>
      <point x="390.043" y="501.353"/>
      <point x="402.76" y="486.927" type="curve" smooth="yes"/>
      <point x="421.802" y="465.326"/>
      <point x="429.437" y="438.27"/>
      <point x="429.437" y="410.44" type="curve" smooth="yes"/>
      <point x="429.437" y="374.563"/>
      <point x="416.947" y="336.998"/>
      <point x="399.145" y="305.54" type="curve" smooth="yes"/>
      <point x="345.389" y="210.555"/>
      <point x="279.636" y="120.05"/>
      <point x="183.513" y="2.68262" type="curve" smooth="yes"/>
      <point x="177.098" y="-5.36621"/>
      <point x="170.664" y="-11.5498"/>
      <point x="159.492" y="-11.5498" type="curve" smooth="yes"/>
      <point x="149.336" y="-11.5498"/>
      <point x="142.658" y="-2.59863"/>
      <point x="139.311" y="3.86328" type="curve" smooth="yes"/>
      <point x="109.607" y="59.457"/>
      <point x="92.8613" y="101.903"/>
      <point x="73.2266" y="275.178" type="curve" smooth="yes"/>
      <point x="66.748" y="332.358"/>
      <point x="65.123" y="371.062"/>
      <point x="65.123" y="396.932" type="curve" smooth="yes"/>
      <point x="65.123" y="421.386"/>
      <point x="65.6875" y="441.232"/>
      <point x="65.6875" y="445.828" type="curve" smooth="yes"/>
      <point x="65.6875" y="452.13"/>
      <point x="53.7666" y="458.3"/>
      <point x="46.9375" y="458.3" type="curve" smooth="yes"/>
      <point x="29.8359" y="458.3"/>
      <point x="13.7881" y="451.695"/>
      <point x="-5.98828" y="433.293" type="curve"/>
      <point x="-15.9092" y="442.973" type="line"/>
      <point x="3.74707" y="477.785"/>
      <point x="52.1888" y="511.55"/>
      <point x="102.688" y="511.55" type="curve" smooth="yes"/>
      <point x="147.114" y="511.55"/>
      <point x="154.589" y="478.428"/>
      <point x="154.589" y="465" type="curve" smooth="yes"/>
      <point x="154.589" y="459.712"/>
      <point x="153.605" y="454.484"/>
      <point x="153.605" y="454.464" type="curve" smooth="yes"/>
      <point x="153.605" y="424.588"/>
      <point x="154.936" y="373.337"/>
    </contour>
  </outline>
</glyph>
